<svg xmlns="http://www.w3.org/2000/svg" viewBox="0 0 210 210">

<path d="M92.25 4.997C23.401 14.71-15.789 88.531 14.982 150.544c24.808 49.995 85.453 70.338 135.562 45.474 57.706-28.635 74.123-103.644 33.717-154.055C162.84 15.239 125.627.288 92.25 4.997m4.25 32.032C60.551 41.88 38.984 77.871 51.276 112.5c4.52 12.733 3.972 12.153 12.072 12.775 22.74 1.744 34.124 14.906 37.172 42.975l.624 5.75h3.928c3.758 0 3.93-.141 3.963-3.25.284-26.431 14.74-43.752 37.965-45.487 8.623-.644 8.203-.253 11.57-10.763 14.012-43.734-17.805-83.445-62.07-77.471" fill-rule="evenodd" fill="#d5d5d5"/>

</svg>