<svg xmlns="http://www.w3.org/2000/svg" viewBox="0 0 260 194">

<path fill="#d5d5d5" d="M151 .68c-6.995.719-8 1.215-8 3.946 0 2.088.338 2.441 1.75 1.827.963-.418 4.787-.967 8.5-1.219 4.929-.336 6.75-.841 6.75-1.872 0-1.117-4.554-3.861-5.315-3.202-.102.088-1.76.322-3.685.52M97.278 3.122c-2.2 2.2-.338 3.639 4.066 3.143 2.326-.262 5.9-.016 7.942.548 3.51.97 3.714.899 3.714-1.287 0-1.271-.712-2.585-1.582-2.919-2.706-1.039-12.96-.665-14.14.515M151 6.977c-7.286.931-8.005 2.314-6.363 12.242.586 3.544.713 3.649 2.711 2.25 2.451-1.717 7.931-1.925 10.763-.41 1.898 1.016 1.967.765 1.684-6.139-.338-8.254-1.084-8.928-8.795-7.943M97.506 8.99c-1.471 2.381-.244 14.126 1.403 13.427 3.391-1.437 6.146-1.594 9.218-.522 3.986 1.389 3.828 1.591 4.508-5.749.549-5.929.484-6.15-2.099-7.132-3.42-1.3-12.231-1.316-13.03-.024m49.113 15.299c-1.26.921-1.579 2.023-1.118 3.859 1.033 4.116 6.873 2.572 7.312-1.933.35-3.588-2.646-4.52-6.194-1.926m8.18 2.113c.53 4.542 5.201 6.032 5.201 1.659 0-3.004-1.625-5.061-3.999-5.061-1.23 0-1.508.785-1.202 3.402m-55.549-1.74c-.687.278-1.25 2.09-1.25 4.028 0 2.803.324 3.4 1.582 2.917.87-.334 1.995-.607 2.5-.607.505 0 .918-1.575.918-3.5 0-3.411-.81-4.024-3.75-2.838M105 27.5c0 2.784.393 3.5 1.918 3.5 1.055 0 2.63.273 3.5.607 1.953.749 2.267-4.522.382-6.407-2.683-2.683-5.8-1.447-5.8 2.3m42.25 5.162c-.687.278-1.25 2.09-1.25 4.028 0 2.803.324 3.4 1.582 2.917.87-.334 2.445-.607 3.5-.607 1.525 0 1.918-.716 1.918-3.5 0-3.537-1.807-4.429-5.75-2.838m7.75 2.652c0 2.88.411 3.531 2.476 3.926 3.188.61 3.389.338 2.604-3.524-.995-4.892-5.08-5.216-5.08-.402M99.2 34.2c-1.403 1.403-1.627 6.8-.282 6.8 2.799 0 4.082-1.448 4.082-4.607 0-3.527-1.563-4.43-3.8-2.193m5.8 2.3c0 2.784.393 3.5 1.918 3.5 1.055 0 2.63.273 3.5.607 1.953.749 2.267-4.522.382-6.407-2.683-2.683-5.8-1.447-5.8 2.3m42.75 5.58c-1.107.645-1.75 2.232-1.75 4.32v3.302l3.5-1.096c3.059-.957 3.5-1.506 3.5-4.351 0-3.48-1.759-4.208-5.25-2.175m7.635 2.097c.739 3.694.495 3.384 3.365 4.266 3.047.937 3.329-4.795.316-6.408-3.425-1.833-4.366-1.285-3.681 2.142m-55.656-1.045C97.93 44.139 97.238 50 98.918 50c2.61 0 4.082-1.46 4.082-4.048 0-3.354-.912-4.14-3.271-2.82M105 45.383c0 2.698.456 3.483 2.25 3.872 1.237.268 2.949.785 3.803 1.148 1.877.797 1.47-6.391-.432-7.638-3.069-2.011-5.621-.823-5.621 2.618m94.823 1.329c-.249 1.114-.73 12.84-.769 18.788-.019 2.75-.054 9.38-.08 14.733l-.046 9.734 4.102 4.45c4.057 4.401 4.084 4.48 2.395 7.057-.94 1.434-2.545 3.055-3.567 3.602-2.005 1.073-2.608 6.342-.85 7.429.623.385.423 1.207-.523 2.153-1.28 1.28-1.486 4.415-1.258 19.186l.273 17.656 8.407.293c4.624.161 8.808-.108 9.297-.597.49-.49.987-6.854 1.104-14.142l.213-13.25-2.761-1.428c-3.449-1.784-3.557-3.376-.229-3.376 1.393 0 2.793-.682 3.113-1.515 1.15-2.997 6.229-7.51 9.097-8.083 4.124-.825 12.086 5.908 11.568 9.782-.39 2.91 2.101 4.55 4.229 2.785.907-.753 1.477-.754 1.941-.002.362.585 2.208 1.711 4.103 2.503 1.896.792 3.733 2.248 4.084 3.235.804 2.261 3.376 5.295 4.489 5.295.465 0 .845-5.497.845-12.216v-12.215l-4.661-4.732-4.66-4.732 4.725-4.463 4.724-4.463-.212-20.1c-.134-12.748-.615-20.645-1.314-21.589-1.313-1.771-15.97-3.322-16.917-1.79-.851 1.377-.934 10.112-.139 14.545.369 2.06.327 4.535-.095 5.5-.421.965-.667 4.23-.545 7.255.227 5.673-1.859 9.975-6.569 13.544-4.781 3.623-15.939-1.987-15.116-7.6.234-1.592-.058-3.096-.648-3.341-.649-.269-.579-.476.177-.524.75-.047 1.25-1.497 1.25-3.624 0-3.421-.996-4.853-6.471-9.306-.913-.743-1.398-1.613-1.078-1.933.32-.321 1.115-.05 1.766.601s1.506 1.183 1.9 1.183c1.437 0 4.016-8.761 3.704-12.579L218.5 46.5l-9.25-.288c-5.088-.158-9.329.067-9.427.5M2.273 48.634c-.948.4-1.223 12.457-1.21 52.942L1.079 154h48.524l4.699-4.567L59 144.867v-37.655L56 104c-1.65-1.766-3-3.629-3-4.139 0-.511 1.35-2.248 3-3.861l3-2.933V57.416l-4.25-4.169-4.25-4.17-21.304-.033c-11.718-.018-22.293-.234-23.5-.48-1.208-.246-2.748-.215-3.423.07m147.227 2.35c-2.628.46-3.038.987-3.31 4.257-.309 3.726-.303 3.732 3 3.114 4.213-.788 4.544-1.206 3.867-4.876-.502-2.724-.851-2.969-3.557-2.495m6.5 2.899c0 3.349.345 3.95 2.5 4.362 3.285.628 3.765-5.497.566-7.21-2.883-1.543-3.066-1.373-3.066 2.848m-56.75-1.221c-.687.278-1.25 2.09-1.25 4.028 0 2.803.324 3.4 1.582 2.917.87-.334 1.995-.607 2.5-.607.505 0 .918-1.575.918-3.5 0-3.411-.81-4.024-3.75-2.838m5.956 2.454c.13 1.714.7 3.252 1.266 3.417 5.9 1.721 6.397 1.581 6.316-1.781-.09-3.722-1.15-4.715-5.054-4.737-2.483-.013-2.741.304-2.528 3.101m42.594 6.092c-.975.742-1.826 2.995-1.999 5.292l-.301 4-5.661.297c-3.753.197-5.845.776-6.206 1.718-.715 1.863.934 2.827 2.929 1.71 1.835-1.027 8.42.737 8.472 2.27.019.553.198 19.23.397 41.505.407 45.457 1.057 51.27 7.104 63.5 3.503 7.084 6.178 11.207 6.766 10.427.778-1.031 6.092-40.235 6.483-47.826.36-6.98.162-8.552-1.175-9.3-.885-.495-1.593-1.891-1.574-3.101.035-2.141.077-2.133 1.559.3 1.4 2.298 1.478 1.497.964-9.907-.307-6.824-.558-16.161-.558-20.75 0-6.89-.272-8.343-1.559-8.343-.857 0-1.276-.457-.931-1.016a1.21 1.21 0 0 1 1.664-.376c.691.427.843-1.148.455-4.734-1.381-12.792-.513-14.224 8.308-13.716 3.244.187 6.26-.022 6.702-.463 1.683-1.684-2.422-2.745-9.635-2.49l-7.496.265-1.054-4.985-1.053-4.985-5.451-.292c-3.342-.18-6.109.207-7.15 1m-48.481.574c-.65.413-1.325 2.768-1.5 5.234-.258 3.629-.7 4.521-2.319 4.681-1.1.108-5.062.484-8.805.835-8.857.832-8.833 3.124.028 2.632 8.542-.473 12.345 3.103 9.317 8.761C94.737 86.36 95.901 93 97.631 93c.753 0 1.369.45 1.369 1s-.744 1-1.654 1c-1.483 0-1.586 1.252-1 12.157.36 6.686.721 15.799.804 20.25.082 4.451.337 6.855.566 5.343.563-3.715 2.284-3.503 2.284.281 0 1.772-.623 3.271-1.5 3.607-.944.362-1.513 1.928-1.534 4.219-.045 4.839 9.195 52.143 10.186 52.143 1.772 0 8.104-15.526 9.497-23.287 1.885-10.498.11-80.797-2.282-90.375-.69-2.764 5.213-5.911 9.206-4.909 2.126.534 2.528.33 2.248-1.14-.272-1.427-1.502-1.85-6.081-2.089-3.571-.186-5.771-.753-5.822-1.5-.271-3.956-1.204-7.261-2.233-7.916-1.536-.976-10.832-.978-12.366-.002m-78.184 6.574c-2.012 2.142-2.187 3.213-1.924 11.75L19.5 89.5l5.5.307c3.025.169 5.927.732 6.45 1.25 1.33 1.32 2.547 1.174 2.567-.307.01-.687 1.152-2.326 2.538-3.642 2.349-2.228 2.502-2.946 2.233-10.5L38.5 68.5l-4-.317c-2.2-.174-4.428-.737-4.95-1.25-1.747-1.716-6.169-.968-8.415 1.423M54.5 82c-.34.55-.168 1 .382 1s1.278-.45 1.618-1c.34-.55.168-1-.382-1s-1.278.45-1.618 1m95.98 6.362c2.348 1.717 2.136-.471 2.968 30.633.39 14.572.957 26.722 1.261 27 .304.278.273-12.095-.069-27.495s-.626-28.787-.631-29.75c-.006-1.231-.807-1.75-2.7-1.75-2.516 0-2.57.089-.829 1.362m-43.086 29.348c.381 16.34.956 29.952 1.278 30.25.323.297.322-12.61-.002-28.683-.542-26.885-.452-29.303 1.12-30.219 1.479-.863 1.386-1.001-.688-1.028l-2.399-.03.691 29.71m110.273-22.043c-.367.366-.667 2.616-.667 5 0 5.261 4.07 6.468 6.182 1.833 2.006-4.403-2.439-9.91-5.515-6.833M26 104c0 1.867.267 2.133 1.2 1.2.933-.933.933-1.467 0-2.4-.933-.933-1.2-.667-1.2 1.2m28.5 4c-.34.55-.168 1 .382 1s1.278-.45 1.618-1c.34-.55.168-1-.382-1s-1.278.45-1.618 1m-32 1.881-3 .639v22.98l8.909.291c10.796.353 10.681.455 10.746-9.519.056-8.413-1.513-12.699-4.994-13.646-3.752-1.02-8.841-1.345-11.661-.745m20.959 4.186c-1.06 1.715-.111 1.883 1.984.351 1.622-1.186 1.672-1.418.307-1.418-.898 0-1.929.48-2.291 1.067M98 127.5c0 .825.45 1.5 1 1.5s1-.675 1-1.5-.45-1.5-1-1.5-1 .675-1 1.5m147.816 3.25c-.278 2.419-.688 2.713-3.404 2.442l-3.088-.309.409 8.309c.574 11.658-.112 10.931 10.001 10.597l8.766-.289.294-7.279c.29-7.153.229-7.356-3.5-11.717-4.662-5.454-8.96-6.249-9.478-1.754M16.638 137.5c.317.825.964 1.5 1.438 1.5.473 0 .602-.675.286-1.5-.317-.825-.964-1.5-1.438-1.5-.473 0-.602.675-.286 1.5m-8.029 2.324c-.353.571-.154 1.339.441 1.707 1.486.918 2.012.188 1.021-1.417-.532-.859-1.047-.962-1.462-.29m35.864 1.22c-.325.526.336.956 1.468.956 2.415 0 2.658-.556.591-1.349-.807-.31-1.734-.133-2.059.393m-27.93 4.887c-.317.512-.118 1.213.441 1.559.559.345 1.016-.074 1.016-.931 0-1.757-.6-2.015-1.457-.628m139.81 3.053c-.328 1.641-.992 2.739-1.475 2.441-.483-.299-.878.207-.878 1.123 0 1.032.543 1.458 1.427 1.118.785-.301 1.974.112 2.643.919 1.593 1.918 4.93-.817 4.93-4.04 0-5.028-5.686-6.364-6.647-1.561M7.5 148c.34.55.816 1 1.059 1s.441-.45.441-1-.477-1-1.059-1-.781.45-.441 1m94.75-.338c-1.685.68-1.593 6.808.123 8.233 3.16 2.622 6.242-2.001 4.49-6.736-.778-2.104-2.069-2.523-4.613-1.497m5.82 7.088c.063 2.437.168 2.522.93.75 1.174-2.731 1.174-3.5 0-3.5-.55 0-.968 1.238-.93 2.75m47.182 4.75c.011 2.2.216 2.982.455 1.738.239-1.244.23-3.044-.02-4s-.446.062-.435 2.262m-47.02 2.5c0 1.925.206 2.713.457 1.75.252-.963.252-2.537 0-3.5-.251-.963-.457-.175-.457 1.75" fill-rule="evenodd"/>

</svg>