<svg xmlns="http://www.w3.org/2000/svg" viewBox="0 0 512 512">

<path d="M240 19.582c-1.925.225-7.775.891-13 1.479-66.882 7.538-130.412 47.191-169.031 105.503-35.485 53.58-47.45 123.068-32.026 185.994a237.823 237.823 0 0 0 174.499 174.499c36.022 8.829 76.094 8.829 112.116 0C400.672 465.46 469.148 395.323 488.354 307c7.113-32.712 7.113-68.288 0-101-20.967-96.424-100.302-170.201-198.418-184.52-10.132-1.479-42.867-2.723-49.936-1.898M114.127 141.941l-9.372.559 20.372 18.56c11.205 10.208 34.568 31.808 51.918 48 71.055 66.314 71.334 66.542 80.153 65.695 7.321-.704 11.137-3.811 56.302-45.853 22.55-20.991 52.861-49.019 67.358-62.284l26.359-24.118-10.359-.627c-12.721-.771-269.695-.708-282.731.068m-32.097 6.523c-2.555 3.078-2.966 17.796-2.997 107.416L79 348.259l4.933-4.379C98.532 330.919 190 245.621 190 244.968c0-.424-20.557-19.828-45.683-43.119-65.532-60.75-60.064-56.063-62.287-53.385m299.77 41.167c-48.802 44.933-58.8 54.372-58.8 55.51 0 .575 91.401 86.376 105.788 99.306l4.287 3.854-.287-97.401c-.269-91.094-.403-97.61-2.064-100.65-.976-1.787-1.966-3.25-2.199-3.25-.234 0-21.26 19.184-46.725 42.631m-192.922 79.158a85983.275 85983.275 0 0 1-59.225 55.134c-44.836 41.708-45.567 42.449-43.379 44 3.265 2.313 36.517 2.836 188.822 2.966 152.017.13 153.814.062 150.304-5.666-1.167-1.904-109.335-103.128-113.516-106.228l-2.616-1.941-12.884 11.591c-24.367 21.922-25.045 22.301-39.938 22.333-13.609.03-16.203-1.379-36.878-20.036-9.108-8.218-16.674-14.924-16.814-14.903-.14.022-6.384 5.759-13.876 12.75" fill-rule="evenodd" fill="#d5d5d5"/>

</svg>