<svg xmlns="http://www.w3.org/2000/svg" viewBox="0 0 256 256">

<path d="M111.635 3.065C84.01 6.894 58.828 19.379 39.258 38.949-20.879 99.086-5.707 199.53 69.55 239.494l6.95 3.69.763-11.342c.604-8.973 2.613-19.163 9.616-48.791 8.666-36.662 8.819-37.524 7.267-41-2.835-6.35-2.272-26.216.937-33.057 6.295-13.418 18.3-19.117 28.955-13.744 10.71 5.401 11.446 16.055 3.056 44.25-6.129 20.597-6.492 25.903-2.232 32.622 5.791 9.131 18.87 11.414 30.165 5.267 22.37-12.176 34.172-59.99 21.308-86.324C164.802 67.456 129.114 58.875 100 72.71c-28.357 13.475-41.654 53.761-25.304 76.665 3.783 5.299 3.822 6.152.753 16.486-1.872 6.302-3.786 7.015-10.157 3.787-27.168-13.767-30.123-62.887-5.6-93.113 27.68-34.118 84.327-42.807 120.658-18.507 31.304 20.937 40.913 60.016 24.708 100.486-16.002 39.963-61.147 57.802-86.693 34.255-2.423-2.234-4.543-3.883-4.71-3.665-.167.218-2.403 8.721-4.968 18.896-3.711 14.718-5.774 20.748-10.089 29.495-3.466 7.024-5.038 11.233-4.353 11.656 6.835 4.225 42.226 5.752 57.755 2.492 81.403-17.087 124.886-103.508 89.548-177.975-22.936-48.333-77.326-77.892-129.913-70.603" fill-rule="evenodd" fill="#d5d5d5"/>

</svg>