<svg xmlns="http://www.w3.org/2000/svg" viewBox="0 0 844 844">

<path fill="#d5d5d5" stroke="#d5d5d5" d="M384.5.623c-1.65.222-8.85 1.097-16 1.945C220.441 20.121 87.357 122.318 30.66 262 7.965 317.912.5 357.514.5 422c0 43.799.664 51.725 6.998 83.5C33.941 638.17 126.265 753.596 249.5 808.058 308.411 834.093 354.194 843.5 422 843.5c43.835 0 51.826-.671 83.5-7.013C638.182 809.921 753.783 717.582 807.822 595 826.772 552.016 843 489.952 843 460.467c0-1.842.45-3.627 1-3.967.636-.393 1-13.363 1-35.618 0-23.079-.341-34.79-1-34.382-.593.367-1-.792-1-2.849 0-6.537-3.121-28.156-6.518-45.151C811.929 215.675 733.339 109.924 621.5 49.221 578.678 25.978 527.604 9.539 476 2.388 464.178.75 393.658-.611 384.5.623m93.097 163.37c-11.716 3.742-21.221 12.649-25.919 24.288-1.933 4.788-2.138 7.553-2.474 33.469-.215 16.558-.753 28.25-1.3 28.25-.513 0-24.32-5.85-52.904-13-31.357-7.844-53.918-13-56.88-13-16.028 0-32.238 12.159-37.137 27.855-1.771 5.676-1.983 9.233-1.983 33.25 0 14.792-.232 26.895-.515 26.895-.283 0-24.02-5.886-52.75-13.081-47.926-12.001-52.854-13.052-59.735-12.734-14.356.662-26.986 9.233-33.326 22.614L149.5 315.5l-.266 142.5c-.261 140.143-.232 142.61 1.74 149.12 3.843 12.689 13.377 23.82 25.532 29.807C183.744 640.492 348.532 682 355.448 682c11.074 0 24.774-7.274 31.566-16.76 8.105-11.318 7.486 1.687 7.486-157.24V366.5l-2.255-6.522c-2.679-7.743-7.768-15.597-13.942-21.512-8.073-7.735-3.396-11.023 7.92-5.568 16.843 8.119 30.115 24.478 34.209 42.167 1.12 4.835 2.382 32.658 5.079 111.935 3.961 116.423 3.493 111.151 10.275 115.595 3.795 2.487 63.521 17.344 69.859 17.378 16.185.086 32.436-12.016 37.372-27.828 2.724-8.731 3.147-280.256.452-290.603-2.183-8.379-7.133-17.106-13.27-23.393-9.379-9.609-4.815-12.767 8.669-6 9.573 4.805 21.629 17.029 26.481 26.852 6.829 13.827 6.426 8.987 10.304 123.499 1.956 57.75 4.002 106.784 4.548 108.964 2.293 9.169 4.623 10.288 39.508 18.981 27.702 6.903 32.03 7.735 38.5 7.395 14.202-.745 26.836-9.383 33.117-22.639l3.174-6.701.266-142.5c.3-161.364.909-148.771-7.827-161.854-11.031-16.518-10.306-16.247-109.732-41.088-88.763-22.178-89.452-22.309-99.61-19.065M.451 422c0 19.525.134 27.513.297 17.75.164-9.762.164-25.737 0-35.5-.163-9.762-.297-1.775-.297 17.75" fill-rule="evenodd"/>

<path fill="#d5d5d5" stroke="#d5d5d5" d="M383.5 1.06C261.487 13.261 155.001 73.168 82.319 170.5-2.221 283.712-23.704 436.748 26.181 570.398c47.886 128.289 159.64 228.529 291.03 261.04 39.416 9.754 59.113 12.011 104.789 12.011 40.027 0 46.794-.526 76.724-5.969 145.144-26.398 267.475-128.789 319.095-267.082 12.74-34.134 22.571-77.411 24.838-109.341.356-5.02 1.029-9.363 1.495-9.651.467-.288.848-14.024.848-30.524s-.384-29.763-.853-29.473c-.468.29-1.141-3.55-1.495-8.534-.88-12.391-3.114-27.201-7.148-47.375-21.611-108.091-88.979-206.574-183.207-267.824C597.55 32.09 543.03 12.244 473 2.412 459.532.521 398.158-.406 383.5 1.06m-46.75 8.602c.688.278 1.813.278 2.5 0 .688-.277.125-.504-1.25-.504s-1.937.227-1.25.504m168 0c.688.278 1.813.278 2.5 0 .688-.277.125-.504-1.25-.504s-1.937.227-1.25.504m-27.25 153.74c-11.466 3.636-19.824 10.839-24.826 21.397L449.5 191.5l-.318 29.296c-.292 26.896-.456 29.254-2 28.789-20.699-6.229-103.92-25.719-109.702-25.692-15.232.072-28.704 8.819-35.32 22.932l-2.66 5.675-.306 29.25c-.259 24.834-.525 29.25-1.765 29.25-.802 0-24.065-5.694-51.694-12.654-54.963-13.845-59.795-14.597-70.483-10.968-10.893 3.698-20.323 13.011-24.973 24.665-2.132 5.342-3.341 274.72-1.295 288.457 2.21 14.839 12.411 29.295 25.551 36.211 4.762 2.507 23.837 7.634 90.5 24.322 81.334 20.362 84.763 21.131 92.51 20.746 14.994-.744 27.349-9.002 33.781-22.578l3.174-6.701.268-141.5c.188-99.335-.057-143.068-.824-146.763-1.662-8.017-7.346-18.409-13.473-24.635-9.406-9.557-6.632-11.991 6.34-5.563 17.194 8.52 30.296 25.788 33.733 44.461 1.05 5.701 2.461 37.827 4.912 111.771 3.348 101.005 3.497 103.873 5.586 107.59 3.198 5.691 4.995 6.384 38.024 14.666 28.081 7.043 31.093 7.607 38.959 7.303 14.859-.575 27.399-8.965 33.795-22.612l2.68-5.718.263-143.742c.263-143.621.262-143.747-1.832-149.962-2.888-8.574-6.38-14.202-12.788-20.61-13.402-13.402 5.479-9.364 20.724 4.432 6.207 5.617 13.701 15.935 16.53 22.759 4.356 10.509 4.465 12.108 8.086 119.623 1.936 57.475 3.767 105.972 4.068 107.771.652 3.893 5.344 9.547 9.194 11.078 9.346 3.716 60.298 15.466 67.255 15.509 17.008.105 31.072-9.738 37.721-26.401 2.132-5.342 3.341-274.72 1.295-288.457-2.21-14.839-12.411-29.295-25.551-36.211-4.766-2.509-23.736-7.603-90.241-24.233-89.344-22.341-91.771-22.81-101.724-19.654M9.158 338c0 1.375.227 1.938.504 1.25.278-.687.278-1.812 0-2.5-.277-.687-.504-.125-.504 1.25m825 0c0 1.375.227 1.938.504 1.25.278-.687.278-1.812 0-2.5-.277-.687-.504-.125-.504 1.25M.444 422c0 16.775.137 23.637.304 15.25.167-8.387.167-22.113 0-30.5S.444 405.225.444 422m8.714 84c0 1.375.227 1.938.504 1.25.278-.687.278-1.812 0-2.5-.277-.687-.504-.125-.504 1.25m825 0c0 1.375.227 1.938.504 1.25.278-.687.278-1.812 0-2.5-.277-.687-.504-.125-.504 1.25M336.75 834.662c.688.278 1.813.278 2.5 0 .688-.277.125-.504-1.25-.504s-1.937.227-1.25.504m168 0c.688.278 1.813.278 2.5 0 .688-.277.125-.504-1.25-.504s-1.937.227-1.25.504" fill-rule="evenodd"/>

<path fill="#d5d5d5" stroke="#d5d5d5" d="M399 1.384c0 .487-3.15.659-7 .384-4.306-.308-7-.119-7 .493 0 .59-2.032.798-5 .513-2.941-.283-5-.075-5 .504 0 .572-1.678.76-4 .449-2.236-.3-4.276-.089-4.627.478-.345.559-2.145.769-4 .468-2.057-.334-3.373-.133-3.373.515 0 .647-1.173.827-3 .462-1.879-.376-3-.189-3 .5 0 .689-1.121.876-3 .5-1.868-.374-3-.188-3 .492 0 .621-1.063.888-2.47.619-1.358-.26-2.254-.124-1.991.302.648 1.049-3.916 1.865-10.304 1.842-6.143-.022-29.16 6.034-48.494 12.76C161.377 65.234 65.222 161.413 22.632 283.837c-7.625 21.915-12.725 41.723-12.726 49.418-.001 4.187-.486 7.208-1.277 7.947-.702.656-1.078 2.228-.836 3.495.242 1.267-.051 2.303-.651 2.303-.68 0-.866 1.132-.492 3 .376 1.879.189 3-.5 3-.689 0-.876 1.121-.5 3 .365 1.827.185 3-.462 3-.656 0-.845 1.34-.494 3.5.363 2.242.168 3.5-.544 3.5-.742 0-.907 1.495-.495 4.5.372 2.716.225 4.5-.372 4.5-.585 0-.793 2.046-.509 5 .302 3.144.089 5-.575 5-.679 0-.855 1.934-.494 5.432.309 2.988.225 6.251-.186 7.25-.974 2.371-.974 46.265 0 48.636.411.999.495 4.262.186 7.25-.361 3.498-.185 5.432.494 5.432.664 0 .877 1.856.575 5-.284 2.954-.076 5 .509 5 .597 0 .744 1.784.372 4.5-.412 3.005-.247 4.5.495 4.5.712 0 .907 1.258.544 3.5-.351 2.16-.162 3.5.494 3.5.647 0 .827 1.173.462 3-.376 1.879-.189 3 .5 3 .689 0 .876 1.121.5 3-.374 1.868-.188 3 .492 3 .6 0 .893 1.036.651 2.303s.134 2.839.836 3.495c.791.739 1.276 3.76 1.277 7.947.001 11.426 10.662 46.799 22.824 75.733C74.826 686.625 157.375 769.174 257.522 811.27c28.725 12.074 64.887 22.939 76.065 22.853 3.988-.03 6.857.436 7.605 1.238.661.707 2.238 1.088 3.505.846 1.267-.242 2.303.051 2.303.651 0 .68 1.132.866 3 .492 1.879-.376 3-.189 3 .5 0 .689 1.121.876 3 .5 1.827-.365 3-.185 3 .462 0 .656 1.34.845 3.5.494 2.242-.363 3.5-.168 3.5.544 0 .742 1.495.907 4.5.495 2.716-.372 4.5-.225 4.5.372 0 .585 2.046.793 5 .509 3.144-.302 5-.089 5 .575 0 .679 1.934.855 5.432.494 2.988-.309 6.251-.23 7.25.175 2.371.961 46.265.961 48.636 0 .999-.405 4.256-.484 7.236-.177 3.288.34 5.672.15 6.063-.482.368-.596 2.515-.831 5.013-.549 2.609.294 4.37.084 4.37-.521 0-.625 1.722-.777 4.5-.396 3.005.412 4.5.247 4.5-.495 0-.712 1.258-.907 3.5-.544 2.16.351 3.5.162 3.5-.494 0-.647 1.173-.827 3-.462 1.879.376 3 .189 3-.5 0-.689 1.121-.876 3-.5 1.868.374 3 .188 3-.492 0-.6 1.036-.893 2.303-.651s2.844-.139 3.505-.846c.748-.802 3.617-1.268 7.605-1.238 11.178.086 47.34-10.779 76.065-22.853 100.147-42.096 182.696-124.645 224.792-224.792 12.162-28.934 22.823-64.307 22.824-75.733.001-4.187.486-7.208 1.277-7.947.702-.656 1.078-2.228.836-3.495-.242-1.267.051-2.303.651-2.303.68 0 .866-1.132.492-3-.376-1.879-.189-3 .5-3 .689 0 .876-1.121.5-3-.365-1.827-.185-3 .462-3 .656 0 .845-1.34.494-3.5-.363-2.242-.168-3.5.544-3.5.742 0 .907-1.495.495-4.5-.381-2.778-.229-4.5.396-4.5.605 0 .815-1.761.521-4.37-.271-2.404-.042-4.648.508-4.988.588-.363.793-3.22.497-6.909-.403-5.01-.176-6.564 1.114-7.634 1.748-1.451 2.335-8.66.619-7.599-.651.402-1-4.97-1-15.382 0-9.588.401-16.248 1-16.618 1.497-.925 1.268-7.554-.25-7.25-.891.178-1.273-1.617-1.331-6.25-.045-3.575-.438-7.307-.874-8.294-.436-.986-.54-3.349-.232-5.25.348-2.143.153-3.456-.512-3.456-.696 0-.856-1.579-.456-4.5.412-3.005.247-4.5-.495-4.5-.712 0-.907-1.258-.544-3.5.351-2.16.162-3.5-.494-3.5-.647 0-.827-1.173-.462-3 .376-1.879.189-3-.5-3-.689 0-.876-1.121-.5-3 .374-1.868.188-3-.492-3-.6 0-.893-1.036-.651-2.303s-.139-2.844-.846-3.505c-.802-.748-1.268-3.617-1.238-7.605.057-7.365-5.376-28.539-12.788-49.846C778.78 161.419 682.581 65.22 560.259 22.665c-21.307-7.412-42.481-12.845-49.846-12.788-3.988.03-6.857-.436-7.605-1.238-.661-.707-2.238-1.088-3.505-.846-1.267.242-2.303-.051-2.303-.651 0-.68-1.132-.866-3-.492-1.879.376-3 .189-3-.5 0-.689-1.121-.876-3-.5-1.827.365-3 .185-3-.462 0-.656-1.34-.845-3.5-.494-2.242.363-3.5.168-3.5-.544 0-.742-1.495-.907-4.5-.495-2.716.372-4.5.225-4.5-.372 0-.585-2.046-.793-5-.509-2.968.285-5 .077-5-.513 0-.612-2.694-.801-7-.493-3.85.275-7 .103-7-.384C445 .898 434.662.5 422 .5s-23 .398-23 .884m76.329 162.55c-10.708 3.855-17.585 10.226-22.739 21.066l-3.09 6.5-.306 28.75c-.26 24.388-.528 28.75-1.765 28.75-.803 0-24.048-5.651-51.656-12.557-59.609-14.911-62.353-15.215-75.773-8.403-7.181 3.646-14.208 10.974-17.7 18.46l-2.8 6-.293 29.25c-.249 24.958-.508 29.25-1.765 29.25-.81 0-23.853-5.597-51.207-12.437-55.704-13.929-57.496-14.271-65.815-12.552-16.231 3.353-28.433 15.59-31.333 31.423-1.792 9.782-1.463 277.127.351 285.688 1.874 8.84 6.662 18.046 12.713 24.444 9.549 10.096 9.616 10.118 102.893 33.468 82.739 20.713 84.629 21.134 92.956 20.733 15.029-.725 26.017-7.953 32.728-21.53l3.772-7.633.297-141.052c.215-102.231-.016-142.703-.84-147.052-1.536-8.112-7.269-18.706-13.674-25.267-7.862-8.052-6.747-10.741 2.837-6.846 20.695 8.411 36.766 30.567 38.473 53.041.295 3.89 2.057 52.444 3.914 107.9 3.749 111.902 3.173 105.826 10.42 110.061 1.778 1.038 16.584 5.241 32.903 9.338 28.501 7.156 30.044 7.434 39.17 7.049 15.352-.648 27.291-8.54 33.7-22.276l2.8-6 .266-143.5c.261-141.143.232-143.609-1.74-150.12-2.352-7.768-8.505-17.423-14.223-22.316-6.821-5.839-3.022-8.661 6.093-4.525 12.478 5.661 24.802 17.873 30.739 30.461 6.331 13.422 6.075 10.216 9.94 124.47 4.04 119.428 3.299 112.135 11.8 116.102 8.836 4.124 60.52 16.261 69.125 16.234 17.241-.056 32.036-10.752 37.75-27.292 1.707-4.941 2.349-278.329.677-288.362-1.606-9.638-7.542-21.052-14.246-27.392-9.756-9.227-10.449-9.447-101.606-32.241-91.728-22.937-92.6-23.098-103.746-19.085M.252 402.5c.011 2.2.216 2.982.455 1.738.239-1.244.23-3.044-.02-4s-.446.062-.435 2.262m0 39c.011 2.2.216 2.982.455 1.738.239-1.244.23-3.044-.02-4s-.446.062-.435 2.262" fill-rule="evenodd"/>

<path fill="#d5d5d5" stroke="#d5d5d5" d="M325 10.975c0 .56 1.383.712 3.25.356 4.557-.867 4.702-1.331.417-1.331-2.017 0-3.667.439-3.667.975m187.083-.619c1.125.962 6.917 1.48 6.917.619 0-.536-1.65-.975-3.667-.975-2.016 0-3.479.16-3.25.356M734 139.378c0 .207.788.995 1.75 1.75 1.586 1.243 1.621 1.208.378-.378-1.307-1.666-2.128-2.195-2.128-1.372m-250.731 22.315c.973.254 2.323.237 3-.037.677-.274-.119-.481-1.769-.461-1.65.02-2.204.244-1.231.498m8.481-.031c.688.278 1.813.278 2.5 0 .688-.277.125-.504-1.25-.504s-1.937.227-1.25.504M448.437 223c0 14.575.14 20.537.31 13.25.171-7.287.171-19.213 0-26.5-.17-7.287-.31-1.325-.31 13.25M681 215.5c1.292 1.375 2.574 2.5 2.849 2.5.275 0-.557-1.125-1.849-2.5-1.292-1.375-2.574-2.5-2.849-2.5-.275 0 .557 1.125 1.849 2.5m-349.187 8.183c.721.289 1.584.253 1.916-.079.332-.332-.258-.568-1.312-.525-1.165.048-1.402.285-.604.604m12 0c.721.289 1.584.253 1.916-.079.332-.332-.258-.568-1.312-.525-1.165.048-1.402.285-.604.604m-34.36 11.567-3.953 4.25 4.25-3.953c3.952-3.676 4.71-4.547 3.953-4.547-.163 0-2.076 1.912-4.25 4.25M298.158 258c0 1.375.227 1.938.504 1.25.278-.687.278-1.812 0-2.5-.277-.687-.504-.125-.504 1.25m227.301 12.067c-.363.586-.445 1.281-.183 1.543s.743-.218 1.069-1.067c.676-1.762.1-2.072-.886-.476M552.5 284c2.148 2.2 4.131 4 4.406 4 .275 0-1.258-1.8-3.406-4s-4.131-4-4.406-4c-.275 0 1.258 1.8 3.406 4m-7.342 23c0 1.375.227 1.938.504 1.25.278-.687.278-1.812 0-2.5-.277-.687-.504-.125-.504 1.25m26.074 16c0 1.925.206 2.712.457 1.75.252-.962.252-2.538 0-3.5-.251-.962-.457-.175-.457 1.75M10 328.667c0 4.285.464 4.14 1.331-.417.356-1.867.204-3.25-.356-3.25-.536 0-.975 1.65-.975 3.667m822.669-.417c.867 4.557 1.331 4.702 1.331.417 0-2.017-.439-3.667-.975-3.667-.56 0-.712 1.383-.356 3.25M572.343 348.5c.003 4.4.179 6.076.39 3.724.212-2.352.209-5.952-.006-8s-.388-.124-.384 4.276M400 343.313c0 .172 1.462 1.635 3.25 3.25l3.25 2.937-2.937-3.25c-2.738-3.029-3.563-3.71-3.563-2.937M395.486 508.5c0 76.45.119 107.577.264 69.172.145-38.406.145-100.956 0-139-.145-38.045-.264-6.622-.264 69.828M573.336 378c0 4.125.177 5.813.392 3.75.216-2.062.216-5.437 0-7.5-.215-2.062-.392-.375-.392 3.75m-153.257 1.583c.048 1.165.285 1.402.604.605.289-.722.253-1.585-.079-1.917-.332-.332-.568.258-.525 1.312m1.249 11.917c.005 3.85.185 5.302.402 3.228.216-2.075.213-5.225-.008-7-.221-1.776-.398-.078-.394 3.772m153.015 16c.003 4.4.179 6.076.39 3.724.212-2.352.209-5.952-.006-8s-.388-.124-.384 4.276m-152 13c.003 4.4.179 6.076.39 3.724.212-2.352.209-5.952-.006-8s-.388-.124-.384 4.276M575.336 437c0 4.125.177 5.813.392 3.75.216-2.062.216-5.437 0-7.5-.215-2.062-.392-.375-.392 3.75m-152 13c0 4.125.177 5.813.392 3.75.216-2.062.216-5.437 0-7.5-.215-2.062-.392-.375-.392 3.75m153.007 16.5c.003 4.4.179 6.076.39 3.724.212-2.352.209-5.952-.006-8s-.388-.124-.384 4.276m-152 13c.003 4.4.179 6.076.39 3.724.212-2.352.209-5.952-.006-8s-.388-.124-.384 4.276M577.336 496c0 4.125.177 5.813.392 3.75.216-2.062.216-5.437 0-7.5-.215-2.062-.392-.375-.392 3.75m-152 13c0 4.125.177 5.813.392 3.75.216-2.062.216-5.437 0-7.5-.215-2.062-.392-.375-.392 3.75M10 515.333c0 2.017.439 3.667.975 3.667.56 0 .712-1.383.356-3.25-.867-4.557-1.331-4.702-1.331-.417M832.855 515c-.617 3.496-.361 4.84.716 3.763.313-.314.42-2.076.236-3.917l-.334-3.346-.618 3.5m-254.535 9c0 3.575.182 5.038.403 3.25.222-1.788.222-4.712 0-6.5-.221-1.788-.403-.325-.403 3.25m-151.977 14.5c.003 4.4.179 6.076.39 3.724.212-2.352.209-5.952-.006-8s-.388-.124-.384 4.276m.993 29.5c0 4.125.177 5.813.392 3.75.216-2.062.216-5.437 0-7.5-.215-2.062-.392-.375-.392 3.75m117.822 18c0 1.375.227 1.938.504 1.25.278-.687.278-1.812 0-2.5-.277-.687-.504-.125-.504 1.25m-117 6c0 1.375.227 1.938.504 1.25.278-.687.278-1.812 0-2.5-.277-.687-.504-.125-.504 1.25m105.295 17.25-3.953 4.25 4.25-3.953c3.952-3.676 4.71-4.547 3.953-4.547-.163 0-2.076 1.913-4.25 4.25m-34.64 11.433c.721.289 1.584.253 1.916-.079.332-.332-.258-.568-1.312-.525-1.165.048-1.402.285-.604.604m12 0c.721.289 1.584.253 1.916-.079.332-.332-.258-.568-1.312-.525-1.165.048-1.402.285-.604.604M162 628.5c1.292 1.375 2.574 2.5 2.849 2.5.275 0-.557-1.125-1.849-2.5-1.292-1.375-2.574-2.5-2.849-2.5-.275 0 .557 1.125 1.849 2.5m187.75 54.162c.688.278 1.813.278 2.5 0 .688-.277.125-.504-1.25-.504s-1.937.227-1.25.504m8.519.031c.973.254 2.323.237 3-.037.677-.274-.119-.481-1.769-.461-1.65.02-2.204.244-1.231.498M107 702.378c0 .207.787.995 1.75 1.75 1.586 1.243 1.621 1.208.378-.378-1.307-1.666-2.128-2.195-2.128-1.372m627.872 1.372c-1.243 1.586-1.208 1.621.378.378 1.666-1.307 2.195-2.128 1.372-2.128-.207 0-.995.788-1.75 1.75M325 833.025c0 .536 1.65.975 3.667.975 4.285 0 4.14-.464-.417-1.331-1.867-.356-3.25-.204-3.25.356M514.5 833c-2.986.76-2.982.764.75.882 2.063.065 3.75-.332 3.75-.882 0-1.102-.17-1.102-4.5 0" fill-rule="evenodd"/>

</svg>