<svg xmlns="http://www.w3.org/2000/svg" viewBox="0 0 4300 4300">

<path fill="#d6d6d6" d="M2109 100.598c-59.082 1.532-110.624 4.668-164 9.978C976.765 206.896 206.896 976.765 110.576 1945c-15.186 152.654-13.326 308.606 5.491 460.316C230.34 3326.657 955.79 4059.188 1876 4182.425c273.098 36.575 553.136 17.955 817.028-54.323C3389.526 3937.335 3936.966 3389.884 4128.1 2693c108.825-396.78 94.761-826.399-39.724-1213.5C3820.713 709.063 3121.181 168.701 2311 106.543c-61.128-4.689-149.793-7.299-202-5.945m1195.189 792.91c-73.64 11.228-130.412 64.951-146.352 138.492-3.352 15.466-3.361 52.528-.016 67.857 30.528 139.896 202.509 188.235 298.608 83.929 92.183-100.055 38.859-262.095-95.05-288.837-14.096-2.815-43.345-3.552-57.19-1.441M848.919 1171.01c-47.726 8.078-82.921 45.752-87.879 94.071-1.456 14.186-1.456 2032.652 0 2046.838 4.634 45.158 34.163 79.405 79.63 92.351l7.83 2.23 273.976.264c303.224.293 281.642.739 301.136-6.229 29.377-10.499 52.88-34.309 63.012-63.835 6.276-18.29 5.753 7.896 6.097-304.951l.313-284.751 421.67.251 421.67.251 213.757 308.5c159.531 230.239 215.737 310.632 221.563 316.905 16.774 18.06 35.859 28.474 59.687 32.569 13.326 2.29 606.812 2.319 619.936.03 68.087-11.873 106.412-85.16 77.104-147.44-5.114-10.867 5.113 2.761-215.287-286.877-112.296-147.572-203.954-268.669-203.685-269.105.269-.435 3.316-1.813 6.77-3.062 47.045-17.007 106.948-49.975 146.281-80.507 132.944-103.199 196.226-253.621 211.618-503.013 1.625-26.338 2.354-244.177.948-283.5-7.813-218.558-54.351-352.43-164.019-471.825-51.661-56.243-139.493-112.55-222.547-142.668-71.34-25.871-166.043-41.625-279.5-46.494-28.046-1.204-1952.969-1.206-1960.081-.003M969 2288v910h315v-281.869c0-308.984-.384-289.026 5.915-307.547 11.829-34.776 40.273-59.529 78.585-68.386 8.604-1.989 1009.398-3.195 1030.067-1.241 19.347 1.828 36.306 7.787 51.556 18.114 16.104 10.907 6.676-2.228 237.377 330.677l215 310.247 160.25.003c88.137.001 160.25-.173 160.25-.387 0-.214-85.753-113.052-190.562-250.75-176.144-231.42-190.969-251.193-195.956-261.361-19.913-40.599-12.148-87.683 19.72-119.575 16.637-16.649 34.64-25.338 61.997-29.921 139.516-23.372 230.62-72.642 279.293-151.044 39.516-63.654 62.708-162.191 68.479-290.96 1.31-29.222 1.327-242.205.022-269.5-5.403-112.986-22.319-190.111-54.643-249.128-39.968-72.972-101.318-125.225-186.35-158.721-45.862-18.066-109.892-29.753-195.5-35.684-37.582-2.603-140.329-2.911-980.75-2.939L969 1378v910m401.655-669.403c-40.774 7.367-71.985 36.196-83.397 77.033l-2.758 9.87v506l2.681 9.706c10.708 38.762 36.937 64.551 77.319 76.022l8 2.272 650 .302c716.444.332 689.657.566 733.346-6.397 115.618-18.427 176.297-81.163 193.835-200.405 2.168-14.745 3.29-228.544 1.325-252.5-4.235-51.616-20.845-99.313-46.489-133.497-41.425-55.222-106.432-83.031-208.017-88.987-29.695-1.741-1316.113-1.177-1325.845.581M1493 1958.503v132.523l605.25-.357c436.519-.256 607.341-.665 612.75-1.465 20.086-2.972 27.111-4.543 28.035-6.269 4.165-7.783 4.465-16.104 4.465-123.935 0-129.867.728-123.377-14.239-126.876-25.83-6.038 28.172-5.54-634.011-5.856l-602.25-.288v132.523" fill-rule="evenodd"/>

</svg>