<svg xmlns="http://www.w3.org/2000/svg" viewBox="0 0 512 512">

<path d="M239.5 8.587c-37.375 3.712-63.812 10.923-93 25.366C34.451 89.398-18.738 218.2 21.637 336.317c40.34 118.016 162.929 187.634 285.435 162.097 135.249-28.194 220.846-162.195 190.379-298.036C475.231 101.302 391.703 24.859 290 10.52c-11.072-1.561-42.236-2.754-50.5-1.933M300 181.6a125988.228 125988.228 0 0 1-122 47.049c-32.175 12.385-60.437 23.639-62.805 25.009-6.922 4.005-8.137 10.369-2.664 13.954C114.974 269.213 176.9 289 179.467 289c.714 0 33.823-20.475 73.577-45.5C323.639 199.06 331 194.885 331 199.284c0 1.837-4.549 6.08-63 58.767-28.875 26.027-52.751 47.687-53.057 48.132-.306.446-1.352 13.074-2.323 28.064-.972 14.989-2.016 28.941-2.321 31.003-1.07 7.237 7.278 4.221 17.201-6.215 2.2-2.314 8.832-8.714 14.738-14.222l10.738-10.014 29.762 21.976c35.736 26.387 35.466 26.216 41.377 26.221 5.548.005 8.808-2.231 11.186-7.673 1.712-3.916 42.217-193.583 43.162-202.105.987-8.905-4.407-16.265-11.861-16.185-1.706.019-31.677 11.073-66.602 24.567" fill-rule="evenodd" fill="#d5d5d5"/>

</svg>