<svg xmlns="http://www.w3.org/2000/svg" viewBox="0 0 512 512">

<path d="M222 3.103C128.563 15.435 47.245 81.453 15.806 170.5c-33.054 93.624-9.987 195.495 60.131 265.55 124.121 124.009 329.956 89.758 409.073-68.069 3.242-6.469 6.853-14.398 8.023-17.621 13.78-37.95 17.423-57.68 17.423-94.36 0-36.624-3.664-56.497-17.363-94.189-1.137-3.13-4.703-11.005-7.924-17.5C435.954 45.044 330.982-11.281 222 3.103m-36.769 154.452c-35.557 1.885-45.503 3.1-52.939 6.469-11.092 5.025-18.211 14.52-20.226 26.976-1.401 8.664-1.417 119.242-.019 127.862 2.965 18.267 14.409 27.881 36.454 30.62 49.966 6.207 201.658 4.789 225.999-2.114 9.841-2.791 18.432-11.225 22.495-22.083 2.014-5.385 2.053-6.958 1.782-72.145l-.277-66.64-3-5.865c-3.807-7.443-11.824-14.864-18.93-17.523-15.823-5.92-124.773-9.084-191.339-5.557M212 255.107c0 52.068.097 55.071 1.75 54.446.963-.363 6.475-3.411 12.25-6.773 10.699-6.229 18.418-10.698 41.5-24.028 7.15-4.129 19.206-11.114 26.792-15.522l13.791-8.015-3.291-1.955c-1.811-1.075-9.817-5.713-17.792-10.308a12919.304 12919.304 0 0 1-23.214-13.403c-4.793-2.777-14.189-8.199-20.88-12.049a4311.974 4311.974 0 0 1-21.145-12.25c-4.938-2.887-9.155-5.25-9.37-5.25-.215 0-.391 24.798-.391 55.107" fill-rule="evenodd" fill="#d5d5d5"/>

</svg>