<svg xmlns="http://www.w3.org/2000/svg" viewBox="0 0 520 100">

<path fill="#766d7b" stroke="#766d7b" d="M238.667 11.667c-.367.366-.67 2.729-.674 5.25-.003 2.521-.9 9.758-1.993 16.083-1.093 6.325-1.99 11.741-1.993 12.035-.004.295-4.418.359-9.809.142-7.295-.293-12.445.145-20.139 1.715C198.373 48.051 193.523 49 193.28 49c-.242 0-.154-5.962.196-13.25.682-14.174-.175-22.25-2.361-22.25-1.048 0-1.305 2.872-1.209 13.5.116 12.887-2.118 49.333-3.509 57.25-.581 3.307-.421 3.75 1.348 3.75 2.302 0 2.864-3.277 3.905-22.731.342-6.407 1.083-11.614 1.725-12.122 3.32-2.625 25.127-5.648 33.942-4.703l6.307.675-.062 19.173c-.053 16.28.164 19.218 1.438 19.465 1.288.251 1.533-2.579 1.73-19.982.169-14.793.776-23.519 2.248-32.275 2.811-16.732 2.68-26.824-.311-23.833m269.423 5.596c-.473 1.244-2.886 6.531-5.363 11.75-2.477 5.218-5.637 13.087-7.021 17.487a6481.07 6481.07 0 0 1-6.304 19.872l-3.786 11.872-1.891-2.335c-1.04-1.284-4.573-6.7-7.852-12.036-6.267-10.198-8.165-12.428-9.748-11.451-.529.328.914 3.557 3.207 7.177 17.915 28.287 16.929 28.043 23.788 5.901 6.779-21.884 8.869-27.649 13.46-37.121C510.901 19.463 512.033 15 509.975 15c-.563 0-1.412 1.018-1.885 2.263m-241.383.27C257.821 20.794 254 25.684 254 33.793c0 10.305 6.637 17.614 17.065 18.794l5.886.666-3.725 2.738c-5.722 4.205-7.82 6.953-10.635 13.931C259.65 77.213 259.086 85 261.5 85c.994 0 1.5-.994 1.5-2.943 0-11.096 8.07-21.893 21.98-29.406l7.02-3.792v16.489c0 16.943.334 19.652 2.424 19.652 2.622 0 .285-59.837-2.547-65.206-1.938-3.674-17.51-5.072-25.17-2.261m-186.039.145c-2.024.336-3.215 1.388-4.174 3.683-6.392 15.298-11.657 66.39-6.744 65.451 1.543-.295 1.809-2.052 2.25-14.823.275-7.969.864-15.051 1.309-15.739.524-.81 3.353-1.25 8.04-1.25 15.475 0 24.116-4.585 26.695-14.164 1.388-5.154-.122-13.717-2.84-16.109-5.594-4.921-17.228-8.264-24.536-7.049m290.842 1.436c-.306.797.354 8.54 1.467 17.206C374.238 46.143 375 57.877 375 67.479c0 15.03.655 18.266 3.184 15.737.575-.575 3.484-.784 6.774-.486 10.797.979 22.404-5.235 25.113-13.445 3.223-9.766.022-24.471-5.636-25.891-2.868-.719-21.474.144-25.039 1.162-1.95.557-2.153.102-2.776-6.228-1.398-14.187-3.707-22.87-5.11-19.214M121.347 27.25c.353 4.538 1.347 12.075 2.208 16.75.862 4.675 1.83 15.137 2.151 23.248.738 18.613 1.375 19.384 7.88 9.533 4.184-6.338 15.788-26.514 25.947-45.117 4.278-7.832 4.467-6.972 4.467 20.293 0 24.649.417 29.043 2.756 29.043 1.676 0 1.249-50.834-.488-57.994-.735-3.029-4.258-5.775-4.273-3.329-.005.803-15.445 28.603-26.14 47.066-2.945 5.084-5.693 9.247-6.105 9.25-.412.004-.75-4.258-.75-9.471s-.875-15.001-1.944-21.75c-1.069-6.75-2.246-15.31-2.616-19.022-.509-5.101-1.047-6.75-2.204-6.75-1.303 0-1.435 1.229-.889 8.25m146.662-6.354c-8.237 2.94-11.417 6.974-10.564 13.4 1.888 14.237 11.971 18.837 26.345 12.021 4.241-2.011 7.882-3.789 8.091-3.951.741-.573-2.27-19.516-3.333-20.969-1.847-2.527-14.033-2.824-20.539-.501M78.01 27.704C76.42 32.851 73 49.185 73 51.631c0 .941 14.121.192 19.285-1.024 8.729-2.053 12.733-6.885 12.7-15.325-.032-8.228-8.112-14.233-19.195-14.265L80.08 21l-2.07 6.704m272.921-6.302c-1.182 1.183-26.245 2.336-33.857 1.559-8.96-.915-10.843-.593-9.063 1.552.703.848 4.739 1.593 11.048 2.04 12.284.871 11.993-3.736 2.508 39.701C318.585 79.907 318.388 83 320.5 83c.825 0 1.501-.787 1.503-1.75.001-.963 2.042-10.75 4.534-21.75 2.493-11 4.804-22.788 5.137-26.195l.605-6.196 5.611-.65c13.724-1.59 15.61-1.999 15.61-3.389 0-1.396-1.722-2.514-2.569-1.668M30.5 24.031c-18.86.885-19.976 1.3-21.404 7.957-1.616 7.536-1.483 52.307.154 51.764.925-.307 1.445-6.633 1.999-24.333.412-13.156.986-25.336 1.276-27.067.691-4.122 2.249-4.507 21.27-5.253 14.737-.577 15.311-.526 15.709 1.401.227 1.1.602 12.125.834 24.5.427 22.855 1.793 33.729 4.362 34.715 2.34.898 2.459-.224.776-7.347-1.129-4.783-1.766-13.546-2.097-28.868-.62-28.655-.602-28.544-4.674-28.337-1.763.09-9.955.481-18.205.868m353.121 23.23-5.878 1.004.628 6.014c.346 3.308.629 10.165.629 15.239v9.224l5.037.669c17.464 2.316 29.209-13.258 21.99-29.161L404.098 46l-7.299.128c-4.014.071-9.944.581-13.178 1.133" fill-rule="evenodd"/>

<path fill="#766d7b" stroke="#766d7b" d="M238.639 11.694c-.351.352-.639 3.117-.639 6.145 0 3.028-.685 9.365-1.521 14.083-.837 4.718-1.751 10.005-2.031 11.749-.489 3.044-.638 3.135-3.722 2.25-6.114-1.753-16.594-.942-34.458 2.669l-3.232.653.201-15.872c.201-15.798-.436-20.984-2.425-19.755-.665.411-.809 3.051-.397 7.265.556 5.678-.816 32.293-3.06 59.369-.422 5.09-.287 7.75.393 7.75 1.559 0 2.119-3.316 3.314-19.616.601-8.186 1.395-15.165 1.765-15.509 2.757-2.558 26.745-5.534 35.646-4.422l5.774.722-.71 12.844c-.391 7.065-.392 15.82-.003 19.456 1.342 12.526 2.601 6.147 2.962-14.998.267-15.602.89-23.905 2.431-32.402 2.799-15.426 2.671-25.34-.288-22.381m266.58 12.338c-5.424 11.402-8.88 20.642-14.752 39.446l-4.678 14.978-2.357-2.741c-1.297-1.507-4.267-5.997-6.601-9.977C471.74 57.054 468.08 52 466.881 52c-1.715 0-.805 1.923 6.224 13.151 13.009 20.779 13.25 20.792 19.436 1.099 6.723-21.398 10.177-30.761 14.567-39.484 3.652-7.258 4.863-11.786 3.142-11.75-.413.008-2.677 4.066-5.031 9.016m-236.895-6.658c-10.694 3.511-14.907 8.686-14.026 17.228 1.091 10.563 6.195 15.91 17.076 17.887l5.874 1.067-4.181 2.897c-5.198 3.603-7.561 6.878-10.649 14.756C259.621 78.346 259.178 85 261.5 85c1.026 0 1.5-1.028 1.5-3.25-.001-5.941 4.196-15.86 8.49-20.07C275.094 58.147 289.333 49 291.229 49c.424 0 .777 7.087.785 15.75.014 16.431.458 20.249 2.353 20.251 1.518.001 1.128-39.883-.523-53.407-1.639-13.429-2.678-14.609-13.36-15.171-5.15-.271-9.466.067-12.16.951M76.922 20.706C70.542 37.486 64.999 87 69.5 87c1.235 0 1.515-1.9 1.588-10.75.048-5.912.385-13 .75-15.75l.662-5 10-.655c9.565-.626 17.212-2.531 20.237-5.041 4.839-4.017 6.8-15.762 3.717-22.26-3.923-8.268-26.961-13.602-29.532-6.838m44.464 5.602c.378 4.165 1.384 11.313 2.235 15.883.852 4.57 1.795 15.128 2.095 23.462.585 16.234 1.107 18.569 3.678 16.435 2.103-1.746 11.298-16.974 23.148-38.338C157.957 33.987 162.683 26 163.044 26 164.1 26 165 42.865 165 62.654c0 15.641.221 18.346 1.5 18.346 2.398 0 1.475-54.019-1.03-60.292-1.506-3.769-2.233-2.715-17.844 25.868-6.171 11.299-15.008 26.317-17.019 28.924-1.428 1.851-1.546 1.382-1.575-6.291-.018-4.561-1.136-16.261-2.485-26-1.35-9.74-2.587-19.024-2.75-20.632-.164-1.607-.927-3.13-1.697-3.383-1.157-.381-1.281.856-.714 7.114m146.468-5.798c-7.572 2.428-11.243 7.433-10.528 14.355 1.353 13.112 12.81 18.629 25.445 12.251 3.395-1.714 6.86-3.116 7.7-3.116 2.598 0 .692-20.237-2.176-23.105-1.857-1.857-15.076-2.106-20.441-.385M371 19.811c0 .446.9 7.281 2 15.189 1.348 9.692 2 19.838 2 31.13 0 16 .784 20.455 2.976 16.909.531-.859 2.366-1.015 6.242-.531 18.516 2.313 31.602-13.817 25.643-31.609-2.497-7.457-4.071-8.203-15.861-7.512-5.775.338-11.899.881-13.609 1.207-3.106.591-3.109.586-3.777-4.751C374.644 24.097 373.596 19 372.327 19c-.73 0-1.327.365-1.327.811m-288.907 1.04c-2.877.831-4.318 4.532-7.122 18.291-2.912 14.288-3.604 13.161 7.779 12.668 12.595-.545 18.575-2.979 20.928-8.519 2.1-4.943 2.087-11.475-.029-14.704-3.271-4.993-15.66-9.439-21.556-7.736m226.245 2.411c-.984 1.593.542 2.023 10.766 3.035l10.145 1.004-.533 5.1c-.293 2.804-2.357 13.231-4.586 23.17-4.295 19.15-5.223 25.746-3.686 26.221.965.298 7.129-26.285 10.271-44.292 2.065-11.839 1.287-11.086 12.336-11.95 5.714-.447 9.238-1.194 10.007-2.12 1.489-1.794 1.142-1.802-14.558-.322-8.015.756-14.926.825-20.812.208-4.989-.524-9.045-.547-9.35-.054M32.5 24.044c-25.338 1.244-24-.622-24 33.456 0 33.978 1.812 34.159 2.547.254.589-27.152.805-28.468 4.813-29.356a407.78 407.78 0 0 0 4.14-.937c.825-.195 7.8-.472 15.5-.617l14-.263.627 23.96c.345 13.177 1.088 25.759 1.65 27.959.562 2.2 1.301 5.237 1.642 6.75 1.098 4.878 2.906 3.225 2.187-2-.36-2.612-1.074-7.9-1.586-11.75-.513-3.85-.997-15.1-1.076-25-.079-9.9-.454-19.125-.835-20.5-.819-2.963-.249-2.906-19.609-1.956m350.25 23.182-4.75.99v14.833c0 9.058.399 15.08 1.026 15.467 5.177 3.2 20.075.198 24.992-5.035 4.651-4.951 5.466-19.041 1.455-25.162-1.706-2.604-12.89-3.142-22.723-1.093" fill-rule="evenodd"/>

<path fill="#5eafa4" stroke="#5eafa4" d="M238.562 18.25c-.368 3.438-1.461 11.2-2.428 17.25l-1.758 11-3.438-.5c-6.634-.965-20.565-.088-29.209 1.838-4.801 1.07-8.779 1.656-8.839 1.303-.061-.352-.019-7.467.093-15.81.193-14.408-.266-19.332-1.8-19.33-.376 0-.733 7.087-.794 15.75-.1 14.113-1.622 40.773-3.055 53.499-.315 2.797-.133 4.75.444 4.75C188.989 88 191 74.956 191 67.099c0-3.201.28-7.861.622-10.355l.621-4.535 10.303-2.172c7.589-1.6 13.09-2.109 20.879-1.93L234 48.35v19.266c0 26.601 1.624 25.258 2.281-1.886.393-16.212 1.103-25.343 2.622-33.73 2.204-12.162 2.679-20 1.213-20-.485 0-1.185 2.813-1.554 6.25m30.938-.789c-2.75.798-5.322 1.471-5.715 1.495-.394.024-2.279 1.416-4.189 3.094-4.784 4.2-6.049 8.452-4.596 15.448 2.044 9.848 7.971 14.457 18.718 14.554 5.757.053 5.771.06 3.282 1.747-6.747 4.574-11.57 10.224-13.89 16.27-2.998 7.817-4.031 15.404-2.005 14.731.818-.272 1.65-2.516 2.01-5.424.986-7.943 5.591-16.282 11.385-20.617 6.286-4.703 16.432-10.161 17.291-9.301.357.357.82 8.163 1.028 17.346.575 25.336 2.181 22.28 2.181-4.149 0-27.098-1.843-41.851-5.53-44.267-3.26-2.136-14.071-2.638-19.97-.927m235.378 8.307c-5.363 11.291-8.024 18.424-14.079 37.732-2.684 8.56-4.894 14-5.688 14-.715 0-4.826-5.615-9.136-12.477C468.792 53.587 466 50.179 466 52.843c0 .556 1.724 3.631 3.832 6.834 2.108 3.203 6.045 9.198 8.75 13.323 7.991 12.186 7.844 12.37 19.28-24.214 1.671-5.342 5.31-14.604 8.088-20.582 5.217-11.228 5.566-12.216 4.3-12.186-.413.01-2.83 4.397-5.372 9.75M78.181 19.281c-2.111 2.545-6.156 19.008-7.653 31.146C68.786 64.564 68.462 87 70 87c.607 0 1.023-4.622 1.058-11.75.091-18.711.412-19.702 6.454-19.976 8.368-.379 18.78-2.414 22.822-4.46 7.192-3.64 10.079-16.956 5.268-24.299-4.072-6.214-23.921-11.45-27.421-7.234m43.276 5.848c.374 3.504 1.341 10.196 2.147 14.871.806 4.675 1.889 16.15 2.406 25.5.517 9.35.952 17.112.965 17.25.329 3.321 7.689-7.441 18.634-27.25 3.951-7.15 9.246-16.574 11.768-20.942 2.521-4.368 4.756-8.418 4.967-9 1.462-4.044 2.203 4.241 2.512 28.073.219 16.976.723 27.343 1.317 27.145 1.181-.394 1.126-47.119-.064-54.651-1.611-10.191-.576-11.494-22.644 28.499-3.983 7.218-8.805 15.445-10.715 18.282l-3.474 5.158-.68-11.782c-.374-6.48-1.553-17.857-2.62-25.282-1.066-7.425-2.06-15.265-2.208-17.423-.152-2.225-.857-4.116-1.63-4.37-1.1-.362-1.231.778-.681 5.922m145.675-4.895C260.682 22.385 257 27.012 257 32.967c0 14.662 12.757 21.444 26.605 14.145 3.242-1.709 6.458-3.109 7.145-3.11 2.332-.004.353-21.229-2.219-23.806-1.179-1.181-17.834-1.151-21.399.038m104.318 1.911c3.217 18.604 3.83 26.744 4.581 60.855.027 1.258.235 1.234 1.287-.148 1.068-1.405 2.012-1.499 6.372-.637 6.8 1.345 17.272-1.9 21.923-6.792 5.159-5.427 6.653-14.797 3.859-24.204-2.52-8.488-7.039-9.741-24.688-6.848l-7.716 1.264-.521-4.067c-2.114-16.508-3.176-21.949-4.362-22.342-.983-.326-1.169.411-.735 2.919M80.28 21.72c-2.183 2.183-5.975 16.07-6.959 25.483l-.639 6.117 8.44-.649c16.255-1.25 21.686-4.174 24.028-12.94 2.061-7.711-.074-12.373-7.372-16.098C90.31 19.821 82.98 19.02 80.28 21.72M342 23.183c-3.575.511-12.687.687-20.25.392-7.562-.296-13.75-.155-13.75.313 0 1.174 6.195 2.088 14.25 2.101L329 26v4.561c0 2.509-1.979 13.647-4.397 24.75C318.675 82.526 318.755 82 320.525 82c.92 0 1.475-.973 1.475-2.585 0-1.422 1.978-11.434 4.395-22.25 2.418-10.816 4.692-22.19 5.055-25.276l.659-5.611 8.196-.683C349.848 24.8 353 24.128 353 22.892c0-1.039-2.084-.984-11 .291m-307.5.826c-18.885.818-23.002 1.877-24.353 6.26-1.718 5.573-2.623 53.056-1.002 52.518C10.22 82.43 10.603 77.061 11 56.82c.359-18.319.853-25.942 1.751-27.022C14.517 27.674 25.991 26 38.79 26h10.905l.581 23.25C50.84 71.837 52.875 88 55.154 88c1.126 0 1.059-1.102-.639-10.5-.816-4.518-1.511-15.182-1.597-24.5-.176-19.17-1.005-29.281-2.418-29.492-.55-.082-7.75.144-16 .501m347 23.106-4 .901.326 15.234c.179 8.379.481 15.39.671 15.58.19.19 3.018.588 6.286.884 18.447 1.673 29.293-13.695 21.5-30.464L404.772 46l-9.636.107c-5.3.059-11.436.513-13.636 1.008" fill-rule="evenodd"/>

<path fill="#766d7b" stroke="#766d7b" d="M238.997 15.75c-.001 2.063-.957 9.15-2.123 15.75-2.383 13.492-3.966 55.5-2.091 55.5.626 0 1.194-8.541 1.511-22.75.381-17.038 1.028-25.512 2.576-33.75C241.144 18.397 241.535 12 240 12c-.55 0-1.001 1.688-1.003 3.75m-48.193 8c.335 8.699-2.091 50.845-3.482 60.5-.298 2.063-.132 3.75.368 3.75 1.194 0 3.31-14.82 3.31-23.177 0-11.816.309-12.406 7.447-14.199 9.031-2.269 23.176-3.686 29.441-2.95 3.98.468 5.233.33 4.708-.518-1.181-1.912-19.153-1.408-30.096.844-5.346 1.1-9.892 2-10.102 2-.211 0-.096-5.981.255-13.29.619-12.917-.027-22.71-1.5-22.71-.398 0-.555 4.387-.349 9.75m81.987-6.567C260.797 18.727 255 23.874 255 32.978c0 12.327 7.534 19.495 19.75 18.789 3.438-.199 6.25-.275 6.25-.169 0 .107-2.148 1.572-4.774 3.257-2.625 1.684-5.998 4.342-7.496 5.905-4.678 4.883-10.352 22.119-7.801 23.696.655.405 1.071-.339 1.071-1.916 0-4.345 4.864-16.787 7.762-19.852C273.951 58.254 289.798 48 292.46 48c.297 0 .54 8.073.54 17.941 0 12.55.349 18.157 1.162 18.659 3.098 1.915-.711-62.549-3.884-65.722-1.578-1.578-11.173-2.509-17.487-1.695M79.418 18.969C74.897 20.798 69 53.066 69 75.972c0 7.176.356 10.926 1 10.528.579-.358 1-5.802 1-12.934C71 55.007 71.003 55 78.06 55c7.589 0 19.777-2.565 22.94-4.828 6.176-4.419 8.725-16.213 5.006-23.161-2.951-5.515-20.051-10.686-26.588-8.042m191.879.027c-10.142 2.133-14.298 6.333-14.293 14.441.009 14.768 11.976 20.745 27.156 13.564 3.487-1.65 6.93-3 7.651-3 2.381-.002-1.198-22.602-3.799-23.994-2.711-1.451-11.963-2.011-16.715-1.011M122.07 23.817c-.038 2.924.795 11.024 1.853 18 1.057 6.976 2.233 19.095 2.612 26.933.379 7.838 1.046 14.25 1.481 14.25 1.104 0 9.745-13.652 16.508-26.082 6.659-12.239 15.153-27.374 17.352-30.918l1.551-2.5.729 4c.401 2.2.755 14.886.786 28.191.04 16.636.406 24.406 1.172 24.879.812.502.978-6.983.612-27.691-.613-34.689-1.16-37.279-6.039-28.629A3499.657 3499.657 0 0 1 152.268 39c-3.312 5.775-7.258 12.957-8.768 15.96-1.511 3.003-5.244 9.497-8.296 14.432-6.497 10.503-7.024 10.207-7.134-4.003-.038-5.011-.965-14.911-2.059-22-1.095-7.089-2.026-14.689-2.071-16.889-.133-6.59-1.787-8.962-1.87-2.683m250.041-3.105c-.061 1.216.808 9.316 1.931 18 1.346 10.411 1.978 20.478 1.854 29.559-.176 12.985.29 16.459 1.908 14.2.383-.534 4.521-.983 9.196-.998 19.425-.062 28.703-14.179 21.368-32.512-2.463-6.155-6.489-6.975-22.368-4.558-9.879 1.504-9.522 1.77-10.406-7.754-.718-7.728-3.303-19.554-3.483-15.937m-292.447.767c-1.485 1.484-6.045 19.314-6.976 27.271L72.19 53h6.458c19.6 0 29.184-7.322 27.022-20.645-.759-4.679-1.971-5.973-8.832-9.437-6.55-3.306-14.63-3.983-17.174-1.439M343.5 23.184c-3.3.517-12.637.757-20.75.532-8.113-.224-14.75-.091-14.75.296 0 .822 10.112 1.988 17.241 1.988h4.947l-.68 5.25c-.373 2.888-2.69 14.42-5.148 25.628-2.457 11.209-4.306 21.559-4.108 23l.359 2.622.627-2.5c1.484-5.918 8.705-39.832 9.209-43.25 1.714-11.621.801-10.398 8.323-11.155 10.444-1.05 14.23-1.775 14.23-2.723 0-1.013-1.323-.969-9.5.312m-320 1.428c-1.1.224-4.323.877-7.163 1.45-3.165.639-5.449 1.7-5.901 2.74C9.312 31.39 8.075 81.349 9.108 82.45c.531.565.926-1.054.975-4 .399-23.83 1.614-48.546 2.426-49.351 1.678-1.665 13.419-3.084 25.582-3.091L49.682 26l.652 22.25c.359 12.238.892 23.6 1.184 25.25C52.97 81.692 54.402 87 55.159 87c1.066 0 1.111.521-.727-8.368-.986-4.767-1.821-16.224-2.25-30.857L51.5 24.5l-13-.148c-7.15-.081-13.9.036-15 .26m363.756 21.403c-10.105 1.474-10.56 1.713-9.871 5.158.338 1.692.615 8.637.615 15.433v12.356l2.75.701c8.973 2.288 21.203-1.615 25.168-8.031 4.117-6.66 3.587-20.127-.971-24.685-2.112-2.112-7.617-2.402-17.691-.932" fill-rule="evenodd"/>

</svg>