<svg xmlns="http://www.w3.org/2000/svg" viewBox="0 0 2000 350">

<path fill="#f7a3ab" stroke="#f7a3ab" d="M66 25.484c0 8.292-9.805 56.297-13.509 66.135-2.883 7.66-2.978 8.381-1.107 8.381 3.045 0 8.594-20.018 14.138-51 1.426-7.975 2.842-15.347 3.145-16.382.602-2.056 12.316 27.093 16.327 40.63 3.987 13.454 5.211 12.776 9.478-5.248 2.812-11.876 9.198-30 10.572-30 1.134 0 11.896 44.951 13.228 55.25 1.275 9.858 3.734 12.501 3.721 4-.018-11.132-14.611-67.877-17.232-67.004-1.569.523-8.758 19.817-12.204 32.754-1.831 6.875-3.594 11.825-3.916 11-.323-.825-2.395-6.675-4.605-13C72.549 28.128 66 15.232 66 25.484m696 0c0 8.292-9.805 56.297-13.509 66.135-2.883 7.66-2.978 8.381-1.107 8.381 3.045 0 8.594-20.018 14.138-51 1.426-7.975 2.842-15.347 3.145-16.382.602-2.056 12.316 27.093 16.327 40.63 3.987 13.454 5.211 12.776 9.478-5.248 2.812-11.876 9.198-30 10.572-30 1.134 0 11.896 44.951 13.228 55.25 1.275 9.858 3.734 12.501 3.721 4-.018-11.132-14.611-67.877-17.232-67.004-1.569.523-8.758 19.817-12.204 32.754-1.831 6.875-3.594 11.825-3.916 11-.323-.825-2.395-6.675-4.605-13C768.549 28.128 762 15.232 762 25.484m810 0c0 8.292-9.805 56.297-13.509 66.135-2.883 7.66-2.978 8.381-1.107 8.381 3.045 0 8.594-20.018 14.138-51 1.426-7.975 2.842-15.347 3.145-16.382.602-2.056 12.316 27.093 16.327 40.63 3.987 13.454 5.211 12.776 9.478-5.248 2.812-11.876 9.198-30 10.572-30 1.134 0 11.896 44.951 13.228 55.25 1.275 9.858 3.734 12.501 3.721 4-.018-11.132-14.611-67.877-17.232-67.004-1.569.523-8.758 19.817-12.204 32.754-1.831 6.875-3.594 11.825-3.916 11-.323-.825-2.395-6.675-4.605-13C1578.549 28.128 1572 15.232 1572 25.484m224.644-2.718c-2.198 3.558 3.892 15.894 8.32 16.852 1.395.302 3.009.688 3.586.858 2.924.858 12.727-9.963 13.609-15.023.662-3.794-1.999-1.875-6.303 4.547-6.28 9.37-13.388 9.064-15.378-.662-.263-1.286-.712-3.463-.997-4.838-.506-2.436-1.883-3.277-2.837-1.734M950 24.594c-4.071 1.764-9 6.196-9 8.093 0 1.943.872 1.633 4.591-1.632 4.619-4.056 9.253-5.201 14.629-3.614 9.091 2.685 9.968 2.771 9.611.949-.222-1.129-2.482-2.289-6.831-3.504-7.868-2.198-8.563-2.213-13-.292m-34.63 3.272c-6.003 2.875-8.157 4.68-6.983 5.854.323.324 3.774-.881 7.668-2.676 7.011-3.232 7.123-3.248 11.297-1.654 5.117 1.955 5.648 1.98 5.648.271 0-4.28-10.257-5.324-17.63-1.795m-479.87.513c-10.824 2.34-14.5 3.648-14.5 5.16 0 1.838 1.664 1.844 6.824.023 18.59-6.559 30.561-2.809 41.131 12.885 8.884 13.191 9.326 15.066 7.069 30.053-1.977 13.125-3.238 14.752-13.524 17.442-22.235 5.817-33.95-5.022-33.984-31.442-.018-13.438 1.589-18.3 7.492-22.664 5.311-3.927 3.338-6.643-2.042-2.812-8.405 5.985-11.707 29.939-6.146 44.586 5.908 15.565 20.812 20.724 40.153 13.9 7.936-2.8 8.811-4.407 11.559-21.201 1.988-12.155 1.079-15.99-6.444-27.178C461.48 29.867 451.544 24.91 435.5 28.379m755.167.288c-.367.366-.674 2.954-.682 5.75-.009 2.795-.909 9.997-2 16.002-1.092 6.006-1.985 11.225-1.985 11.598 0 .373-4.388.479-9.75.235-7.383-.337-12.216.064-19.907 1.652-5.586 1.153-10.474 2.096-10.862 2.096-.387 0-.417-5.737-.067-12.75.682-13.629-.137-22.324-2.164-23-.96-.32-1.25 2.851-1.25 13.686 0 7.757-.709 23.432-1.575 34.833-.866 11.402-1.654 21.856-1.75 23.231-.114 1.633.345 2.5 1.325 2.5 1.825 0 2.812-5.957 3.803-22.939l.697-11.939 7.895-1.724c10.94-2.389 20.501-3.223 27.567-2.402l5.992.695-.622 13.668c-.671 14.758.149 25.481 1.903 24.896.709-.236 1.183-7.254 1.385-20.485.221-14.461.881-23.484 2.344-32.059 2.827-16.568 2.701-26.542-.297-23.544m158 0c-.367.366-.674 2.954-.682 5.75-.009 2.795-.909 9.997-2 16.002-1.092 6.006-1.985 11.225-1.985 11.598 0 .373-4.388.479-9.75.235-7.383-.337-12.216.064-19.907 1.652-5.586 1.153-10.474 2.096-10.862 2.096-.387 0-.417-5.737-.067-12.75.682-13.629-.137-22.324-2.164-23-.96-.32-1.25 2.851-1.25 13.686 0 7.757-.709 23.432-1.575 34.833-.866 11.402-1.654 21.856-1.75 23.231-.114 1.633.345 2.5 1.325 2.5 1.825 0 2.812-5.957 3.803-22.939l.697-11.939 7.895-1.724c10.94-2.389 20.501-3.223 27.567-2.402l5.992.695-.622 13.668c-.671 14.758.149 25.481 1.903 24.896.709-.236 1.183-7.254 1.385-20.485.221-14.461.881-23.484 2.344-32.059 2.827-16.568 2.701-26.542-.297-23.544m108.216 3.783c-.271.271.078 5.118.775 10.771 1.42 11.518 1.649 25.787.685 42.529l-.649 11.25H1436l-.014-9.75c-.035-23.928-2.507-51.171-4.857-53.521-1.942-1.942-2.239-.121-1.041 6.396.644 3.506 1.45 18.3 1.792 32.875l.62 26.5 14 .628c7.7.345 19.85.954 27 1.353 17.555.98 16.466 2.127 17.598-18.54.495-9.042 1.324-18.691 1.842-21.441 1.605-8.528 1.332-22.5-.44-22.5-1.204 0-1.5 1.528-1.501 7.75-.001 4.263-.669 11.539-1.484 16.17-.814 4.631-1.782 14.41-2.149 21.731-.792 15.781.217 14.867-15.306 13.853l-10.721-.7.359-23.152c.449-28.929-1.45-45.567-4.815-42.202m-595.418 1.441C855.91 36.308 853 45.573 853 60.841c0 15.874 1.785 21.958 8.444 28.787l5.056 5.185 8.726.71c4.799.39 9.412.446 10.25.125 3.632-1.394.868-2.393-8.104-2.929-9.203-.549-9.78-.72-13.087-3.896-8.787-8.438-11.654-27.675-6.605-44.323 2.157-7.114 4.145-8.5 12.181-8.498 14.264.003 19.303 6.568 16.694 21.748-.847 4.926.85 5.922 2.555 1.5 3.18-8.243-.246-19.658-7.104-23.673-3.645-2.135-16.991-3.23-20.541-1.686m965.098 2.359c-.734 1.788-1.652 4.735-2.04 6.55-.387 1.815-3.952 7.665-7.923 13-10.164 13.658-18.25 25.604-21.378 31.584l-2.676 5.116-.72-15c-2.043-42.581-1.95-41.5-3.561-41.5-1.349 0-1.434 2.227-.711 18.75.451 10.313.848 25.012.883 32.666.04 8.871.448 14.045 1.124 14.271.584.195 3.692-4.268 6.906-9.917 6.971-12.248 13.506-22.085 22.765-34.27 3.788-4.984 7.446-11.008 8.198-13.5 2.569-8.512 3.665-.717 4.429 31.5.547 23.049.861 27 2.141 27 1.29 0 1.493-3.143 1.448-22.5-.084-35.824-4.073-55.465-8.885-43.75m-877.098-1.298c-2.701 1.094-4.824 3.708-3.618 4.454.52.321 2.229-.086 3.799-.905 5.494-2.866 6.901-2.131 10.785 5.633 3.17 6.338 3.569 8 3.569 14.875 0 12.204-.583 14.046-3.918 12.382-1.928-.962-3.639-1.092-5.886-.447-4.111 1.179-4.361.68-4.922-9.813-.415-7.764.038-11.498 2.301-18.982.59-1.949.388-2.289-1.182-1.988-7.082 1.356-5.143 34.957 2.358 40.858 8.059 6.339 13.252-.589 14.021-18.707.464-10.94.405-11.337-2.706-17.984-4.806-10.27-7.743-12.156-14.601-9.376m-815.03 2.449c-.861 3.432.066 63.433.994 64.361.404.404 1.268.005 1.92-.886.652-.892 3.203-1.933 5.668-2.314 16.189-2.499 28.009-15.347 25.061-27.24-3.344-13.492-14.545-19.711-28.292-15.709-1.528.445-1.746-.615-2-9.726-.284-10.166-1.901-14.261-3.351-8.486m411.058-1.243c-.315.822.345 8.374 1.467 16.784 1.323 9.919 2.04 20.85 2.04 31.115 0 15.717.559 18.384 3.365 16.055.756-.627 3.325-.818 6.289-.467 17.832 2.112 30.254-12.06 25.745-29.372-2.56-9.829-3.886-10.606-16.899-9.914-6.05.322-12.138.856-13.529 1.187l-2.53.603-1.746-12.8c-1.686-12.357-2.972-16.396-4.202-13.191m369.757-.424c-2.395.431-3.083 2.822-1.012 3.512.978.326.967 1.009-.051 3.244-1.914 4.201-2.665 20.959-1.244 27.765 3.264 15.64 17.723 17.298 22.608 2.592 3.48-10.478-.374-29.035-7.276-35.035-1.854-1.611-9.154-2.776-13.025-2.078m71.738 6.933c-.033 21.454-1.213 54.329-2.089 58.205-.544 2.404-.707 4.653-.362 4.998 1.299 1.299 3.155-3.109 7.896-18.752C995.12 78.253 997.627 71 998.004 71c2.455 0 7.975 14.12 8.006 20.48.016 3.313 4.755 12.52 6.444 12.52 1.968 0 1.948-.205-.421-4.219-1.081-1.833-2.666-6.696-3.521-10.807-2.311-11.11-4.286-16.413-7.097-19.054-2.938-2.76-2.852-3.518 1.781-15.755 2.087-5.513 4.281-9.395 6.48-11.47 3.544-3.342 4.126-4.695 2.02-4.695-3.671 0-9.065 8.293-12.684 19.5-2.75 8.518-3.011 8.831-6.321 7.572l-2.636-1.001-.277-14.204c-.201-10.27-.624-14.318-1.528-14.618-.928-.309-1.253 1.6-1.262 7.418m80.262-6.901c-2.565.425-2.98 2.016-.75 2.872 1.973.758 2.015 14.485.081 26.362-1.934 11.868-2.483 36.199-.831 36.75.688.229 1.25-.296 1.25-1.167 0-1.374 1.99-1.583 15.083-1.583 11.622 0 14.988-.287 14.668-1.25-.3-.904-4.341-1.327-14.583-1.527L1068 95.945l-.001-12.722-.002-12.723 11.583.338c11.947.349 16.42-.157 16.42-1.857 0-.593-5.382-.981-13.617-.981h-13.616l.626-2.75c.344-1.513.911-8.014 1.261-14.449l.636-11.699 6.605.572c3.633.314 8.981 1.351 11.886 2.304 5.286 1.734 7.464 1.3 4.754-.949-2.427-2.014-10.558-4.029-16.26-4.029-2.973 0-6.164-.361-7.091-.803-.926-.442-2.697-.635-3.934-.431m164.254.484c-2.212 6.388-4.004 11.023-8.485 21.949l-5.207 12.699-4.656.301c-5.961.385-6.651 3.136-.906 3.611 4.552.377 4.631-.98-.723 12.341-4.19 10.423-4.669 12.849-2.54 12.849.477 0 3.038-5.614 5.691-12.476l4.822-12.475 6-.112c3.3-.062 8.25-.41 11-.775l5-.662 2.638 9.166c3.37 11.709 7.431 20.658 9.097 20.047 1.541-.564 1.562-.475-2.195-9.563-5.432-13.144-6.602-19.217-4.071-21.127 2.246-1.694 1.812-3.023-.986-3.023-1.319 0-2.395-2.757-4.957-12.706-4.603-17.865-7.884-24.773-9.522-20.044m157 0c-2.212 6.388-4.004 11.023-8.485 21.949l-5.207 12.699-4.656.301c-5.961.385-6.651 3.136-.906 3.611 4.552.377 4.631-.98-.723 12.341-4.19 10.423-4.669 12.849-2.54 12.849.477 0 3.038-5.614 5.691-12.476l4.822-12.475 6-.112c3.3-.062 8.25-.41 11-.775l5-.662 2.638 9.166c3.37 11.709 7.431 20.658 9.097 20.047 1.541-.564 1.562-.475-2.195-9.563-5.432-13.144-6.602-19.217-4.071-21.127 2.246-1.694 1.812-3.023-.986-3.023-1.319 0-2.395-2.757-4.957-12.706-4.603-17.865-7.884-24.773-9.522-20.044m356 0c-2.212 6.388-4.004 11.023-8.485 21.949l-5.207 12.699-4.656.301c-5.961.385-6.651 3.136-.906 3.611 4.552.377 4.631-.98-.723 12.341-4.19 10.423-4.669 12.849-2.54 12.849.477 0 3.038-5.614 5.691-12.476l4.822-12.475 6-.112c3.3-.062 8.25-.41 11-.775l5-.662 2.638 9.166c3.37 11.709 7.431 20.658 9.097 20.047 1.541-.564 1.562-.475-2.195-9.563-5.432-13.144-6.602-19.217-4.071-21.127 2.246-1.694 1.812-3.023-.986-3.023-1.319 0-2.395-2.757-4.957-12.706-4.603-17.865-7.884-24.773-9.522-20.044m-1562.884.555c-.273.443-.032 2.581.536 4.75.569 2.17 1.268 15.983 1.555 30.695.417 21.421.787 26.75 1.86 26.75 2.39 0 2.747-6.936 1.621-31.449-1.225-26.663-2.783-35.258-5.572-30.746M232 40.25c0 2.337.933 9.875 2.073 16.75s2.377 19.245 2.75 27.489c.55 12.174.959 15.038 2.177 15.256 1.782.317 7.971-8.986 17.791-26.745 12.299-22.242 16.923-29.953 17.572-29.303.351.35.637 11.305.637 24.345C275 93.6 275.405 98 277.756 98c1.676 0 1.249-50.834-.488-57.994-1.063-4.381-3.505-4.994-5.156-1.295-1.34 3.003-12.09 22.271-23.456 42.039-3.874 6.738-7.378 12.25-7.787 12.25-.409 0-.896-4.838-1.081-10.75-.465-14.833-4.904-46.25-6.535-46.25-.807 0-1.253 1.512-1.253 4.25m268.986-2.417c-.603.204-.986 7.983-.986 20.04 0 21.717-.853 27.02-5.935 36.891l-2.954 5.736-1.275-3.25c-.701-1.787-1.851-3.25-2.555-3.25-2.096 0-1.458 3.684 1.158 6.694 3.155 3.629 5.083 2.572 8.761-4.802 4.847-9.715 5.8-15.618 5.8-35.919V41.367l12.32.066 12.32.067-1.462 8.5c-1.823 10.596-2.279 53.119-.576 53.695.769.26 1.275-6.07 1.673-20.911.314-11.706 1.317-26.175 2.23-32.152.912-5.977 1.285-11.233.827-11.679-.804-.783-27.347-1.796-29.346-1.12m196.841-.283c-.558 3.075-.202 31.444.396 31.447.397.002.847 6.415 1 14.253l.277 14.25 18.5.535c10.175.294 18.886.224 19.357-.157 2.245-1.813-4.744-3.114-19.475-3.626L702 93.701V69h10c8.222 0 10-.267 10-1.5 0-1.232-1.765-1.5-9.882-1.5h-9.881l-.676-8.75c-.371-4.812-.924-10.212-1.229-12l-.555-3.25h16.612C730.488 42 733 41.773 733 40.5c0-1.272-2.478-1.5-16.3-1.5-11.344 0-16.665-.365-17.5-1.2-.66-.66-1.278-.772-1.373-.25M1042 56.817c0 15.418-.457 22.657-2 31.683-2.374 13.889-2.302 12.5-.653 12.5 4.051 0 7.872-62.417 3.903-63.748-.972-.326-1.25 4.021-1.25 19.565m465.827-19.267c-.558 3.075-.202 31.444.396 31.447.397.002.847 6.415 1 14.253l.277 14.25 18.5.535c10.175.294 18.886.224 19.357-.157 2.245-1.813-4.744-3.114-19.475-3.626L1512 93.701V69h10c8.222 0 10-.267 10-1.5 0-1.232-1.765-1.5-9.882-1.5h-9.881l-.676-8.75c-.371-4.812-.924-10.212-1.229-12l-.555-3.25h16.612c14.099 0 16.611-.227 16.611-1.5 0-1.272-2.478-1.5-16.3-1.5-11.344 0-16.665-.365-17.5-1.2-.66-.66-1.278-.772-1.373-.25m402 0c-.558 3.075-.202 31.444.396 31.447.397.002.847 6.415 1 14.253l.277 14.25 18.5.535c10.175.294 18.886.224 19.357-.157 2.245-1.813-4.744-3.114-19.475-3.626L1914 93.701V69h10c8.222 0 10-.267 10-1.5 0-1.232-1.765-1.5-9.882-1.5h-9.881l-.676-8.75c-.371-4.812-.924-10.212-1.229-12l-.555-3.25h16.612c14.099 0 16.611-.227 16.611-1.5 0-1.272-2.478-1.5-16.3-1.5-11.344 0-16.665-.365-17.5-1.2-.66-.66-1.278-.772-1.373-.25M306.404 38.974c-11.359 4.593-19.81 38.723-13.175 53.214 3.611 7.889 8.576 12.51 14.373 13.38 6.112.916 17.226-.051 21.606-1.882 4.194-1.752 10.048-10.594 10.194-15.397.129-4.234-1.685-4.301-2.71-.1-2.491 10.213-8.485 14.217-21.362 14.272-10.677.045-12.917-1.077-17.789-8.913-6.322-10.168-3.13-37.312 5.638-47.949l3.16-3.833 11.58.42c15.784.572 21.228 4.817 22.759 17.747.644 5.436 2.577 6.487 3.142 1.707.499-4.231-2.732-12.537-6.501-16.709-5.004-5.539-23.251-9.055-30.915-5.957m301.658.634c-8.772 1.918-14.518 6.228-12.549 9.413.987 1.597 2.067 1.133 3.473-1.495 2.421-4.523 18.89-7.894 23.954-4.903 7.663 4.527 1.726 23.141-8.463 26.535-6.02 2.005-6.308 3.157-.977 3.897 9.261 1.284 14.854 10.624 11.556 19.297-1.928 5.073-18.434 5.939-27.858 1.463-4.579-2.175-6.306-1.803-4.561.983 2.458 3.925 17.626 6.197 27.389 4.103 10.738-2.303 12.25-15.811 2.856-25.518-2.422-2.503-2.716-3.233-1.49-3.703 3.155-1.211 6.911-10.766 7.393-18.811l.458-7.632-3.854-2.618c-4.367-2.968-7.531-3.152-17.327-1.011m39.372 3.607c2.084 15.707 10.175 36.94 18.343 48.133l3.538 4.849-1.799 3.151c-4.753 8.326-13.459 13.338-21.164 12.182-4.621-.693-5.884.58-2.418 2.435 4.676 2.502 15.242-.561 21.159-6.136 8.293-7.812 16.874-32.085 16.909-47.829.012-5.225.671-11.939 1.464-14.92 1.538-5.777 1.196-7.875-.986-6.063-1.931 1.602-3.249 8.815-4.017 21.983-.622 10.675-3.706 24.693-6.68 30.368C668.698 97.253 651 56.672 651 43.714c0-3.658-.984-5.714-2.736-5.714-1.256 0-1.401.91-.83 5.215m1020.97-4.241c-11.359 4.593-19.81 38.723-13.175 53.214 3.611 7.889 8.576 12.51 14.373 13.38 6.112.916 17.226-.051 21.606-1.882 4.194-1.752 10.048-10.594 10.194-15.397.129-4.234-1.685-4.301-2.71-.1-2.491 10.213-8.485 14.217-21.362 14.272-10.677.045-12.917-1.077-17.789-8.913-6.322-10.168-3.13-37.312 5.638-47.949l3.16-3.833 11.58.42c15.784.572 21.228 4.817 22.759 17.747.644 5.436 2.577 6.487 3.142 1.707.499-4.231-2.732-12.537-6.501-16.709-5.004-5.539-23.251-9.055-30.915-5.957m220.096.235c-6.381 1.068-30.979 1.321-35.25.362-2.526-.567-3.25-.402-3.25.743 0 2.056 1.679 2.514 12.082 3.3l9.111.688-.674 5.599c-.37 3.079-2.452 13.462-4.626 23.072-2.174 9.61-4.052 19.462-4.173 21.892-.307 6.169 1.85 6.505 2.748.428.39-2.636 2.479-12.586 4.643-22.11 2.164-9.525 4.213-19.988 4.554-23.25.341-3.263.905-5.933 1.254-5.933 6.374 0 21.081-2.763 21.081-3.96 0-1.436-2.342-1.695-7.5-.831m-969.92.661c-3.106 5.027-4.436 21.041-2.497 30.081 1.242 5.792 2.024 6.252 3.589 2.108 1.691-4.482 12.186-8.154 13.743-4.809.32.688.43-2.125.246-6.25-.535-11.917-5.932-22-11.776-22-1.522 0-3.009.392-3.305.87M381 41.016c-23.711 1.111-22.5-.678-22.5 33.229 0 32.044 1.689 35.673 2.678 5.755.844-25.509 1.266-32.777 1.943-33.455 1.276-1.276 11.357-2.414 23.379-2.64l13-.244.575 23.419c.679 27.661 2.705 40.576 5.86 37.37.58-.59.373-3.224-.549-6.95-.99-4.006-1.676-13.975-2.063-30-.626-25.903-.942-27.59-5.108-27.331-1.493.093-9.24.474-17.215.847m846.23 14.981L1221.133 71l8.684-.015c12.358-.022 11.997.707 7.714-15.573-2.006-7.623-3.772-13.986-3.925-14.139-.153-.154-3.022 6.472-6.376 14.724m157 0L1378.133 71l8.684-.015c12.358-.022 11.997.707 7.714-15.573-2.006-7.623-3.772-13.986-3.925-14.139-.153-.154-3.022 6.472-6.376 14.724m356 0L1734.133 71l8.684-.015c12.358-.022 11.997.707 7.714-15.573-2.006-7.623-3.772-13.986-3.925-14.139-.153-.154-3.022 6.472-6.376 14.724M139.75 58.689c-1.587.415-1.75 2.177-1.75 18.896v18.439l4.25-.598c15.549-2.185 25.625-13.464 22.287-24.948-2.926-10.063-13.02-14.864-24.787-11.789m418.315 5.446c-2.989.496-5.547 1.014-5.684 1.15-.136.137.014 7.071.334 15.409l.583 15.159 4.798.66c15.604 2.146 25.454-7.775 23.564-23.735-1.18-9.961-5.689-11.613-23.595-8.643M989.093 77.25l.094 10.25 2.888-9c2.669-8.315 2.761-9.095 1.216-10.25-3.778-2.823-4.295-1.715-4.198 9m-236.478 64c-6.565 19.876-21.029 55.972-28.108 70.146-1.345 2.692-2.189 5.309-1.877 5.815.931 1.506 3.887-1.883 6.073-6.962 1.124-2.612 3.507-8.124 5.296-12.249 16.544-38.159 29.01-74 25.737-74-.955 0-3.295 5.67-7.121 17.25m24 0c-6.565 19.876-21.029 55.972-28.108 70.146-1.345 2.692-2.189 5.309-1.877 5.815.931 1.506 3.887-1.883 6.073-6.962 1.124-2.612 3.507-8.124 5.296-12.249 16.544-38.159 29.01-74 25.737-74-.955 0-3.295 5.67-7.121 17.25m-322.864-.758c.317 3.947-.173 10.806-1.25 17.5L450.73 169l-3.115.015c-6.561.033-7.425 3.497-1.038 4.164l3.077.321-3.813 16c-4.785 20.073-5.656 25.938-3.757 25.305.758-.252 1.758-2.224 2.223-4.382.465-2.158 2.655-11.46 4.866-20.673l4.02-16.75h32.024l-.675 2.689c-4.521 18.012-5.899 31.001-2.979 28.081.328-.327 1.643-5.922 2.923-12.433 3.694-18.796 2.973-17.337 8.563-17.337 7.97 0 7.736-2.13-.383-3.483-3.07-.512-3.703-.975-3.178-2.328.904-2.329 2.46-28.161 1.8-29.88-1.577-4.11-2.833.278-3.399 11.875-.336 6.888-.929 14.217-1.318 16.288l-.706 3.764-15.682-.724c-8.626-.398-15.82-.85-15.987-1.005-.166-.154.395-4.269 1.247-9.144 2.451-14.012 2.033-25.363-.935-25.363-.959 0-1.148 1.618-.757 6.492m416 0c.317 3.947-.173 10.806-1.25 17.5L866.73 169l-3.115.015c-6.561.033-7.425 3.497-1.038 4.164l3.077.321-3.813 16c-4.785 20.073-5.656 25.938-3.757 25.305.758-.252 1.758-2.224 2.223-4.382.465-2.158 2.655-11.46 4.866-20.673l4.02-16.75h32.024l-.675 2.689c-4.521 18.012-5.899 31.001-2.979 28.081.328-.327 1.643-5.922 2.923-12.433 3.694-18.796 2.973-17.337 8.563-17.337 7.97 0 7.736-2.13-.383-3.483-3.07-.512-3.703-.975-3.178-2.328.904-2.329 2.46-28.161 1.8-29.88-1.577-4.11-2.833.278-3.399 11.875-.336 6.888-.929 14.217-1.318 16.288l-.706 3.764-15.682-.724c-8.626-.398-15.82-.85-15.987-1.005-.166-.154.395-4.269 1.247-9.144 2.451-14.012 2.033-25.363-.935-25.363-.959 0-1.148 1.618-.757 6.492m245.916-4.825c-.367.366-.674 4.304-.683 8.75-.031 15.458-4.6 59.583-6.169 59.583-.448 0-.815-.221-.815-.491 0-1.362-10.22-51.498-11.111-54.509-1.979-6.685-3.139-9-4.51-9-.759 0-1.379.877-1.379 1.948 0 1.072-1.104 5.459-2.453 9.75-5.359 17.043-6.945 26.86-6.997 43.302-.066 20.419 1.736 21.311 2.547 1.261.672-16.584 3.519-32.413 8.481-47.154.895-2.659 1.523-.236 6.352 24.514 8.57 43.927 11.082 48.325 14.467 25.326 2.742-18.631 4.603-39.618 4.603-51.919 0-11.003-.459-13.236-2.333-11.361m66.333 5.199c0 8.475-8.792 41.759-12.001 45.434-1.092 1.25-7.244-11.274-14.319-29.152-6.606-16.692-7.923-19.182-9.12-17.245-1.289 2.085 15.333 41.844 20.626 49.336l1.935 2.739-3.754 7.142c-2.064 3.929-5.946 9.394-8.626 12.146-3.448 3.54-4.561 5.314-3.807 6.068C1155.6 220 1173 195.841 1173 189.473c0-.948 1.771-6.535 3.935-12.417 4.051-11.009 8.449-30.923 7.884-35.701-.458-3.88-2.819-4.289-2.819-.489m54 0c0 8.475-8.792 41.759-12.001 45.434-1.092 1.25-7.244-11.274-14.319-29.152-6.606-16.692-7.923-19.182-9.12-17.245-1.289 2.085 15.333 41.844 20.626 49.336l1.935 2.739-3.754 7.142c-2.064 3.929-5.946 9.394-8.626 12.146-3.448 3.54-4.561 5.314-3.807 6.068C1209.6 220 1227 195.841 1227 189.473c0-.948 1.771-6.535 3.935-12.417 4.051-11.009 8.449-30.923 7.884-35.701-.458-3.88-2.819-4.289-2.819-.489m103 0c0 8.475-8.792 41.759-12.001 45.434-1.092 1.25-7.244-11.274-14.319-29.152-6.606-16.692-7.923-19.182-9.12-17.245-1.289 2.085 15.333 41.844 20.626 49.336l1.935 2.739-3.754 7.142c-2.064 3.929-5.946 9.394-8.626 12.146-3.448 3.54-4.561 5.314-3.807 6.068C1312.6 220 1330 195.841 1330 189.473c0-.948 1.771-6.535 3.935-12.417 4.051-11.009 8.449-30.923 7.884-35.701-.458-3.88-2.819-4.289-2.819-.489m-818.362-.366c.483 1.257-.736 1.5-7.531 1.5-6.54 0-8.107.29-8.107 1.5 0 1.214 1.595 1.5 8.353 1.5h8.354l.646 7.651c.356 4.208.647 12.23.647 17.826 0 12.275 1.812 31.657 3.083 32.973 2.196 2.275 2.59-1.598 1.368-13.45-.71-6.875-1.439-19.838-1.621-28.807l-.33-16.307 11.25.693c9.607.592 11.25.475 11.25-.796 0-1.506-9.016-2.783-19.651-2.783-3.199 0-4.349-.397-4.349-1.5 0-.825-.885-1.5-1.969-1.5-1.339 0-1.784.48-1.393 1.5m58 0c.483 1.257-.736 1.5-7.531 1.5-6.54 0-8.107.29-8.107 1.5 0 1.214 1.595 1.5 8.353 1.5h8.354l.646 7.651c.356 4.208.647 12.23.647 17.826 0 12.275 1.812 31.657 3.083 32.973 2.196 2.275 2.59-1.598 1.368-13.45-.71-6.875-1.439-19.838-1.621-28.807l-.33-16.307 11.25.693c9.607.592 11.25.475 11.25-.796 0-1.506-9.016-2.783-19.651-2.783-3.199 0-4.349-.397-4.349-1.5 0-.825-.885-1.5-1.969-1.5-1.339 0-1.784.48-1.393 1.5m228.571-.537c-7.788 1.896-11.339 10.477-11.554 27.917-.191 15.43 1.497 21.042 8.636 28.712l5.25 5.639 9.881.135c7.109.096 10.003-.217 10.313-1.116.304-.881-.995-1.272-4.402-1.323C804.998 199.62 799 192.462 799 168.5c0-19.83 2.954-25.5 13.288-25.5 13.331 0 18.072 4.843 17.377 17.75-.429 7.973.294 10.146 2.161 6.5 3.132-6.118 1.68-17.591-2.794-22.064-4.192-4.192-15.219-6.831-21.823-5.223m225.429.537c.483 1.257-.736 1.5-7.531 1.5-6.54 0-8.107.29-8.107 1.5 0 1.214 1.595 1.5 8.353 1.5h8.354l.646 7.651c.356 4.208.647 12.23.647 17.826 0 12.275 1.812 31.657 3.083 32.973 2.196 2.275 2.59-1.598 1.368-13.45-.71-6.875-1.439-19.838-1.621-28.807l-.33-16.307 11.25.693c9.607.592 11.25.475 11.25-.796 0-1.506-9.016-2.783-19.651-2.783-3.199 0-4.349-.397-4.349-1.5 0-.825-.885-1.5-1.969-1.5-1.339 0-1.784.48-1.393 1.5m462.856-.49c-.343.555-1.063 5.393-1.599 10.75-.537 5.357-1.395 12.405-1.907 15.662-1.594 10.126 1.621 25.115 7.559 35.248 2.74 4.676 7.13 5.801 12.713 3.257 3.037-1.383 10.145-11.878 13.247-19.558 6.425-15.907 9.021-44.369 4.046-44.369-1.107 0-1.289 1.161-.848 5.428 2.917 28.262-17.318 68.618-26.735 53.322-5.828-9.465-8.171-24.315-6.035-38.25 2.504-16.338 2.307-25.937-.441-21.49m-865.948 1.615c-2.04 1.141-3.071 1.3-3.333.514-.431-1.294-3.213-1.572-3.213-.321 0 .451.659 3.038 1.464 5.75 3.147 10.606 8.876 53.585 8.388 62.932-.2 3.828.08 5 1.193 5 3.53 0 .373-37.255-5.607-66.168-.586-2.835-.321-3.341 2.526-4.814 5.99-3.097 12.214.951 17.523 11.398 3.8 7.478-.428 18.621-8.965 23.624-4.762 2.791-5.762 4.46-2.672 4.46 6.292 0 15.336-11.27 15.922-19.84.973-14.231-13.306-28.086-23.226-22.535m46.727 1.081c-1.241 1.894-1.773 4.669-1.773 9.25 0 9.011 3.658 16.019 14.166 27.138 8.004 8.47 13.334 16.819 13.334 20.887 0 4.615-16.499 9.687-23.396 7.193-4.135-1.496-4.604-1.475-4.604.205 0 2.394 5.602 3.95 11.791 3.275 22.852-2.491 24.992-12.38 6.832-31.577-12.191-12.888-16.659-22.071-14.876-30.577l.838-4 9.031-.285c8.817-.279 9.058-.225 10.186 2.25 1.436 3.152 3.198 3.294 3.198.258 0-5.556-2.264-6.723-13.034-6.723-9.679 0-9.963.066-11.693 2.706m300 0c-1.241 1.894-1.773 4.669-1.773 9.25 0 9.011 3.658 16.019 14.166 27.138 8.004 8.47 13.334 16.819 13.334 20.887 0 4.615-16.499 9.687-23.396 7.193-4.135-1.496-4.604-1.475-4.604.205 0 2.394 5.602 3.95 11.791 3.275 22.852-2.491 24.992-12.38 6.832-31.577-12.191-12.888-16.659-22.071-14.876-30.577l.838-4 9.031-.285c8.817-.279 9.058-.225 10.186 2.25 1.436 3.152 3.198 3.294 3.198.258 0-5.556-2.264-6.723-13.034-6.723-9.679 0-9.963.066-11.693 2.706m461.816-1.697c-1.877.442-4.06.556-4.851.252-1.484-.569-3.196 1.284-3.223 3.489-.008.688.628 1.25 1.413 1.25 2.963 0 5.526 10.506 7.638 31.309 2.394 23.578 2.969 26.887 4.776 27.479 1.344.441 1.233-3.898-.458-17.788l-.548-4.5 4.181 4c2.3 2.2 7.788 8.387 12.195 13.75 4.407 5.363 8.386 9.75 8.842 9.75 2.603 0 1.068-2.807-6.311-11.547l-11.066-13.107-2.823-3.346h3.613c16.056 0 20.912-18.807 8.743-33.86-6.238-7.717-11.898-9.541-22.121-7.131m-517.766 2.278c-.346.559.115 1.56 1.024 2.225 2.128 1.556 2.225 12.307.226 24.988-2.354 14.928-3.151 38.5-1.301 38.5.833 0 1.773-.675 2.09-1.5.475-1.238 3.112-1.5 15.107-1.5 12.25 0 14.531-.235 14.531-1.5 0-1.265-2.281-1.5-14.531-1.5h-14.531l.281-12.25.281-12.25 13.5-.5c11.111-.412 13.5-.765 13.5-2 0-1.276-1.996-1.447-13.385-1.144l-13.385.356.661-2.635c1.051-4.186 2.654-22.86 2.11-24.574-.667-2.102 14.64-1.016 19.245 1.365 3.911 2.023 5.254 2.06 5.254.145 0-2.141-6.342-4.485-15-5.544-13.423-1.642-15.04-1.713-15.677-.682m330 0c-.346.559.115 1.56 1.024 2.225 2.128 1.556 2.225 12.307.226 24.988-2.354 14.928-3.151 38.5-1.301 38.5.833 0 1.773-.675 2.09-1.5.475-1.238 3.112-1.5 15.107-1.5 12.25 0 14.531-.235 14.531-1.5 0-1.265-2.281-1.5-14.531-1.5h-14.531l.281-12.25.281-12.25 13.5-.5c11.111-.412 13.5-.765 13.5-2 0-1.276-1.996-1.447-13.385-1.144l-13.385.356.661-2.635c1.051-4.186 2.654-22.86 2.11-24.574-.667-2.102 14.64-1.016 19.245 1.365 3.911 2.023 5.254 2.06 5.254.145 0-2.141-6.342-4.485-15-5.544-13.423-1.642-15.04-1.713-15.677-.682m189.876.699c-4.446 1.053-4.411.951-2.248 6.644 1.048 2.756 2.395 8.804 2.995 13.441.6 4.636 1.347 10.116 1.66 12.177l.569 3.749 5.663-.637c13.56-1.527 18.654-10.07 13.186-22.116-5.328-11.738-11.755-15.642-21.825-13.258m-79.392 4.391c-.701 1.299-.677 2.085.078 2.552 2.067 1.278 3.115 11.391 3.115 30.072v18.727l-3.75-.114c-5.888-.179-5.016 2.68 1.083 3.553 15.944 2.28 39.772-26.349 24.687-29.663-3.934-.864-4.366-1.777-2.193-4.636 2.792-3.674 5.075-10.822 5.388-16.868l.285-5.5h-13.84c-12.512 0-13.937.18-14.853 1.877m13.193 1.559c-7.777.516-8.475.734-8.208 2.564.94 6.437 2.065 35.906 1.555 40.75-.522 4.957-.374 5.75 1.073 5.75 4.756 0 14.229-8.773 17.612-16.31 2.405-5.357 1.336-6.59-6.403-7.389-6.686-.69-7.737-1.674-3.912-3.663 5.734-2.983 8.673-8.019 10.156-17.4.783-4.948.712-5.228-1.272-5.052-1.156.103-5.926.44-10.601.75m-653.427 14.983c-1.636 1.808-1.637 2.054-.012 4.533 2.141 3.268 3.846 2.82 4.24-1.114.413-4.124-1.898-5.993-4.228-3.419m686.464 35.444c-2.786 2.786.126 6.918 5.714 8.105 3.828.814 5.122-1.083 3.632-5.321-1.012-2.876-7.363-4.767-9.346-2.784m149.857-.696c-.058.458-.029 2.03.066 3.494.189 2.931-2.92 9.731-5.387 11.778-2.146 1.781-1.976 3.061.407 3.061 3.04 0 8.126-9.421 7.786-14.422-.225-3.312-2.546-6.473-2.872-3.911m-837.784 2.701c-1.459 1.758 1.222 4.907 3.761 4.418 2.28-.439 2.029-2.776-.477-4.44-1.807-1.2-2.273-1.197-3.284.022M1411.5 204c-.34.55.11 1 1 1s1.34-.45 1-1c-.34-.55-.79-1-1-1-.21 0-.66.45-1 1m-1173 37.379c-10.824 2.34-14.5 3.648-14.5 5.16 0 1.838 1.664 1.844 6.824.023 18.59-6.559 30.561-2.809 41.131 12.885 8.884 13.191 9.326 15.066 7.069 30.053-1.977 13.125-3.238 14.752-13.524 17.442-22.235 5.817-33.95-5.022-33.984-31.442-.018-13.438 1.589-18.3 7.492-22.664 5.311-3.927 3.338-6.643-2.042-2.812-8.405 5.985-11.707 29.939-6.146 44.586 5.908 15.565 20.812 20.724 40.153 13.9 7.936-2.8 8.811-4.407 11.559-21.201 1.988-12.155 1.079-15.99-6.444-27.178-11.608-17.264-21.544-22.221-37.588-18.752m296 .756c-12.97 6.795-17.423 18.428-18.22 47.597l-.499 18.231-4.64-.231-4.641-.232-.288 9.25c-.241 7.781-.043 9.25 1.25 9.25 1.257 0 1.538-1.475 1.538-8.059 0-5.081.367-7.832.993-7.445 1.552.959 40.069.649 44.185-.355l3.679-.898.7 9.878c.522 7.362 1.05 9.879 2.072 9.879 1.534 0 1.853-11.229.526-18.5l-.731-4-4.857.315-4.857.316.664-6.316c.365-3.473 1.097-10.365 1.627-15.315 2.039-19.045.964-33.522-3.125-42.083-1.854-3.884-9.234-4.499-15.376-1.282m451-.756c-10.824 2.34-14.5 3.648-14.5 5.16 0 1.838 1.664 1.844 6.824.023 18.59-6.559 30.561-2.809 41.131 12.885 8.884 13.191 9.326 15.066 7.069 30.053-1.977 13.125-3.238 14.752-13.524 17.442-22.235 5.817-33.95-5.022-33.984-31.442-.018-13.438 1.589-18.3 7.492-22.664 5.311-3.927 3.338-6.643-2.042-2.812-8.405 5.985-11.707 29.939-6.146 44.586 5.908 15.565 20.812 20.724 40.153 13.9 7.936-2.8 8.811-4.407 11.559-21.201 1.988-12.155 1.079-15.99-6.444-27.178-11.608-17.264-21.544-22.221-37.588-18.752m158 .756c-12.97 6.795-17.423 18.428-18.22 47.597l-.499 18.231-4.64-.231-4.641-.232-.288 9.25c-.241 7.781-.043 9.25 1.25 9.25 1.257 0 1.538-1.475 1.538-8.059 0-5.081.367-7.832.993-7.445 1.552.959 40.069.649 44.185-.355l3.679-.898.7 9.878c.522 7.362 1.05 9.879 2.072 9.879 1.534 0 1.853-11.229.526-18.5l-.731-4-4.857.315-4.857.316.664-6.316c.365-3.473 1.097-10.365 1.627-15.315 2.039-19.045.964-33.522-3.125-42.083-1.854-3.884-9.234-4.499-15.376-1.282m54-.756c-10.824 2.34-14.5 3.648-14.5 5.16 0 1.838 1.664 1.844 6.824.023 18.59-6.559 30.561-2.809 41.131 12.885 8.884 13.191 9.326 15.066 7.069 30.053-1.977 13.125-3.238 14.752-13.524 17.442-22.235 5.817-33.95-5.022-33.984-31.442-.018-13.438 1.589-18.3 7.492-22.664 5.311-3.927 3.338-6.643-2.042-2.812-8.405 5.985-11.707 29.939-6.146 44.586 5.908 15.565 20.812 20.724 40.153 13.9 7.936-2.8 8.811-4.407 11.559-21.201 1.988-12.155 1.079-15.99-6.444-27.178-11.608-17.264-21.544-22.221-37.588-18.752m325 .756c-12.97 6.795-17.423 18.428-18.22 47.597l-.499 18.231-4.64-.231-4.641-.232-.288 9.25c-.241 7.781-.043 9.25 1.25 9.25 1.257 0 1.538-1.475 1.538-8.059 0-5.081.367-7.832.993-7.445 1.552.959 40.069.649 44.185-.355l3.679-.898.7 9.878c.522 7.362 1.05 9.879 2.072 9.879 1.534 0 1.853-11.229.526-18.5l-.731-4-4.857.315-4.857.316.664-6.316c.365-3.473 1.097-10.365 1.627-15.315 2.039-19.045.964-33.522-3.125-42.083-1.854-3.884-9.234-4.499-15.376-1.282m-161.833-.468c-.367.366-.674 2.954-.682 5.75-.009 2.796-.909 9.997-2 16.002-1.092 6.006-1.985 11.225-1.985 11.598 0 .373-4.388.479-9.75.235-7.383-.337-12.216.064-19.907 1.652-5.586 1.153-10.474 2.096-10.862 2.096-.387 0-.417-5.738-.067-12.75.682-13.629-.137-22.324-2.164-23-.96-.32-1.25 2.851-1.25 13.686 0 7.757-.709 23.432-1.575 34.833-.866 11.402-1.654 21.856-1.75 23.231-.114 1.633.345 2.5 1.325 2.5 1.825 0 2.812-5.957 3.803-22.939l.697-11.939 7.895-1.724c10.94-2.389 20.501-3.223 27.567-2.402l5.992.695-.622 13.668c-.671 14.758.149 25.481 1.903 24.896.709-.236 1.183-7.254 1.385-20.485.221-14.461.881-23.484 2.344-32.059 2.827-16.568 2.701-26.542-.297-23.544M535 245.571c-11.097 6.28-14.879 17.032-15.713 44.679l-.535 17.75h28.952l.65-7.75c.357-4.262 1.087-12.025 1.621-17.25 1.824-17.844.95-30.253-2.622-37.25-1.835-3.593-6.208-3.657-12.353-.179m609 0c-11.097 6.28-14.879 17.032-15.713 44.679l-.535 17.75h28.952l.65-7.75c.357-4.262 1.087-12.025 1.621-17.25 1.824-17.844.95-30.253-2.622-37.25-1.835-3.593-6.208-3.657-12.353-.179m379 0c-11.097 6.28-14.879 17.032-15.713 44.679l-.535 17.75h28.952l.65-7.75c.357-4.262 1.087-12.025 1.621-17.25 1.824-17.844.95-30.253-2.622-37.25-1.835-3.593-6.208-3.657-12.353-.179M116.174 256.25c-1.632 14.114-1.603 14.411 2.196 22.339 3.402 7.098 9.829 13.921 14.131 15.001 1.13.283 5.08-.107 8.777-.867l6.722-1.382v10.138c0 9.164 1.665 16.098 3.103 12.922 1.205-2.66-.675-64.185-2.011-65.792-2.264-2.725-2.886-.596-2.012 6.891.449 3.85.84 12.716.869 19.703l.051 12.703-3.75 1.041c-11.231 3.12-17.118.147-22.908-11.57l-3.645-7.375 1.153-8.251c1.54-11.027 1.49-15.751-.17-15.751-.93 0-1.67 3.026-2.506 10.25m1510.166-8.873c-11.366 3.714-15.827 12.037-12.18 22.724 2.569 7.526 6.899 10.974 15.576 12.399l6.235 1.025-4.735 3.487c-3.534 2.603-5.607 5.265-8.168 10.488-3.884 7.925-5.427 17.5-2.819 17.5 1.055 0 1.631-1.403 1.953-4.75 1.148-11.945 8.51-21.005 23.048-28.367l5.75-2.912v16.433c0 16.807.339 19.596 2.38 19.596 1.525 0 1.131-40.434-.527-54.224-1.55-12.888-2.65-14.014-14.109-14.447-5.08-.192-9.841.21-12.404 1.048m73.539.077c-.25.25-2.147.569-4.217.708-3.932.265-6.89 2.436-4.993 3.664 3.02 1.955 5.196 16.84 6.292 43.03.495 11.831 1.295 20.8 1.911 21.416 4.353 4.353 32.128-8.08 32.128-14.381 0-5.233-5.549-11.108-13.632-14.431-3.228-1.327-5.148-2.423-4.268-2.436 3.57-.053 9.778-5.857 10.96-10.247 1.718-6.376-.121-16.169-3.764-20.05-4.82-5.136-17.896-9.794-20.417-7.273m-1347.444 2.947c-.861 3.432.066 63.433.994 64.361.404.404 1.268.005 1.92-.886.652-.892 3.203-1.933 5.668-2.314 16.189-2.499 28.009-15.347 25.061-27.24-3.344-13.492-14.545-19.711-28.292-15.709-1.528.445-1.746-.615-2-9.726-.284-10.166-1.901-14.261-3.351-8.486m348.069-1.151c-2.212 6.388-4.004 11.023-8.485 21.949l-5.207 12.699-4.656.301c-5.961.385-6.651 3.136-.906 3.611 4.552.377 4.631-.98-.723 12.341-4.19 10.423-4.669 12.849-2.54 12.849.477 0 3.038-5.614 5.691-12.476l4.822-12.475 6-.112c3.3-.062 8.25-.41 11-.775l5-.662 2.638 9.166c3.37 11.709 7.431 20.658 9.097 20.047 1.541-.564 1.562-.475-2.195-9.563-5.432-13.144-6.602-19.217-4.071-21.127 2.246-1.694 1.812-3.023-.986-3.023-1.319 0-2.395-2.757-4.957-12.706-4.603-17.865-7.884-24.773-9.522-20.044m102.989-.092c-.315.822.345 8.374 1.467 16.784 1.323 9.919 2.04 20.85 2.04 31.115 0 15.717.559 18.384 3.365 16.055.756-.627 3.325-.818 6.289-.467 17.832 2.112 30.254-12.06 25.745-29.372-2.56-9.829-3.886-10.606-16.899-9.914-6.05.322-12.138.856-13.529 1.187l-2.53.603-1.746-12.8c-1.686-12.357-2.972-16.396-4.202-13.191m966.011.092c-2.212 6.388-4.004 11.023-8.485 21.949l-5.207 12.699-4.656.301c-5.961.385-6.651 3.136-.906 3.611 4.552.377 4.631-.98-.723 12.341-4.19 10.423-4.669 12.849-2.54 12.849.477 0 3.038-5.614 5.691-12.476l4.822-12.475 6-.112c3.3-.062 8.25-.41 11-.775l5-.662 2.638 9.166c3.37 11.709 7.431 20.658 9.097 20.047 1.541-.564 1.562-.475-2.195-9.563-5.432-13.144-6.602-19.217-4.071-21.127 2.246-1.694 1.812-3.023-.986-3.023-1.319 0-2.395-2.757-4.957-12.706-4.603-17.865-7.884-24.773-9.522-20.044m-1465.749.665c-2.61.372-5.163 1.105-5.674 1.63-.514.53-1.073 14.622-1.254 31.631l-.327 30.675 2.875.575c1.581.315 8.113.574 14.516.574 17.348 0 21.143-2.715 21.456-15.352.35-14.126-9.908-23.001-26.597-23.011l-7.75-.005v-11.249c0-13.468-1.526-12.37 18.429-13.257 8.573-.382 13.975-1.017 13.824-1.626-.287-1.166-22.35-1.603-29.498-.585m95.865-.11c-.273.443-.032 2.581.536 4.75.569 2.17 1.268 15.983 1.555 30.695.417 21.421.787 26.75 1.86 26.75 2.39 0 2.747-6.936 1.621-31.449-1.225-26.663-2.783-35.258-5.572-30.746m863.135.11c-2.61.372-5.163 1.105-5.674 1.63-.514.53-1.073 14.622-1.254 31.631l-.327 30.675 2.875.575c1.581.315 8.113.574 14.516.574 17.348 0 21.143-2.715 21.456-15.352.35-14.126-9.908-23.001-26.597-23.011l-7.75-.005v-11.249c0-13.468-1.526-12.37 18.429-13.257 8.573-.382 13.975-1.017 13.824-1.626-.287-1.166-22.35-1.603-29.498-.585m364.781.493c-6.011 1.685-11.548 7.134-11.512 11.327.129 14.982 11.744 21.838 25.829 15.246 3.505-1.639 6.996-2.981 7.759-2.981 2.244 0 .193-20.595-2.299-23.087-1.78-1.78-14.107-2.095-19.777-.505m-1052.709.142c-.558 3.075-.202 31.444.396 31.447.397.002.847 6.416 1 14.253l.277 14.25 18.5.535c10.175.294 18.886.224 19.357-.157 2.245-1.813-4.744-3.114-19.475-3.626L579 306.701V282h10c8.222 0 10-.267 10-1.5 0-1.232-1.765-1.5-9.882-1.5h-9.881l-.676-8.75c-.371-4.812-.924-10.212-1.229-12l-.555-3.25h16.612c14.099 0 16.611-.227 16.611-1.5 0-1.272-2.478-1.5-16.3-1.5-11.344 0-16.665-.365-17.5-1.2-.66-.66-1.278-.772-1.373-.25m59.159.283c-.603.204-.986 7.983-.986 20.04 0 21.717-.853 27.02-5.935 36.891l-2.954 5.736-1.275-3.25c-.701-1.788-1.851-3.25-2.555-3.25-2.096 0-1.458 3.684 1.158 6.694 3.155 3.629 5.083 2.572 8.761-4.802 4.847-9.715 5.8-15.618 5.8-35.919v-18.606l12.32.066 12.32.067-1.462 8.5c-1.823 10.596-2.279 53.119-.576 53.695.769.26 1.275-6.07 1.673-20.911.314-11.706 1.317-26.175 2.23-32.152.912-5.977 1.285-11.233.827-11.679-.804-.783-27.347-1.796-29.346-1.12m240.841-.283c-.558 3.075-.202 31.444.396 31.447.397.002.847 6.416 1 14.253l.277 14.25 18.5.535c10.175.294 18.886.224 19.357-.157 2.245-1.813-4.744-3.114-19.475-3.626L879 306.701V282h10c8.222 0 10-.267 10-1.5 0-1.232-1.765-1.5-9.882-1.5h-9.881l-.676-8.75c-.371-4.812-.924-10.212-1.229-12l-.555-3.25h16.612c14.099 0 16.611-.227 16.611-1.5 0-1.272-2.478-1.5-16.3-1.5-11.344 0-16.665-.365-17.5-1.2-.66-.66-1.278-.772-1.373-.25m51.167 13.07c-.003 7.634-.678 18.341-1.5 23.793-2.028 13.457-2.025 26.587.006 26.587 1.197 0 1.5-1.482 1.5-7.337 0-4.036.672-11.798 1.494-17.25s1.497-15.928 1.5-23.28l.006-13.366 2.25.615c10.836 2.961 31.25 2.864 31.25-.149 0-.915-3.593-1.353-13.5-1.646-7.425-.219-15.638-.724-18.25-1.123l-4.75-.724-.006 13.88m448.833-13.07c-.558 3.075-.202 31.444.396 31.447.397.002.847 6.416 1 14.253l.277 14.25 18.5.535c10.175.294 18.886.224 19.357-.157 2.245-1.813-4.744-3.114-19.475-3.626l-15.882-.551V282h10c8.222 0 10-.267 10-1.5 0-1.232-1.765-1.5-9.882-1.5h-9.881l-.676-8.75c-.371-4.812-.924-10.212-1.229-12l-.555-3.25h16.612c14.099 0 16.611-.227 16.611-1.5 0-1.272-2.478-1.5-16.3-1.5-11.344 0-16.665-.365-17.5-1.2-.66-.66-1.278-.772-1.373-.25m50 0c-.558 3.075-.202 31.444.396 31.447.397.002.847 6.416 1 14.253l.277 14.25 18.5.535c10.175.294 18.886.224 19.357-.157 2.245-1.813-4.744-3.114-19.475-3.626l-15.882-.551V282h10c8.222 0 10-.267 10-1.5 0-1.232-1.765-1.5-9.882-1.5h-9.881l-.676-8.75c-.371-4.812-.924-10.212-1.229-12l-.555-3.25h16.612c14.099 0 16.611-.227 16.611-1.5 0-1.272-2.478-1.5-16.3-1.5-11.344 0-16.665-.365-17.5-1.2-.66-.66-1.278-.772-1.373-.25m147.159.283c-.603.204-.986 7.983-.986 20.04 0 21.717-.853 27.02-5.935 36.891l-2.954 5.736-1.275-3.25c-.701-1.788-1.851-3.25-2.555-3.25-2.096 0-1.458 3.684 1.158 6.694 3.155 3.629 5.083 2.572 8.761-4.802 4.847-9.715 5.8-15.618 5.8-35.919v-18.606l12.32.066 12.32.067-1.462 8.5c-1.823 10.596-2.279 53.119-.576 53.695.769.26 1.275-6.07 1.673-20.911.314-11.706 1.317-26.175 2.23-32.152.912-5.977 1.285-11.233.827-11.679-.804-.783-27.347-1.796-29.346-1.12M204.5 252.209c-6.381 1.068-30.979 1.321-35.25.362-2.526-.567-3.25-.402-3.25.743 0 2.056 1.679 2.514 12.082 3.3l9.111.688-.674 5.599c-.37 3.079-2.452 13.462-4.626 23.072-2.174 9.61-4.052 19.462-4.173 21.892-.307 6.169 1.85 6.505 2.748.428.39-2.636 2.479-12.586 4.643-22.11 2.164-9.525 4.213-19.988 4.554-23.25.341-3.263.905-5.933 1.254-5.933 6.374 0 21.081-2.763 21.081-3.96 0-1.436-2.342-1.695-7.5-.831m253.904-.235c-11.359 4.593-19.81 38.723-13.175 53.214 3.611 7.889 8.576 12.51 14.373 13.38 6.112.916 17.226-.051 21.606-1.882 4.194-1.752 10.048-10.594 10.194-15.397.129-4.234-1.685-4.301-2.71-.1-2.491 10.213-8.485 14.217-21.362 14.272-10.677.045-12.917-1.077-17.789-8.913-6.322-10.168-3.13-37.312 5.638-47.949l3.16-3.833 11.58.42c15.784.572 21.228 4.817 22.759 17.747.644 5.436 2.577 6.487 3.142 1.707.499-4.231-2.732-12.537-6.501-16.709-5.004-5.539-23.251-9.055-30.915-5.957m321.096.235c-6.381 1.068-30.979 1.321-35.25.362-2.526-.567-3.25-.402-3.25.743 0 2.056 1.679 2.514 12.082 3.3l9.111.688-.674 5.599c-.37 3.079-2.452 13.462-4.626 23.072-2.174 9.61-4.052 19.462-4.173 21.892-.307 6.169 1.85 6.505 2.748.428.39-2.636 2.479-12.586 4.643-22.11 2.164-9.525 4.213-19.988 4.554-23.25.341-3.263.905-5.933 1.254-5.933 6.374 0 21.081-2.763 21.081-3.96 0-1.436-2.342-1.695-7.5-.831m287.934 4.006c2.084 15.707 10.175 36.94 18.343 48.133l3.538 4.849-1.799 3.151c-4.753 8.326-13.459 13.338-21.164 12.182-4.621-.693-5.884.58-2.418 2.435 4.676 2.502 15.242-.561 21.159-6.136 8.293-7.812 16.874-32.085 16.909-47.829.012-5.225.671-11.939 1.464-14.92 1.538-5.777 1.196-7.875-.986-6.063-1.931 1.602-3.249 8.815-4.017 21.983-.622 10.675-3.706 24.693-6.68 30.368-3.085 5.885-20.783-34.696-20.783-47.654 0-3.658-.984-5.714-2.736-5.714-1.256 0-1.401.91-.83 5.215m628.047-2.465c2.908 11.468 4.916 33.026 5.492 58.975.055 2.473 14.541-1.383 21.277-5.663 10.147-6.447 4.183-14.597-14-19.131-7.52-1.875-6.838-3.094 3.25-5.805 7.302-1.963 9.501-5.068 9.496-13.416-.006-12.545-5.566-17.71-19.065-17.71h-7.148l.698 2.75m124.923-1.776c-11.359 4.593-19.81 38.723-13.175 53.214 3.611 7.889 8.576 12.51 14.373 13.38 6.112.916 17.226-.051 21.606-1.882 4.194-1.752 10.048-10.594 10.194-15.397.129-4.234-1.685-4.301-2.71-.1-2.491 10.213-8.485 14.217-21.362 14.272-10.677.045-12.917-1.077-17.789-8.913-6.322-10.168-3.13-37.312 5.638-47.949l3.16-3.833 11.58.42c15.784.572 21.228 4.817 22.759 17.747.644 5.436 2.577 6.487 3.142 1.707.499-4.231-2.732-12.537-6.501-16.709-5.004-5.539-23.251-9.055-30.915-5.957M696.23 268.997 690.133 284l8.684-.015c12.358-.022 11.997.707 7.714-15.573-2.006-7.623-3.772-13.986-3.925-14.139-.153-.154-3.022 6.472-6.376 14.724m1069 0L1759.133 284l8.684-.015c12.358-.022 11.997.707 7.714-15.573-2.006-7.623-3.772-13.986-3.925-14.139-.153-.154-3.022 6.472-6.376 14.724m-1407.48 2.692c-1.587.415-1.75 2.177-1.75 18.896v18.439l4.25-.598c15.549-2.185 25.625-13.464 22.287-24.948-2.926-10.063-13.02-14.864-24.787-11.789m458.315 5.446c-2.989.496-5.547 1.014-5.684 1.15-.136.137.014 7.071.334 15.409l.583 15.159 4.798.66c15.604 2.146 25.454-7.775 23.564-23.735-1.18-9.961-5.689-11.613-23.595-8.643m-514.337 3.515c-.283.467-.822 6.7-1.197 13.85-.376 7.15-.904 13.788-1.175 14.75-.451 1.609.679 1.75 14.004 1.75 17.515 0 18.64-.683 18.64-11.319 0-12.953-6.482-18.659-22.129-19.481-4.196-.22-7.86-.018-8.143.45m959 0c-.283.467-.822 6.7-1.197 13.85-.376 7.15-.904 13.788-1.175 14.75-.451 1.609.679 1.75 14.004 1.75 17.515 0 18.64-.683 18.64-11.319 0-12.953-6.482-18.659-22.129-19.481-4.196-.22-7.86-.018-8.143.45m610.309 25.713c-2.786 2.786.126 6.918 5.714 8.105 3.828.814 5.122-1.083 3.632-5.321-1.012-2.876-7.363-4.767-9.346-2.784M1875.5 310c-.34.55.11 1 1 1s1.34-.45 1-1c-.34-.55-.79-1-1-1-.21 0-.66.45-1 1" fill-rule="evenodd"/>

<path fill="#766d7b" stroke="#766d7b" d="M67 24.33c0 2.664-4.832 29.116-8.891 48.67-1.084 5.225-3.292 13.223-4.906 17.774-1.613 4.551-2.567 8.501-2.118 8.778 2.728 1.687 8.118-18.499 14.966-56.052 1.204-6.6 2.472-12.312 2.819-12.693.681-.749 13.501 32.066 17.18 43.976 1.245 4.033 2.741 7.129 3.35 6.936.605-.191 2.52-6.044 4.255-13.007C96.764 56.237 103.852 36 105.112 36c1.09 0 12.973 50.043 13.532 56.984.647 8.043 1.109 9.663 2.39 8.382 1.678-1.678-.734-15.648-7.142-41.366-5.388-21.623-8.316-30.96-9.36-29.843-1.376 1.472-9.362 24.749-11.943 34.813C89.245 78.004 88.95 78.322 87.01 71c-1.991-7.517-17.055-46.399-18.582-47.964C67.182 21.758 67 21.923 67 24.33m696 0c0 2.664-4.832 29.116-8.891 48.67-1.084 5.225-3.292 13.223-4.906 17.774-1.613 4.551-2.567 8.501-2.118 8.778 2.728 1.687 8.118-18.499 14.966-56.052 1.204-6.6 2.472-12.312 2.819-12.693.681-.749 13.501 32.066 17.18 43.976 1.245 4.033 2.741 7.129 3.35 6.936.605-.191 2.52-6.044 4.255-13.007C792.764 56.237 799.852 36 801.112 36c1.09 0 12.973 50.043 13.532 56.984.647 8.043 1.109 9.663 2.39 8.382 1.678-1.678-.734-15.648-7.142-41.366-5.388-21.623-8.316-30.96-9.36-29.843-1.376 1.472-9.362 24.749-11.943 34.813-3.344 13.034-3.639 13.352-5.579 6.03-1.991-7.517-17.055-46.399-18.582-47.964-1.246-1.278-1.428-1.113-1.428 1.294m810 0c0 2.664-4.832 29.116-8.891 48.67-1.084 5.225-3.292 13.223-4.906 17.774-1.613 4.551-2.567 8.501-2.118 8.778 2.728 1.687 8.118-18.499 14.966-56.052 1.204-6.6 2.472-12.312 2.819-12.693.681-.749 13.501 32.066 17.18 43.976 1.245 4.033 2.741 7.129 3.35 6.936.605-.191 2.52-6.044 4.255-13.007C1602.764 56.237 1609.852 36 1611.112 36c1.09 0 12.973 50.043 13.532 56.984.647 8.043 1.109 9.663 2.39 8.382 1.678-1.678-.734-15.648-7.142-41.366-5.388-21.623-8.316-30.96-9.36-29.843-1.376 1.472-9.362 24.749-11.943 34.813-3.344 13.034-3.639 13.352-5.579 6.03-1.991-7.517-17.055-46.399-18.582-47.964-1.246-1.278-1.428-1.113-1.428 1.294m224.022.92c.025 3.714 2.906 10.625 5.23 12.548 2.439 2.018 8.476 2.672 10.345 1.122 2.496-2.072 9.403-12.623 9.403-14.365 0-2.892-1.486-1.52-5 4.615-4.244 7.41-6.833 9.372-10.718 8.124-3.191-1.025-7.282-8.051-7.282-12.506 0-1.533-.45-2.788-1-2.788s-.99 1.462-.978 3.25M443.5 27.753c-10.614 1.124-23.008 4.617-22.025 6.207.379.614 1.573.592 3.287-.06 20.797-7.907 33.38-4.049 45.672 14.003 7.844 11.519 8.314 13.674 6.085 27.886-2.265 14.44-3.581 16.155-14.263 18.585-21.249 4.833-31.566-2.808-34.314-25.414-1.701-13.985.819-23.472 7.885-29.695 3.128-2.756 3.367-3.237 1.61-3.25-6.593-.048-11.956 11.912-11.876 26.485.159 28.865 13.692 40.572 38.839 33.599 9.697-2.689 11.473-4.795 13.716-16.267 3.376-17.272 2.488-21.495-7.5-35.667-7.927-11.249-18.044-17.372-27.116-16.412m746.678 10.497c-3.28 25.551-3.33 25.755-6.138 24.994-6.341-1.718-26.45.037-38.085 3.324-1.358.384-1.495-1.433-1.13-15.018.4-14.877-.04-20.551-1.594-20.549-.402 0-.785 7.087-.85 15.75-.11 14.414-1.662 41.86-3.026 53.499-.329 2.812-.157 4.75.423 4.75 1.211 0 3.222-13.044 3.222-20.901 0-3.201.276-7.833.613-10.293l.613-4.474 7.137-1.833c4.716-1.211 11.801-1.945 20.887-2.163l13.75-.33v19.497c0 10.723.388 19.497.863 19.497.474 0 1.127-10.012 1.449-22.25.418-15.84 1.169-25.419 2.606-33.25 2.123-11.567 2.638-19.5 1.265-19.5-.45 0-1.352 4.163-2.005 9.25m158 0c-3.28 25.551-3.33 25.755-6.138 24.994-6.341-1.718-26.45.037-38.085 3.324-1.358.384-1.495-1.433-1.13-15.018.4-14.877-.04-20.551-1.594-20.549-.402 0-.785 7.087-.85 15.75-.11 14.414-1.662 41.86-3.026 53.499-.329 2.812-.157 4.75.423 4.75 1.211 0 3.222-13.044 3.222-20.901 0-3.201.276-7.833.613-10.293l.613-4.474 7.137-1.833c4.716-1.211 11.801-1.945 20.887-2.163l13.75-.33v19.497c0 10.723.388 19.497.863 19.497.474 0 1.127-10.012 1.449-22.25.418-15.84 1.169-25.419 2.606-33.25 2.123-11.567 2.638-19.5 1.265-19.5-.45 0-1.352 4.163-2.005 9.25m109.236-2.5c.953 5.656 1.92 52.532 1.185 57.453l-.643 4.297-11.478-.311-11.478-.31-.018-20.19c-.018-19.307-1.769-38.699-3.827-42.377-1.7-3.037-1.891.268-.445 7.688.922 4.732 1.655 16.819 1.986 32.75l.525 25.25 12.639.128c6.952.07 13.765.273 15.14.452 1.375.178 7.821.458 14.325.622 14.824.374 14.213 1.046 14.948-16.449.306-7.289 1.295-17.769 2.198-23.289 1.722-10.527 1.737-22.131.029-21.728-.55.13-1.298 5.53-1.663 12-.364 6.47-1.149 14.464-1.744 17.764-.595 3.3-1.09 10.275-1.101 15.5-.03 14.935.827 14.003-12.859 13.985-6.398-.009-12.244-.403-12.99-.876-1.108-.702-1.23-4.515-.661-20.734.777-22.179-1.104-45.375-3.679-45.375-.626 0-.777 1.451-.389 3.75m370.803-1.5c-.565.688-1.751 3.725-2.635 6.75-1.068 3.659-3.973 8.68-8.677 15-9.992 13.423-18.182 25.637-21.243 31.679-1.443 2.849-3.013 5.42-3.489 5.714-.476.294-1.183-12.162-1.572-27.679-.629-25.074-1.286-31.362-3.088-29.56-.286.286-.073 9.031.474 19.433.547 10.402.999 24.876 1.004 32.163.005 7.706.407 13.25.96 13.25.523 0 2.612-3.038 4.642-6.75 6.685-12.229 12.728-21.608 20.639-32.037 8.735-11.514 11.48-16.159 12.377-20.945 2.039-10.868 4.555 6.994 5.138 36.482.264 13.337.879 24.25 1.366 24.25 1.52 0 1.033-42.439-.613-53.5-2.422-16.266-2.796-17.275-5.283-14.25M135 69c0 21.333.354 33 1 33 .55 0 1-.645 1-1.433 0-1.591 1.387-2.113 8-3.008 17.101-2.316 27.517-18.178 20.75-31.597-4.581-9.084-15.256-13.024-26.75-9.873-1.25.342-1.548-1.299-1.785-9.839-.159-5.722-.711-10.25-1.25-10.25-.601 0-.965 12.464-.965 33m97.55-26.75c.358 3.438 1.505 11.65 2.55 18.25s1.904 15.825 1.908 20.5c.011 10.166.969 19 2.06 19 1.192 0 11.072-15.702 20.136-32 4.435-7.975 9.69-17.425 11.676-21l3.612-6.5.655 5.5c.361 3.025.7 16 .754 28.833.068 16.053.432 23.223 1.166 22.978 1.284-.428 1.319-46.607.042-54.686-1.585-10.025-1.826-9.731-20.854 25.375-2.98 5.5-7.745 13.799-10.587 18.442l-5.168 8.442-1.188-14.942c-.653-8.218-1.888-19.442-2.744-24.942-.856-5.5-1.559-11.426-1.562-13.168-.007-3.797-.873-6.332-2.163-6.332-.559 0-.678 2.544-.293 6.25m312.852-3.618c2.035 9.515 3.847 28.194 4.2 43.29.397 16.945.752 19.741 2.21 17.383.501-.811 2.137-.869 5.695-.202 6.9 1.292 17.087-1.764 21.89-6.567 5.302-5.302 6.897-14.817 4.075-24.317-2.52-8.488-7.039-9.741-24.688-6.848l-7.716 1.264-.603-4.567c-2.233-16.931-3.133-21.457-4.348-21.862-.985-.329-1.17.298-.715 2.426m686.01-.882c-.547 1.821-1.518 4.281-9.077 23L1217.792 72h-4.896c-2.693 0-4.896.45-4.896 1s2.073 1 4.607 1c3.284 0 4.464.359 4.11 1.25-.274.688-2.347 5.872-4.607 11.52-3.98 9.946-4.991 13.893-3.289 12.841.451-.279 3.038-6.154 5.75-13.057l4.929-12.549 8.75-.19c4.813-.104 9.926-.218 11.364-.252 2.411-.058 2.752.479 4.405 6.937 3.426 13.384 7.756 23.059 9.527 21.287.326-.326-.276-2.324-1.338-4.44-2.207-4.393-5.704-14.831-7.069-21.097-.835-3.83-.739-4.25.967-4.25 1.042 0 1.894-.45 1.894-1s-.883-1-1.961-1c-1.429 0-2.224-1.019-2.927-3.75-6.415-24.936-8.188-30.25-10.092-30.25-.596 0-1.319.788-1.608 1.75m157 0c-.547 1.821-1.518 4.281-9.077 23L1374.792 72h-4.896c-2.693 0-4.896.45-4.896 1s2.073 1 4.607 1c3.284 0 4.464.359 4.11 1.25-.274.688-2.347 5.872-4.607 11.52-3.98 9.946-4.991 13.893-3.289 12.841.451-.279 3.038-6.154 5.75-13.057l4.929-12.549 8.75-.19c4.813-.104 9.926-.218 11.364-.252 2.411-.058 2.752.479 4.405 6.937 3.426 13.384 7.756 23.059 9.527 21.287.326-.326-.276-2.324-1.338-4.44-2.207-4.393-5.704-14.831-7.069-21.097-.835-3.83-.739-4.25.967-4.25 1.042 0 1.894-.45 1.894-1s-.883-1-1.961-1c-1.429 0-2.224-1.019-2.927-3.75-6.415-24.936-8.188-30.25-10.092-30.25-.596 0-1.319.788-1.608 1.75m356 0c-.547 1.821-1.518 4.281-9.077 23L1730.792 72h-4.896c-2.693 0-4.896.45-4.896 1s2.073 1 4.607 1c3.284 0 4.464.359 4.11 1.25-.274.688-2.347 5.872-4.607 11.52-3.98 9.946-4.991 13.893-3.289 12.841.451-.279 3.038-6.154 5.75-13.057l4.929-12.549 8.75-.19c4.813-.104 9.926-.218 11.364-.252 2.411-.058 2.752.479 4.405 6.937 3.426 13.384 7.756 23.059 9.527 21.287.326-.326-.276-2.324-1.338-4.44-2.207-4.393-5.704-14.831-7.069-21.097-.835-3.83-.739-4.25.967-4.25 1.042 0 1.894-.45 1.894-1s-.883-1-1.961-1c-1.429 0-2.224-1.019-2.927-3.75-6.415-24.936-8.188-30.25-10.092-30.25-.596 0-1.319.788-1.608 1.75M182.44 40.25c1.253 5.898 2.571 29.013 2.468 43.25-.056 7.7.279 14 .745 14 .466 0 .816-11.025.777-24.5-.069-24.17-1.26-36-3.626-36-.664 0-.799 1.202-.364 3.25m317.999-.814c-.196.585-.487 10.964-.647 23.064l-.292 22-3.756 7.867c-3.196 6.693-3.98 7.682-5.25 6.628-.822-.682-1.494-1.833-1.494-2.558 0-1.388-1.823-2.947-2.571-2.199-.908.907 1.857 6.845 3.628 7.793 2.767 1.48 5.314-1.865 9.078-11.923 3.169-8.468 3.228-8.942 3.639-29.108l.417-20.5 12.155.337c6.685.186 12.304.486 12.486.666.183.181-.379 4.808-1.25 10.282C524.754 63.285 524.303 103 526 103c.633 0 1-7.21 1-19.631 0-12.964.532-22.978 1.567-29.489.863-5.423 1.425-11.023 1.25-12.444l-.317-2.585-14.353-.24c-9.458-.157-14.474.124-14.708.825m108.839.463C601.102 41.589 596 44.577 596 47.674c0 1.775 1.645 1.693 2.339-.116 1.017-2.649 5.091-4.421 13.467-5.858 8.08-1.386 8.393-1.366 11.5.755 3.066 2.093 3.181 2.419 2.882 8.113-.577 10.967-5.065 17.828-12.688 19.397-4.369.899-3.671 2.446 1.411 3.124 9.358 1.248 15.459 15.646 9.078 21.421-4.069 3.682-24.584 2.772-29.245-1.298-.966-.843-2.091-1.197-2.5-.786-1.47 1.475 3.924 4.452 10.97 6.055 7.988 1.816 19.435.728 22.282-2.12 5.077-5.077 3.965-14.736-2.505-21.755-3.752-4.071-3.809-4.239-1.848-5.463 5.482-3.424 9.948-22.175 6.253-26.258-4.579-5.059-6.53-5.381-18.118-2.986M648 41.782c0 2.08.671 6.243 1.492 9.25.821 3.007 1.988 7.718 2.593 10.468 1.465 6.651 9.686 23.818 14.247 29.748l3.652 4.748-3.086 5.015c-4.522 7.349-16.34 13.428-21.126 10.867-2.66-1.424-3.73-.052-1.329 1.704 2.611 1.909 4.48 1.793 11.131-.695 14.153-5.296 23.719-24.578 25.54-51.477.487-7.2 1.516-15.187 2.288-17.75 1.15-3.823 1.165-4.66.08-4.66-1.955 0-4.48 12.47-4.494 22.197-.015 9.98-5.572 31.803-8.098 31.803-1.194 0-6.686-8.64-11.214-17.641C656.049 68.147 650 46.705 650 41.058c0-1.682-.45-3.058-1-3.058s-1 1.702-1 3.782m49.387.718c1.622 11.982 1.837 22.526.491 24.155-1.073 1.301-1.101 1.763-.128 2.091.917.309 1.25 4.001 1.25 13.869 0 9.882.331 13.552 1.25 13.84 3.454 1.084 36.855 1.25 35.785.178-.721-.722-7.076-1.254-17.529-1.468l-16.397-.335-.305-12.885-.304-12.884 9.755-.281c12.958-.372 12.781-2.194-.25-2.565L701 65.93l-.007-5.215c-.004-2.868-.294-8.253-.645-11.965l-.637-6.75h16.085c9.322 0 16.338-.408 16.686-.971.951-1.539-2.895-1.979-19.809-2.263l-15.828-.266.542 4m810 0c1.622 11.982 1.837 22.526.491 24.155-1.073 1.301-1.101 1.763-.128 2.091.917.309 1.25 4.001 1.25 13.869 0 9.882.331 13.552 1.25 13.84 3.454 1.084 36.855 1.25 35.785.178-.721-.722-7.076-1.254-17.529-1.468l-16.397-.335-.305-12.885-.304-12.884 9.755-.281c12.958-.372 12.781-2.194-.25-2.565L1511 65.93l-.007-5.215c-.004-2.868-.294-8.253-.645-11.965l-.637-6.75h16.085c9.322 0 16.338-.408 16.686-.971.951-1.539-2.895-1.979-19.809-2.263l-15.828-.266.542 4m402 0c1.622 11.982 1.837 22.526.491 24.155-1.073 1.301-1.101 1.763-.128 2.091.917.309 1.25 4.001 1.25 13.869 0 9.882.331 13.552 1.25 13.84 3.454 1.084 36.855 1.25 35.785.178-.721-.722-7.076-1.254-17.529-1.468l-16.397-.335-.305-12.885-.304-12.884 9.755-.281c12.958-.372 12.781-2.194-.25-2.565L1913 65.93l-.007-5.215c-.004-2.868-.294-8.253-.645-11.965l-.637-6.75h16.085c9.322 0 16.338-.408 16.686-.971.951-1.539-2.895-1.979-19.809-2.263l-15.828-.266.542 4M305.45 39.957c-11.122 4.505-18.323 40.319-10.863 54.025 5.327 9.788 6.77 10.518 20.776 10.518 14.153 0 15.867-.689 20.639-8.287C338.882 91.628 340.063 85 338 85c-.55 0-1 1.244-1 2.763 0 4.594-6.337 12.959-10.744 14.183-5.562 1.544-18.844 1.319-22.121-.376-10.82-5.595-13.82-27.449-6.404-46.652C302.024 43.8 305.619 41 315.604 41c16.108 0 25.303 7.006 25.374 19.333.015 2.628.415 3.696 1.272 3.395 3.497-1.227-1.91-16.964-7.062-20.552-5.277-3.675-23.691-5.668-29.738-3.219m1362 0c-11.122 4.505-18.323 40.319-10.863 54.025 5.327 9.788 6.77 10.518 20.776 10.518 14.153 0 15.867-.689 20.639-8.287C1700.882 91.628 1702.063 85 1700 85c-.55 0-1 1.244-1 2.763 0 4.594-6.337 12.959-10.744 14.183-5.562 1.544-18.844 1.319-22.121-.376-10.82-5.595-13.82-27.449-6.404-46.652C1664.024 43.8 1667.619 41 1677.604 41c16.108 0 25.303 7.006 25.374 19.333.015 2.628.415 3.696 1.272 3.395 3.497-1.227-1.91-16.964-7.062-20.552-5.277-3.675-23.691-5.668-29.738-3.219m216.55.225c-3.575.511-12.687.703-20.25.428-7.562-.275-13.75-.111-13.75.365 0 .816 6.901 1.744 16.985 2.285l4.486.24-.304 4.5c-.168 2.475-2.252 13.5-4.633 24.5-5.861 27.079-5.773 26.5-4.009 26.5.941 0 1.478-.996 1.482-2.75.005-1.513 1.615-9.725 3.579-18.25 1.963-8.525 4.266-19.834 5.115-25.132l1.545-9.631 8.127-.686c9.603-.811 12.627-1.448 12.627-2.659 0-1.039-2.082-.984-11 .29M384.5 41c-19.593.861-23.13 1.844-24.386 6.78-1.705 6.698-2.563 52.536-.974 52.008 1.082-.359 1.462-5.693 1.86-26.086.409-20.985.772-25.903 2-27.115 2.126-2.099 12.65-3.571 25.597-3.579L399.695 43l.581 23.25c.564 22.587 2.599 38.75 4.878 38.75 1.152 0 1.063-2.806-.224-7.007-.588-1.921-1.452-14.968-1.919-28.993-.799-23.984-1.322-29.24-2.868-28.829-.354.093-7.393.467-15.643.829m847.731 1.569c-.601 1.612-3.373 8.47-6.161 15.24-6.242 15.154-6.322 14.193 1.18 14.18 10.16-.018 13.751-.898 13.744-3.37-.007-2.168-5.092-22.166-6.752-26.55l-.92-2.431-1.091 2.931m157 0c-.601 1.612-3.373 8.47-6.161 15.24-6.242 15.154-6.322 14.193 1.18 14.18 10.16-.018 13.751-.898 13.744-3.37-.007-2.168-5.092-22.166-6.752-26.55l-.92-2.431-1.091 2.931m356 0c-.601 1.612-3.373 8.47-6.161 15.24-6.242 15.154-6.322 14.193 1.18 14.18 10.16-.018 13.751-.898 13.744-3.37-.007-2.168-5.092-22.166-6.752-26.55l-.92-2.431-1.091 2.931M143.5 57.491c-.55.184-2.238.607-3.75.941l-2.75.606V96h3.257C152.413 96 166 85.241 166 75.616c0-11.485-12.418-21.488-22.5-18.125m412 6.624-4 .901.326 15.234c.179 8.379.481 15.39.671 15.58.19.19 3.018.588 6.286.884 18.447 1.673 29.293-13.695 21.5-30.464L578.772 63l-9.636.107c-5.3.059-11.436.513-13.636 1.008M758.699 125c-.359.825-2.682 7.681-5.163 15.236-5.226 15.918-16.091 43.979-20.064 51.818-1.505 2.971-3.581 7.856-4.613 10.856-1.032 3-2.773 6.974-3.868 8.83-2.199 3.728-2.494 5.26-1.011 5.26 1.183 0 4.611-6.543 7.046-13.452.979-2.776 3.56-8.873 5.737-13.548 8.426-18.099 23.615-60.79 22.948-64.5-.283-1.574-.498-1.68-1.012-.5m24 0c-.359.825-2.682 7.681-5.163 15.236-5.226 15.918-16.091 43.979-20.064 51.818-1.505 2.971-3.581 7.856-4.613 10.856-1.032 3-2.773 6.974-3.868 8.83-2.199 3.728-2.494 5.26-1.011 5.26 1.183 0 4.611-6.543 7.046-13.452.979-2.776 3.56-8.873 5.737-13.548 8.426-18.099 23.615-60.79 22.948-64.5-.283-1.574-.498-1.68-1.012-.5m-328.878 9.512c-.252.252-.129 3.246.273 6.655.523 4.434.189 9.346-1.175 17.265-1.048 6.087-1.909 11.181-1.912 11.318-.004.137-1.807.25-4.007.25-2.2 0-4 .45-4 1s1.575 1 3.5 1c4.306 0 4.33-1.127-.413 18.943-4.877 20.633-5.468 24.057-4.151 24.057.564 0 1.22-1.012 1.458-2.25.237-1.238 2.439-10.8 4.893-21.25l4.462-19 15.713.17c8.641.094 15.955.414 16.252.711.297.297-.648 6.296-2.101 13.33-2.732 13.228-3.165 17.289-1.842 17.289.424 0 1.787-5.315 3.029-11.811 3.82-19.987 3.535-19.381 8.946-19.048 2.946.181 4.759-.155 5.017-.929.278-.835-1.061-1.212-4.307-1.212h-4.712l.6-3.75c1.311-8.208 1.964-29.25.907-29.25-.64 0-1.319 4.612-1.73 11.75-.372 6.463-.988 13.764-1.368 16.225l-.691 4.475-16.481-.318c-9.065-.175-16.549-.389-16.631-.475-.083-.086.721-5.107 1.786-11.157 2.325-13.206 1.576-26.878-1.315-23.988m416 0c-.252.252-.129 3.246.273 6.655.523 4.434.189 9.346-1.175 17.265-1.048 6.087-1.909 11.181-1.912 11.318-.004.137-1.807.25-4.007.25-2.2 0-4 .45-4 1s1.575 1 3.5 1c4.306 0 4.33-1.127-.413 18.943-4.877 20.633-5.468 24.057-4.151 24.057.564 0 1.22-1.012 1.458-2.25.237-1.238 2.439-10.8 4.893-21.25l4.462-19 15.713.17c8.641.094 15.955.414 16.252.711.297.297-.648 6.296-2.101 13.33-2.732 13.228-3.165 17.289-1.842 17.289.424 0 1.787-5.315 3.029-11.811 3.82-19.987 3.535-19.381 8.946-19.048 2.946.181 4.759-.155 5.017-.929.278-.835-1.061-1.212-4.307-1.212h-4.712l.6-3.75c1.311-8.208 1.964-29.25.907-29.25-.64 0-1.319 4.612-1.73 11.75-.372 6.463-.988 13.764-1.368 16.225l-.691 4.475-16.481-.318c-9.065-.175-16.549-.389-16.631-.475-.083-.086.721-5.107 1.786-11.157 2.325-13.206 1.576-26.878-1.315-23.988m245.748 1.675c-.229.722-.647 9.188-.929 18.813-.422 14.421-3.638 46.663-5.037 50.5-.766 2.101-2.667-5.148-6.613-25.213-4.942-25.135-6.641-32.516-8.517-37.007-1.52-3.637-3.463-3.621-3.488.029-.008 1.205-1.118 5.741-2.465 10.08-5.991 19.287-9.685 56.003-5.77 57.348.961.33 1.25-2.802 1.25-13.543 0-16.581 3.221-35.454 8.224-48.194 1.437-3.657 1.852-2.191 7.692 27.176 6.584 33.103 9.227 40.82 11.32 33.055 3.239-12.013 7.968-72.369 5.777-73.723-.565-.349-1.215-.044-1.444.679M521 141c0 1.835-.667 2-8.059 2-5.118 0-7.833.365-7.441 1 .34.55 4.416 1 9.059 1H523l.032 15.25c.031 14.882 2.107 41.223 3.347 42.462 1.424 1.424 1.583-.916.701-10.301-.513-5.451-1.218-18.405-1.567-28.785l-.635-18.875 11.041.375c6.934.235 11.05.002 11.065-.626.014-.594-4.625-1.114-11.423-1.281-10.374-.255-11.505-.466-12.071-2.25-.813-2.562-2.49-2.541-2.49.031m58 0c0 1.835-.667 2-8.059 2-5.118 0-7.833.365-7.441 1 .34.55 4.416 1 9.059 1H581l.032 15.25c.031 14.882 2.107 41.223 3.347 42.462 1.424 1.424 1.583-.916.701-10.301-.513-5.451-1.218-18.405-1.567-28.785l-.635-18.875 11.041.375c6.934.235 11.05.002 11.065-.626.014-.594-4.625-1.114-11.423-1.281-10.374-.255-11.505-.466-12.071-2.25-.813-2.562-2.49-2.541-2.49.031m454 0c0 1.835-.667 2-8.059 2-5.118 0-7.833.365-7.441 1 .34.55 4.416 1 9.059 1H1035l.032 15.25c.031 14.882 2.107 41.223 3.347 42.462 1.424 1.424 1.583-.916.701-10.301-.513-5.451-1.218-18.405-1.567-28.785l-.635-18.875 11.041.375c6.934.235 11.05.002 11.065-.626.014-.594-4.625-1.114-11.423-1.281-10.374-.255-11.505-.466-12.071-2.25-.813-2.562-2.49-2.541-2.49.031m149 1.89c0 8.794-8.558 40.428-12.016 44.418-1.087 1.255-8.085-13.154-15.083-31.058-5.6-14.327-7.901-18.75-7.901-15.189 0 3.892 16.926 43.112 21.177 49.071 2.133 2.991-8.853 22.034-13.796 23.913-2.737 1.041-3.191 2.955-.701 2.955 4.498 0 16.004-17.475 19.398-29.46.941-3.322 3.085-9.865 4.765-14.54 3.191-8.878 7.708-31.3 6.65-33.011-1.328-2.149-2.493-.794-2.493 2.901m54 0c0 8.794-8.558 40.428-12.016 44.418-1.087 1.255-8.085-13.154-15.083-31.058-5.6-14.327-7.901-18.75-7.901-15.189 0 3.892 16.926 43.112 21.177 49.071 2.133 2.991-8.853 22.034-13.796 23.913-2.737 1.041-3.191 2.955-.701 2.955 4.498 0 16.004-17.475 19.398-29.46.941-3.322 3.085-9.865 4.765-14.54 3.191-8.878 7.708-31.3 6.65-33.011-1.328-2.149-2.493-.794-2.493 2.901m103 0c0 8.794-8.558 40.428-12.016 44.418-1.087 1.255-8.085-13.154-15.083-31.058-5.6-14.327-7.901-18.75-7.901-15.189 0 3.892 16.926 43.112 21.177 49.071 2.133 2.991-8.853 22.034-13.796 23.913-2.737 1.041-3.191 2.955-.701 2.955 4.498 0 16.004-17.475 19.398-29.46.941-3.322 3.085-9.865 4.765-14.54 3.191-8.878 7.708-31.3 6.65-33.011-1.328-2.149-2.493-.794-2.493 2.901m-708.5-1.01c-3.628 1.615-4.109 1.633-5.168.202-2.003-2.707-2.424-.593-.799 4.012 3.159 8.95 8.823 50.488 8.544 62.656-.176 7.701 1.336 9.896 2.509 3.642.992-5.286-6.029-61.063-8.11-64.43-.907-1.469 4.747-4.962 8.031-4.962 2.544 0 4.105.94 7.281 4.386 10.723 11.633 9.64 24.041-2.83 32.413-3.526 2.367-4.901 4.201-3.151 4.201 2.886 0 10.686-6.969 13.322-11.904 4.489-8.4 3.653-14.479-3.275-23.816-5.669-7.64-9.871-9.284-16.354-6.4m174.512-.574c-11.942 4.086-12.418 41.866-.696 55.163l4.381 4.969 10.902.38c7.194.25 10.561.042 9.901-.611-.55-.544-5.02-1.187-9.932-1.428l-8.933-.44-4.789-5.209c-6.279-6.827-7.368-10.753-7.251-26.13.163-21.5 4.208-27.456 17.31-25.491 12.492 1.873 17.193 9.811 13.766 23.241-.541 2.116-.467 3.25.211 3.25 3.91 0 3.732-17.195-.231-22.391-4.253-5.575-16.278-8.164-24.639-5.303m635.488-.219c-2.75.469-5.681.645-6.514.39-.833-.254-2.074.435-2.759 1.53-1.034 1.657-.992 1.993.251 1.993 3.589 0 6.332 12.135 9.044 40 1.531 15.736 2.482 20.329 3.915 18.896.259-.259.051-3.379-.463-6.933-.513-3.555-.943-8.454-.954-10.887l-.02-4.425 2.608 2.425c1.434 1.333 6.861 7.487 12.058 13.674 8.323 9.908 11.334 12.738 11.334 10.653 0-.825-16.246-20.462-18.87-22.808-2.859-2.557-2.682-3.591.62-3.617 3.722-.03 10.227-3.147 13.116-6.284 6.872-7.464.488-27.193-10.866-33.574-4.046-2.274-4.834-2.339-12.5-1.033m55.043.163c-.435 1.377-2.388 19.369-3.262 30.041-.918 11.218 5.723 31.387 11.149 33.859 11.148 5.079 24.802-17.505 27.6-45.65 1.148-11.541.696-17.498-1.325-17.502-.863-.002-1.111 2.15-.873 7.588 1.425 32.571-18.286 66.711-28.096 48.664-5.965-10.973-7.495-21.549-5.327-36.824 2.117-14.919 2.569-21.426 1.487-21.426-.527 0-1.136.563-1.353 1.25m-819.55 2.269c-4.139 10.886.926 23.461 15.5 38.481 9.487 9.778 12.736 17.673 8.755 21.275-4.319 3.909-17.922 6.462-22.318 4.189-3.353-1.734-3.93-1.8-3.93-.448 0 2.808 6.554 4.24 13.81 3.016 20.787-3.506 21.776-11.592 3.844-31.447-12.865-14.244-16.173-21.677-14.237-31.994l.674-3.591h9.479c9.191 0 9.508.076 10.43 2.5.523 1.375 1.412 2.5 1.975 2.5 1.268 0 1.268-.005-.073-3.851L698.804 141h-10.927c-10.756 0-10.941.039-11.884 2.519m300 0c-4.139 10.886.926 23.461 15.5 38.481 9.487 9.778 12.736 17.673 8.755 21.275-4.319 3.909-17.922 6.462-22.318 4.189-3.353-1.734-3.93-1.8-3.93-.448 0 2.808 6.554 4.24 13.81 3.016 20.787-3.506 21.776-11.592 3.844-31.447-12.865-14.244-16.173-21.677-14.237-31.994l.674-3.591h9.479c9.191 0 9.508.076 10.43 2.5.523 1.375 1.412 2.5 1.975 2.5 1.268 0 1.268-.005-.073-3.851L998.804 141h-10.927c-10.756 0-10.941.039-11.884 2.519m-55.993.359c0 .489.9 1.124 2 1.412 2.861.748 2.757 4.616-.847 31.71-2.038 15.317-1.743 36.306.43 30.643.545-1.418 2.591-1.643 14.965-1.643 19.511 0 20.134-1.86.744-2.223L922.5 203.5l.286-13.435c.158-7.389.721-15.264 1.252-17.5.53-2.236 1.261-9.182 1.623-15.436l.658-11.372 7.09.46c4.103.265 9.085 1.342 11.822 2.556 4.477 1.985 7.195 1.644 4.508-.565-3.446-2.833-29.739-6.662-29.739-4.33m330 0c0 .489.9 1.124 2 1.412 2.861.748 2.757 4.616-.847 31.71-2.038 15.317-1.743 36.306.43 30.643.545-1.418 2.591-1.643 14.965-1.643 19.511 0 20.134-1.86.744-2.223l-14.792-.277.286-13.435c.158-7.389.721-15.264 1.252-17.5.53-2.236 1.261-9.182 1.623-15.436l.658-11.372 7.09.46c4.103.265 9.085 1.342 11.822 2.556 4.477 1.985 7.195 1.644 4.508-.565-3.446-2.833-29.739-6.662-29.739-4.33m188.25-.223c-2.743.59-2.777 1.499-.323 8.634 1.06 3.081 2.492 10.747 3.182 17.037l1.254 11.435 4.069-.479c16.461-1.939 21.988-9.912 16.047-23.149-5.156-11.488-13.056-15.883-24.229-13.478m-53.307 2.735c-.253.253-5.575.606-11.828.785-11.767.336-13.763 1.134-11.042 4.413 1.615 1.946 3.515 34.554 2.49 42.754-.705 5.639-.718 5.658-4.135 5.658-1.885 0-3.428.45-3.428 1s1.537 1 3.417 1c1.879 0 3.679.563 4 1.25.466 1 .7 1 1.166 0 .321-.687 1.464-1.25 2.54-1.25 7.627 0 21.877-15.163 21.877-23.279 0-2.994-1.649-4.501-5.845-5.34-3.783-.757-3.774-.698-.744-4.698 4.887-6.452 7.298-21.749 3.54-22.459-.852-.161-1.755-.086-2.008.166m-16.257 3.342-3.814.396.814 5.686c.448 3.127.814 14.349.814 24.936 0 21.795-.205 21.351 7.574 16.418 6.684-4.239 13.926-13.939 13.926-18.653 0-2.041-4.012-3.515-9.565-3.515-5.123 0-5.692-1.299-1.514-3.459 5.018-2.595 10.079-13.014 10.079-20.751 0-1.828-7.002-2.232-18.314-1.058m-648.619 16.142c-.763 1.426-.573 2.263.794 3.5 2.317 2.097 4.544 2.123 3.746.044-.334-.87-.607-2.445-.607-3.5 0-2.459-2.624-2.489-3.933-.044M924 176c0 .617 5.167 1 13.5 1s13.5-.383 13.5-1-5.167-1-13.5-1-13.5.383-13.5 1m330 0c0 .617 5.167 1 13.5 1s13.5-.383 13.5-1-5.167-1-13.5-1-13.5.383-13.5 1m153 27.001c0 2.387.582 3.27 2.684 4.069 4.317 1.641 6.863.842 6.537-2.052-.375-3.332-1.434-4.207-5.651-4.672-3.399-.374-3.57-.247-3.57 2.655m150 .661c0 3.909-4.265 12.338-6.242 12.338-.867 0-.862.296.018 1.176 2.664 2.664 10.045-9.768 8.784-14.794-.917-3.651-2.56-2.829-2.56 1.28m-837.813.088c.416 2.181 4.813 3.028 4.813.927 0-1.389-2-2.677-4.155-2.677-.545 0-.842.787-.658 1.75m691.313.25c-.34.55-.403 1-.141 1 .263 0 1.189.273 2.059.607 1.038.398 1.582.055 1.582-1 0-1.764-2.515-2.2-3.5-.607m-1164 36.753c-10.614 1.124-23.008 4.617-22.025 6.207.379.614 1.573.592 3.287-.06 20.797-7.907 33.38-4.049 45.672 14.003 7.844 11.519 8.314 13.674 6.085 27.886-2.265 14.44-3.581 16.155-14.263 18.585-21.249 4.833-31.566-2.808-34.314-25.414-1.701-13.985.819-23.472 7.885-29.695 3.128-2.756 3.367-3.237 1.61-3.25-6.593-.048-11.956 11.912-11.876 26.485.159 28.865 13.692 40.572 38.839 33.599 9.697-2.689 11.473-4.795 13.716-16.267 3.376-17.272 2.488-21.495-7.5-35.667-7.927-11.249-18.044-17.372-27.116-16.412m289.5 1.326c-13.547 6.124-18.691 18.98-19.713 49.26l-.569 16.84-4.345-.346c-2.965-.235-4.509.08-4.86.993-.714 1.86-.644 13.668.092 15.586 1.274 3.322 2.395.178 2.396-6.721V310.5l21.75-.182c11.962-.101 23.099-.326 24.749-.5l3-.318.5 9.42c.35 6.59.899 9.553 1.828 9.86 1.301.43 1.081-9.799-.419-19.537-.529-3.428-.712-3.466-7.659-1.583-2.234.606-2.246-1.176-.154-22.723 1.717-17.675 1.407-27.228-1.166-35.937-2.788-9.439-6.339-11.032-15.43-6.921m457.5-1.326c-10.614 1.124-23.008 4.617-22.025 6.207.379.614 1.573.592 3.287-.06 20.797-7.907 33.38-4.049 45.672 14.003 7.844 11.519 8.314 13.674 6.085 27.886-2.265 14.44-3.581 16.155-14.263 18.585-21.249 4.833-31.566-2.808-34.314-25.414-1.701-13.985.819-23.472 7.885-29.695 3.128-2.756 3.367-3.237 1.61-3.25-6.593-.048-11.956 11.912-11.876 26.485.159 28.865 13.692 40.572 38.839 33.599 9.697-2.689 11.473-4.795 13.716-16.267 3.376-17.272 2.488-21.495-7.5-35.667-7.927-11.249-18.044-17.372-27.116-16.412m151.5 1.326c-13.547 6.124-18.691 18.98-19.713 49.26l-.569 16.84-4.345-.346c-2.965-.235-4.509.08-4.86.993-.714 1.86-.644 13.668.092 15.586 1.274 3.322 2.395.178 2.396-6.721V310.5l21.75-.182c11.962-.101 23.099-.326 24.749-.5l3-.318.5 9.42c.35 6.59.899 9.553 1.828 9.86 1.301.43 1.081-9.799-.419-19.537-.529-3.428-.712-3.466-7.659-1.583-2.234.606-2.246-1.176-.154-22.723 1.717-17.675 1.407-27.228-1.166-35.937-2.788-9.439-6.339-11.032-15.43-6.921m60.5-1.326c-10.614 1.124-23.008 4.617-22.025 6.207.379.614 1.573.592 3.287-.06 20.797-7.907 33.38-4.049 45.672 14.003 7.844 11.519 8.314 13.674 6.085 27.886-2.265 14.44-3.581 16.155-14.263 18.585-21.249 4.833-31.566-2.808-34.314-25.414-1.701-13.985.819-23.472 7.885-29.695 3.128-2.756 3.367-3.237 1.61-3.25-6.593-.048-11.956 11.912-11.876 26.485.159 28.865 13.692 40.572 38.839 33.599 9.697-2.689 11.473-4.795 13.716-16.267 3.376-17.272 2.488-21.495-7.5-35.667-7.927-11.249-18.044-17.372-27.116-16.412m318.5 1.326c-13.547 6.124-18.691 18.98-19.713 49.26l-.569 16.84-4.345-.346c-2.965-.235-4.509.08-4.86.993-.714 1.86-.644 13.668.092 15.586 1.274 3.322 2.395.178 2.396-6.721V310.5l21.75-.182c11.962-.101 23.099-.326 24.749-.5l3-.318.5 9.42c.35 6.59.899 9.553 1.828 9.86 1.301.43 1.081-9.799-.419-19.537-.529-3.428-.712-3.466-7.659-1.583-2.234.606-2.246-1.176-.154-22.723 1.717-17.675 1.407-27.228-1.166-35.937-2.788-9.439-6.339-11.032-15.43-6.921m-163.822 9.171c-3.28 25.551-3.33 25.755-6.138 24.994-6.341-1.718-26.45.037-38.085 3.324-1.358.384-1.495-1.433-1.13-15.018.4-14.877-.04-20.551-1.594-20.549-.402 0-.785 7.087-.85 15.75-.11 14.414-1.662 41.86-3.026 53.499-.329 2.812-.157 4.75.423 4.75 1.211 0 3.222-13.044 3.222-20.901 0-3.201.276-7.833.613-10.293l.613-4.474 7.137-1.833c4.716-1.211 11.801-1.945 20.887-2.163l13.75-.33v19.497c0 10.723.388 19.497.863 19.497.474 0 1.127-10.012 1.449-22.25.418-15.84 1.169-25.419 2.606-33.25 2.123-11.567 2.638-19.5 1.265-19.5-.45 0-1.352 4.162-2.005 9.25M535.5 244.662c-11.85 6.247-16.481 19.609-16.493 47.588L519 309h8.353c4.595 0 11.06-.283 14.368-.629l6.015-.628 1.353-10.622c2.096-16.467 1.866-43.442-.422-49.371-1.785-4.626-1.941-4.749-6-4.71-2.292.022-5.517.752-7.167 1.622m609 0c-11.85 6.247-16.481 19.609-16.493 47.588L1128 309h8.353c4.595 0 11.06-.283 14.368-.629l6.015-.628 1.353-10.622c2.096-16.467 1.866-43.442-.422-49.371-1.785-4.626-1.941-4.749-6-4.71-2.292.022-5.517.752-7.167 1.622m379 0c-11.85 6.247-16.481 19.609-16.493 47.588L1507 309h8.353c4.595 0 11.06-.283 14.368-.629l6.015-.628 1.353-10.622c2.096-16.467 1.866-43.442-.422-49.371-1.785-4.626-1.941-4.749-6-4.71-2.292.022-5.517.752-7.167 1.622m-1405.898 2.421c-.778 2.376-2.024 19.192-1.698 22.904.689 7.841 10.042 21.208 15.86 22.669 2.416.606 9.799-.052 13.986-1.247 2.207-.63 2.25-.48 2.25 7.849 0 9.666.784 14.742 2.276 14.742 1.125 0 .328-59.724-.85-63.75-1.54-5.259-1.907-1.087-1.589 18.094l.336 20.345-5.753 1.156c-8.485 1.704-9.654 1.502-14.284-2.461-8.859-7.583-11.271-16.08-9.065-31.94.741-5.324.751-8.022.033-8.74s-1.182-.601-1.502.379m1510.454.455c-11.284 3.152-16.087 9.704-14.157 19.315 2.136 10.637 8.734 15.658 19.657 14.963l6.298-.402-3.677 2.431c-6.725 4.444-10.383 8.591-13.369 15.155-3.432 7.547-4.979 16.556-2.713 15.803.835-.277 1.66-2.521 2.033-5.528 1.025-8.268 4.934-15.487 10.967-20.256 5.873-4.642 16.761-10.496 17.727-9.531.34.341.789 8.133.997 17.316.575 25.336 2.181 22.28 2.181-4.149 0-26.736-1.854-41.86-5.418-44.19-3.325-2.175-14.288-2.67-20.526-.927m66.194 1.185c-3.47.431-3.874 1.243-2.187 4.395 2.833 5.293 5.232 28.513 6.265 60.632.089 2.785 4.267 3.028 12.992.755 23.996-6.25 25.152-20.101 2.328-27.888-1.534-.524-1.024-1.187 2.98-3.875 6.003-4.028 7.339-6.622 7.357-14.28.038-15.436-10.112-22.174-29.735-19.739m-1387.704 1.428c-4.375.508-8.042 1.02-8.148 1.137-.107.116-.458 13.037-.781 28.712-.323 15.675-.706 29.625-.852 31l-.265 2.5 15.509.274 15.509.274 3.378-2.82c7.011-5.853 4.876-23.213-3.542-28.8-5.537-3.676-13.9-5.738-20.965-5.171l-6.389.513v-12.385c0-9.173.324-12.418 1.25-12.514.688-.071 7.892-.409 16.009-.75 8.485-.357 14.862-1.046 15-1.621.319-1.325-15.463-1.539-25.713-.349M353 282c0 21.333.354 33 1 33 .55 0 1-.645 1-1.433 0-1.591 1.387-2.113 8-3.008 17.101-2.316 27.517-18.178 20.75-31.597-4.581-9.084-15.256-13.024-26.75-9.873-1.25.342-1.548-1.299-1.785-9.839-.159-5.722-.711-10.25-1.25-10.25-.601 0-.965 12.464-.965 33m347.412-31.25c-.547 1.821-1.518 4.281-9.077 23L686.792 285h-4.896c-2.693 0-4.896.45-4.896 1s2.073 1 4.607 1c3.284 0 4.464.359 4.11 1.25-.274.688-2.347 5.872-4.607 11.52-3.98 9.946-4.991 13.893-3.289 12.841.451-.279 3.038-6.154 5.75-13.057l4.929-12.549 8.75-.19c4.813-.104 9.926-.218 11.364-.252 2.411-.058 2.752.479 4.405 6.937 3.426 13.384 7.756 23.059 9.527 21.287.326-.326-.276-2.324-1.338-4.44-2.207-4.393-5.704-14.831-7.069-21.097-.835-3.83-.739-4.25.967-4.25 1.042 0 1.894-.45 1.894-1s-.883-1-1.961-1c-1.429 0-2.224-1.019-2.927-3.75-6.415-24.936-8.188-30.25-10.092-30.25-.596 0-1.319.787-1.608 1.75m102.99.882c2.035 9.515 3.847 28.194 4.2 43.29.397 16.945.752 19.741 2.21 17.383.501-.811 2.137-.869 5.695-.202 6.9 1.292 17.087-1.764 21.89-6.567 5.302-5.302 6.897-14.817 4.075-24.317-2.52-8.488-7.039-9.741-24.688-6.848l-7.716 1.264-.603-4.567c-2.233-16.931-3.133-21.457-4.348-21.862-.985-.329-1.17.298-.715 2.426m462.144-1.481c-4.375.508-8.042 1.02-8.148 1.137-.107.116-.458 13.037-.781 28.712-.323 15.675-.706 29.625-.852 31l-.265 2.5 15.509.274 15.509.274 3.378-2.82c7.011-5.853 4.876-23.213-3.542-28.8-5.537-3.676-13.9-5.738-20.965-5.171l-6.389.513v-12.385c0-9.173.324-12.418 1.25-12.514.688-.071 7.892-.409 16.009-.75 8.485-.357 14.862-1.046 15-1.621.319-1.325-15.463-1.539-25.713-.349m360.586.13c-6.403 2.046-10.132 6.715-10.132 12.686 0 15.043 11.877 21.046 27.523 13.912l7.408-3.379-.027-5c-.047-8.643-2.215-17.722-4.439-18.591-2.878-1.126-16.424-.878-20.333.372m143.28.469c-.547 1.821-1.518 4.281-9.077 23l-4.543 11.25h-4.896c-2.693 0-4.896.45-4.896 1s2.073 1 4.607 1c3.284 0 4.464.359 4.11 1.25-.274.688-2.347 5.872-4.607 11.52-3.98 9.946-4.991 13.893-3.289 12.841.451-.279 3.038-6.154 5.75-13.057l4.929-12.549 8.75-.19c4.813-.104 9.926-.218 11.364-.252 2.411-.058 2.752.479 4.405 6.937 3.426 13.384 7.756 23.059 9.527 21.287.326-.326-.276-2.324-1.338-4.44-2.207-4.393-5.704-14.831-7.069-21.097-.835-3.83-.739-4.25.967-4.25 1.042 0 1.894-.45 1.894-1s-.883-1-1.961-1c-1.429 0-2.224-1.019-2.927-3.75-6.415-24.936-8.188-30.25-10.092-30.25-.596 0-1.319.787-1.608 1.75m-1368.972 2.5c1.253 5.898 2.571 29.013 2.468 43.25-.056 7.7.279 14 .745 14 .466 0 .816-11.025.777-24.5-.069-24.17-1.26-36-3.626-36-.664 0-.799 1.202-.364 3.25m526.126-1.057c-.276 1.269-.749 9.957-1.053 19.307-.303 9.35-.804 22.738-1.114 29.75-.389 8.821-.229 12.75.519 12.75.693 0 1.085-3.149 1.09-8.75.005-4.812.671-13.7 1.481-19.75.809-6.05 1.481-15.889 1.491-21.863l.02-10.864 3.25.613c5.64 1.063 24.415 1.915 27.139 1.231 5.348-1.342 2.624-2.632-4.217-1.996-5.872.545-20.978-.746-26.389-2.256-1.186-.331-1.871.234-2.217 1.828m769.684-1.487c-2.603.501-2.557.357-1.235 3.834 2.061 5.42 4.061 21.965 4.828 39.943.434 10.165 1.083 18.776 1.442 19.136 1.019 1.018 12.716-1.583 17.19-3.824 15.088-7.555 11.104-16.849-9.481-22.117-6.449-1.651-6.459-2.874-.033-4.325 6.873-1.552 11.772-5.413 12.623-9.948 2.963-15.795-8.386-25.964-25.334-22.699M574.387 255.5c1.622 11.982 1.837 22.526.491 24.155-1.073 1.301-1.101 1.763-.128 2.091.917.309 1.25 4.001 1.25 13.869 0 9.882.331 13.552 1.25 13.84 3.454 1.084 36.855 1.25 35.785.178-.721-.722-7.076-1.254-17.529-1.468l-16.397-.335-.305-12.885-.304-12.884 9.755-.281c12.958-.372 12.781-2.194-.25-2.565L578 278.93l-.007-5.215c-.004-2.868-.294-8.253-.645-11.965l-.637-6.75h16.085c9.322 0 16.338-.408 16.686-.971.951-1.539-2.895-1.979-19.809-2.263l-15.828-.266.542 4m59.052-3.064c-.196.585-.487 10.964-.647 23.064l-.292 22-3.756 7.867c-3.196 6.693-3.98 7.682-5.25 6.628-.822-.682-1.494-1.833-1.494-2.558 0-1.388-1.823-2.947-2.571-2.199-.908.907 1.857 6.845 3.628 7.793 2.767 1.48 5.314-1.865 9.078-11.923 3.169-8.468 3.228-8.942 3.639-29.108l.417-20.5 12.155.337c6.685.186 12.304.486 12.486.666.183.181-.379 4.808-1.25 10.282-1.828 11.5-2.279 51.215-.582 51.215.633 0 1-7.21 1-19.631 0-12.964.532-22.978 1.567-29.489.863-5.423 1.425-11.023 1.25-12.444l-.317-2.585-14.353-.24c-9.458-.157-14.474.124-14.708.825m240.948 3.064c1.622 11.982 1.837 22.526.491 24.155-1.073 1.301-1.101 1.763-.128 2.091.917.309 1.25 4.001 1.25 13.869 0 9.882.331 13.552 1.25 13.84 3.454 1.084 36.855 1.25 35.785.178-.721-.722-7.076-1.254-17.529-1.468l-16.397-.335-.305-12.885-.304-12.884 9.755-.281c12.958-.372 12.781-2.194-.25-2.565L878 278.93l-.007-5.215c-.004-2.868-.294-8.253-.645-11.965l-.637-6.75h16.085c9.322 0 16.338-.408 16.686-.971.951-1.539-2.895-1.979-19.809-2.263l-15.828-.266.542 4m193.613-.718c0 2.08.671 6.243 1.492 9.25.821 3.007 1.988 7.718 2.593 10.468 1.465 6.651 9.686 23.818 14.247 29.748l3.652 4.748-3.086 5.015c-4.522 7.349-16.34 13.428-21.126 10.867-2.66-1.424-3.73-.052-1.329 1.704 2.611 1.909 4.48 1.793 11.131-.695 14.153-5.296 23.719-24.578 25.54-51.477.487-7.2 1.516-15.187 2.288-17.75 1.15-3.823 1.165-4.66.08-4.66-1.955 0-4.48 12.47-4.494 22.197-.015 9.98-5.572 31.803-8.098 31.803-1.194 0-6.686-8.64-11.214-17.641-3.627-7.212-9.676-28.654-9.676-34.301 0-1.682-.45-3.058-1-3.058s-1 1.702-1 3.782m306.387.718c1.622 11.982 1.837 22.526.491 24.155-1.073 1.301-1.101 1.763-.128 2.091.917.309 1.25 4.001 1.25 13.869 0 9.882.331 13.552 1.25 13.84 3.454 1.084 36.855 1.25 35.785.178-.721-.722-7.076-1.254-17.529-1.468l-16.397-.335-.305-12.885-.304-12.884 9.755-.281c12.958-.372 12.781-2.194-.25-2.565L1378 278.93l-.007-5.215c-.004-2.868-.294-8.253-.645-11.965l-.637-6.75h16.085c9.322 0 16.338-.408 16.686-.971.951-1.539-2.895-1.979-19.809-2.263l-15.828-.266.542 4m50 0c1.622 11.982 1.837 22.526.491 24.155-1.073 1.301-1.101 1.763-.128 2.091.917.309 1.25 4.001 1.25 13.869 0 9.882.331 13.552 1.25 13.84 3.454 1.084 36.855 1.25 35.785.178-.721-.722-7.076-1.254-17.529-1.468l-16.397-.335-.305-12.885-.304-12.884 9.755-.281c12.958-.372 12.781-2.194-.25-2.565L1428 278.93l-.007-5.215c-.004-2.868-.294-8.253-.645-11.965l-.637-6.75h16.085c9.322 0 16.338-.408 16.686-.971.951-1.539-2.895-1.979-19.809-2.263l-15.828-.266.542 4m147.052-3.064c-.196.585-.487 10.964-.647 23.064l-.292 22-3.756 7.867c-3.196 6.693-3.98 7.682-5.25 6.628-.822-.682-1.494-1.833-1.494-2.558 0-1.388-1.823-2.947-2.571-2.199-.908.907 1.857 6.845 3.628 7.793 2.767 1.48 5.314-1.865 9.078-11.923 3.169-8.468 3.228-8.942 3.639-29.108l.417-20.5 12.155.337c6.685.186 12.304.486 12.486.666.183.181-.379 4.808-1.25 10.282-1.828 11.5-2.279 51.215-.582 51.215.633 0 1-7.21 1-19.631 0-12.964.532-22.978 1.567-29.489.863-5.423 1.425-11.023 1.25-12.444l-.317-2.585-14.353-.24c-9.458-.157-14.474.124-14.708.825M200 253.182c-3.575.511-12.687.703-20.25.428-7.562-.275-13.75-.111-13.75.365 0 .816 6.901 1.744 16.985 2.285l4.486.24-.304 4.5c-.168 2.475-2.252 13.5-4.633 24.5-5.861 27.079-5.773 26.5-4.009 26.5.941 0 1.478-.996 1.482-2.75.005-1.512 1.615-9.725 3.579-18.25 1.963-8.525 4.266-19.834 5.115-25.132l1.545-9.631 8.127-.686c9.603-.811 12.627-1.448 12.627-2.659 0-1.039-2.082-.984-11 .29m257.45-.225c-11.122 4.505-18.323 40.319-10.863 54.025 5.327 9.788 6.77 10.518 20.776 10.518 14.153 0 15.867-.689 20.639-8.287C490.882 304.628 492.063 298 490 298c-.55 0-1 1.244-1 2.763 0 4.594-6.337 12.959-10.744 14.183-5.562 1.544-18.844 1.319-22.121-.376-10.82-5.595-13.82-27.449-6.404-46.652C454.024 256.8 457.619 254 467.604 254c16.108 0 25.303 7.006 25.374 19.333.015 2.628.415 3.696 1.272 3.395 3.497-1.227-1.91-16.964-7.062-20.552-5.277-3.675-23.691-5.668-29.738-3.219m317.55.225c-3.575.511-12.687.703-20.25.428-7.562-.275-13.75-.111-13.75.365 0 .816 6.901 1.744 16.985 2.285l4.486.24-.304 4.5c-.168 2.475-2.252 13.5-4.633 24.5-5.861 27.079-5.773 26.5-4.009 26.5.941 0 1.478-.996 1.482-2.75.005-1.512 1.615-9.725 3.579-18.25 1.963-8.525 4.266-19.834 5.115-25.132l1.545-9.631 8.127-.686c9.603-.811 12.627-1.448 12.627-2.659 0-1.039-2.082-.984-11 .29m1044.45-.225c-11.122 4.505-18.323 40.319-10.863 54.025 5.327 9.788 6.77 10.518 20.776 10.518 14.153 0 15.867-.689 20.639-8.287 2.88-4.585 4.061-11.213 1.998-11.213-.55 0-1 1.244-1 2.763 0 4.594-6.337 12.959-10.744 14.183-5.562 1.544-18.844 1.319-22.121-.376-10.82-5.595-13.82-27.449-6.404-46.652 4.293-11.118 7.888-13.918 17.873-13.918 16.108 0 25.303 7.006 25.374 19.333.015 2.628.415 3.696 1.272 3.395 3.497-1.227-1.91-16.964-7.062-20.552-5.277-3.675-23.691-5.668-29.738-3.219m-1118.219 2.612c-.601 1.612-3.373 8.47-6.161 15.24-6.242 15.154-6.322 14.193 1.18 14.18 10.16-.018 13.751-.898 13.744-3.37-.007-2.168-5.092-22.166-6.752-26.55l-.92-2.431-1.091 2.931m1069 0c-.601 1.612-3.373 8.47-6.161 15.24-6.242 15.154-6.322 14.193 1.18 14.18 10.16-.018 13.751-.898 13.744-3.37-.007-2.168-5.092-22.166-6.752-26.55l-.92-2.431-1.091 2.931M361.5 270.491c-.55.184-2.238.607-3.75.941l-2.75.606V309h3.257C370.413 309 384 298.241 384 288.616c0-11.485-12.418-21.488-22.5-18.125m452 6.624-4 .901.326 15.234c.179 8.379.481 15.39.671 15.58.19.19 3.018.588 6.286.884 18.447 1.673 29.293-13.695 21.5-30.464l-1.511-3.25-9.636.107c-5.3.059-11.436.513-13.636 1.008m-511.25 2.854c-2.161.928-2.25 1.46-2.25 13.374 0 6.824-.281 13.813-.625 15.532L298.75 312l13.875-.005c17.678-.006 19.331-.918 19.995-11.029.617-9.379-2.115-14.463-9.846-18.329-6.195-3.098-16.426-4.427-20.524-2.668m959 0c-2.161.928-2.25 1.46-2.25 13.374 0 6.824-.281 13.813-.625 15.532l-.625 3.125 13.875-.005c17.678-.006 19.331-.918 19.995-11.029.617-9.379-2.115-14.463-9.846-18.329-6.195-3.098-16.426-4.427-20.524-2.668M1871 309.001c0 2.387.582 3.27 2.684 4.069 4.317 1.641 6.863.842 6.537-2.052-.375-3.332-1.434-4.207-5.651-4.672-3.399-.374-3.57-.247-3.57 2.655m3.5.999c-.34.55-.403 1-.141 1 .263 0 1.189.273 2.059.607 1.038.398 1.582.055 1.582-1 0-1.764-2.515-2.2-3.5-.607" fill-rule="evenodd"/>

</svg>