<svg xmlns="http://www.w3.org/2000/svg" viewBox="0 0 650 100">

<path fill="#962828" stroke="#962828" d="M22.65 12.549C12.777 14.512 9 15.935 9 17.694c0 1.089.658 1.382 2.25 1.002C32.255 13.678 36.058 13.48 43 17.038c6.615 3.391 14.895 13.038 20.427 23.8 3.219 6.263.738 28.47-3.669 32.839-4.982 4.94-22.64 6.922-30.374 3.41C14.934 70.525 10.84 36.454 23.1 24.79c5.702-5.424 4.492-8.403-1.498-3.691-6.203 4.879-8.109 11.019-8.038 25.901.141 29.425 12.883 40.43 38.937 33.626 10.82-2.826 12.326-4.98 14.912-21.333 2.083-13.168 1.248-17.074-5.971-27.923C49.517 13.447 40.397 9.022 22.65 12.549m239 0c-9.873 1.963-13.65 3.386-13.65 5.145 0 1.089.658 1.382 2.25 1.002 21.005-5.018 24.808-5.216 31.75-1.658 6.615 3.391 14.895 13.038 20.427 23.8 3.219 6.263.738 28.47-3.669 32.839-4.982 4.94-22.64 6.922-30.374 3.41-14.45-6.562-18.544-40.633-6.284-52.297 5.702-5.424 4.492-8.403-1.498-3.691-6.203 4.879-8.109 11.019-8.038 25.901.141 29.425 12.883 40.43 38.937 33.626 10.82-2.826 12.326-4.98 14.912-21.333 2.083-13.168 1.248-17.074-5.971-27.923-11.925-17.923-21.045-22.348-38.792-18.821m111.017.118c-.367.366-.67 2.729-.674 5.25-.003 2.521-.9 9.758-1.993 16.083-1.093 6.325-1.99 11.741-1.993 12.035-.004.295-4.418.359-9.809.142-7.295-.293-12.445.145-20.139 1.715C332.373 49.051 327.523 50 327.28 50c-.242 0-.154-5.962.196-13.25.665-13.803-.132-21.802-2.24-22.505-.942-.314-1.236 2.94-1.236 13.691 0 7.757-.709 23.432-1.575 34.833-.866 11.402-1.654 21.856-1.75 23.231-.112 1.598.348 2.5 1.275 2.5 1.854 0 3.948-13.432 4.008-25.711l.042-8.712 3.75-.994c12.443-3.298 23.724-4.573 31.98-3.614l5.893.684-.061 19.156c-.053 16.265.164 19.201 1.438 19.448 1.289.251 1.527-2.57 1.691-20.025.143-15.222.707-23.343 2.25-32.385 2.848-16.695 2.732-26.687-.274-23.68M140.353 26.651c.356 4.208.647 20.183.647 35.5 0 24.088.203 27.849 1.5 27.849 1.254 0 1.5-2.06 1.5-12.54C144 60.761 145.069 59 155.21 59c9.276 0 14.065 4.172 20.375 17.75 2.728 5.869 4.868 9.25 5.857 9.25 2.138 0 2.138-.001-3.019-10.861-7-14.745-12.383-19.393-22.628-19.538l-5.704-.08 2.583-4.511c3.252-5.678 7.944-10.689 16.73-17.869 12.959-10.589 12.296-9.909 10.385-10.656-3.65-1.427-24.63 17.694-31.287 28.516l-3.999 6.499-.53-18c-.519-17.604-.968-20.5-3.179-20.5-.745 0-.884 2.409-.441 7.651m374.157-6.537c-.306.797.354 8.54 1.467 17.206C517.238 47.143 518 58.877 518 68.479c0 15.113.651 18.27 3.236 15.685.646-.646 3.449-.846 7.163-.511 12.751 1.15 22.903-5.622 25.21-16.817 2.052-9.955-1.065-21.159-6.248-22.46-2.69-.675-19.945.161-24.361 1.181l-2.5.577-1.781-12.798c-1.713-12.312-3.003-16.365-4.209-13.222M388.011 24.25c.005 2.337.94 10.1 2.077 17.25s2.369 19.52 2.739 27.489c.545 11.732.958 14.539 2.173 14.756 1.782.317 7.971-8.987 17.791-26.745 12.299-22.242 16.923-29.953 17.572-29.303.351.35.637 11.305.637 24.345C431 77.6 431.405 82 433.756 82c1.676 0 1.249-50.834-.488-57.994-1.063-4.381-3.505-4.994-5.156-1.295-1.34 3.003-12.09 22.271-23.456 42.039-3.874 6.738-7.406 12.25-7.849 12.25-.444 0-.807-4.265-.807-9.478s-.875-15.001-1.944-21.75c-1.069-6.75-2.246-15.31-2.616-19.022-.791-7.933-3.448-9.87-3.429-2.5m-180.596-2.333c-.228.229-.422 9.004-.43 19.5-.016 21.118-1.066 27.852-5.805 37.223l-2.835 5.607-1.73-3.647c-1.743-3.673-3.615-4.023-3.615-.676 0 2.332 3.727 7.076 5.558 7.076 2.154 0 6.039-6.637 8.884-15.176 2.392-7.178 2.558-8.935 2.558-27.067v-19.39l12.32.066 12.32.067-1.478 8.5c-1.837 10.562-2.28 53.116-.56 53.696.769.26 1.275-6.071 1.673-20.912.314-11.706 1.317-26.175 2.23-32.152.912-5.977 1.285-11.227.827-11.666-.849-.814-29.161-1.807-29.917-1.049m372.254-.253c-1.221 1.221-.715 2.1 5.47 9.495 11.441 13.679 17.987 22.826 17.247 24.101-2.254 3.885-13.789 17.865-17.748 21.511C579.827 81.2 578.924 83 581.51 83c2.295 0 9.976-7.572 16.738-16.5 3.333-4.4 6.36-8.347 6.727-8.772.367-.424 3.637 2.951 7.265 7.5 9.728 12.197 19.18 21.209 21.365 20.37 1.463-.561.284-2.196-6.775-9.389C618.195 67.411 608 55.49 608 54.191 608 51.276 635.781 24 638.75 24c.687 0 1.25-.675 1.25-1.5 0-5.366-15.591 6.734-30.117 23.373l-4.617 5.288-3.446-4.33A4098.076 4098.076 0 0 1 591.296 33.5c-7.884-10.023-10.637-12.826-11.627-11.836m-457.81.81c-1.117 1.118-26.084 2.249-33.859 1.534-9.144-.841-10.717-.577-8.989 1.505.705.849 4.765 1.594 11.159 2.048l10.051.712-.665 5.114c-.366 2.812-2.666 14.174-5.111 25.247C92 69.708 90 79.946 90 81.384c0 4.387 2.667 3.11 3.412-1.634.367-2.338 2.462-12.289 4.655-22.114 2.193-9.825 4.26-20.47 4.593-23.656l.605-5.793 4.118-.553c2.264-.305 6.635-.84 9.713-1.19 6.288-.715 8.485-1.694 7.473-3.332-.719-1.164-1.904-1.443-2.71-.638m373 0c-1.117 1.118-26.084 2.249-33.859 1.534-9.144-.841-10.717-.577-8.989 1.505.705.849 4.765 1.594 11.159 2.048l10.051.712-.665 5.114c-.366 2.812-2.666 14.174-5.111 25.247C465 69.708 463 79.946 463 81.384c0 4.387 2.667 3.11 3.412-1.634.367-2.338 2.462-12.289 4.655-22.114 2.193-9.825 4.26-20.47 4.593-23.656l.605-5.793 4.118-.553c2.264-.305 6.635-.84 9.713-1.19 6.288-.715 8.485-1.694 7.473-3.332-.719-1.164-1.904-1.443-2.71-.638m31.935 25.761-5.706.979.594 15.143c.327 8.329.741 15.314.92 15.524 1.322 1.545 14.391.289 18.664-1.793 9.102-4.437 12.548-15.939 7.912-26.418L547.112 47l-7.306.128c-4.018.071-9.874.569-13.012 1.107" fill-rule="evenodd"/>

<path fill="#766d7b" stroke="#766d7b" d="M32 11.526c-.825.162-4.837.839-8.916 1.504-8.871 1.449-14.768 3.686-13.378 5.076.625.625 1.994.579 3.858-.13 21.04-8 32.839-4.049 45.519 15.241 6.889 10.48 7.508 13.447 5.46 26.175-2.488 15.458-3.228 16.289-17.255 19.363-17.984 3.941-28.389-4.553-31.256-25.514-1.805-13.198 1.785-26.525 8.116-30.126 3.297-1.875 3.667-3.115.93-3.115-2.615 0-8.827 7.476-10.342 12.447-3.839 12.592-.249 34.658 6.93 42.605 8.732 9.665 35.724 9.022 41.639-.991 2.262-3.83 4.982-20.328 4.487-27.219-.511-7.114-10.341-22.858-18.101-28.992-3.975-3.142-13.373-7.193-15.623-6.734-.312.064-1.243.248-2.068.41m239 0c-.825.162-4.837.839-8.916 1.504-8.871 1.449-14.768 3.686-13.378 5.076.625.625 1.994.579 3.858-.13 21.04-8 32.839-4.049 45.519 15.241 6.889 10.48 7.508 13.447 5.46 26.175-2.488 15.458-3.228 16.289-17.255 19.363-17.984 3.941-28.389-4.553-31.256-25.514-1.805-13.198 1.785-26.525 8.116-30.126 3.297-1.875 3.667-3.115.93-3.115-2.615 0-8.827 7.476-10.342 12.447-3.839 12.592-.249 34.658 6.93 42.605 8.732 9.665 35.724 9.022 41.639-.991 2.262-3.83 4.982-20.328 4.487-27.219-.511-7.114-10.341-22.858-18.101-28.992-3.975-3.142-13.373-7.193-15.623-6.734-.312.064-1.243.248-2.068.41M372.081 22.25c-.682 5.087-1.784 12.85-2.449 17.25l-1.209 8-3.462-.5c-6.653-.961-18.535-.343-27.688 1.441a3716.62 3716.62 0 0 1-9.94 1.929c-.393.071-.741-7.706-.773-17.283-.037-10.662-.448-17.543-1.06-17.749-.636-.215-1.039 5.4-1.106 15.412-.094 14.087-1.615 40.66-3.06 53.5-.321 2.849-.136 4.75.462 4.75 1.14 0 2.844-12.088 3.654-25.918.304-5.179.664-9.521.801-9.647 1.741-1.609 22.933-4.517 31.485-4.321L368 49.35v19.266c0 26.553 1.597 25.247 2.313-1.892.417-15.815 1.168-25.396 2.605-33.224 2.119-11.545 2.662-20.5 1.242-20.5-.462 0-1.397 4.163-2.079 9.25m-231.733.741c.359 1.792.652 17.64.652 35.217 0 25.122.267 31.87 1.25 31.544.887-.295 1.325-3.879 1.509-12.334.349-16.038 2.109-19.372 10.241-19.399 9.319-.03 15.76 5.406 21.879 18.464 2.423 5.169 4.585 8.517 5.502 8.517 1.162 0 .716-1.607-1.935-6.972-1.895-3.835-3.446-7.361-3.446-7.836 0-.475-1.621-2.945-3.603-5.489C167.91 58.944 162.087 56 155.184 56c-6.148 0-6.086.242-1.751-6.869 3.688-6.05 8.55-11.1 15.284-15.875C177.59 26.963 182.139 22 179.033 22c-.531 0-3.178 1.913-5.882 4.25-2.703 2.337-7.648 6.384-10.989 8.993-4.423 3.453-7.487 7.054-11.273 13.25C148.03 53.172 145.31 57 144.845 57c-.465 0-.89-5.737-.944-12.75-.125-16.126-.979-23.452-2.803-24.055-1.092-.361-1.258.256-.75 2.796m248.118 3.138c.38 3.504 1.555 12.078 2.612 19.054C392.135 52.159 393 61.659 393 66.294c0 9.872.929 17.706 2.099 17.706 1.783 0 16.836-25.096 31.334-52.242 1.687-3.158 3.34-5.745 3.675-5.75C431.3 25.992 432 38.625 432 60.147c0 17.047.28 21.853 1.275 21.853.968 0 1.212-2.47 1.011-10.25-.145-5.638-.429-18.8-.629-29.25-.344-17.931-.875-22.5-2.611-22.5-.643 0-7.308 11.513-25.917 44.772-2.546 4.55-5.572 9.467-6.726 10.927l-2.096 2.654-.698-11.427c-.384-6.284-1.57-17.726-2.636-25.426-1.066-7.7-2.059-15.54-2.206-17.423-.147-1.883-.88-3.624-1.629-3.871-1.101-.361-1.23.776-.672 5.923m125.984-2.984c2.521 14.581 3.808 27.961 4.162 43.285.416 17.959.762 20.44 2.435 17.45.756-1.35 1.672-1.45 5.799-.634 8.614 1.703 20.4-3.078 24.377-9.888 2.394-4.098 3.341-14.618 1.821-20.223-2.476-9.133-7.015-10.614-24.542-8.008-4.169.62-7.776.932-8.016.692-.24-.239-1.234-5.999-2.211-12.8-1.153-8.034-2.236-12.516-3.09-12.797-.983-.323-1.168.416-.735 2.923m118.628.914c-5.743 4.16-19.556 17.403-24.063 23.07l-3.681 4.628-10.917-14.022c-6.004-7.713-11.683-14.505-12.619-15.094-3.91-2.459-2.695.76 2.815 7.458 20.637 25.091 19.791 23.196 13.86 31.068-2.625 3.483-7.901 9.54-11.726 13.46-4.238 4.345-6.523 7.393-5.852 7.808 1.971 1.218 12.272-8.969 20.548-20.321l3.927-5.386 2.065 2.476c18.938 22.706 26.583 30.059 26.558 25.546-.003-.687-3.198-4.4-7.1-8.25-11.862-11.707-19.144-21.134-18.323-23.72.861-2.712 20.138-22.01 26.68-26.708 2.612-1.876 4.75-3.785 4.75-4.242 0-1.661-2.794-.762-6.922 2.229m-425.627-1.177c-.248.248-.451 9.52-.451 20.603 0 21.58-.703 26.039-5.647 35.802-2.511 4.958-3.826 5.23-5.39 1.116-.913-2.401-2.963-3.337-2.963-1.353 0 1.991 2.93 6.709 4.553 7.332 2.319.89 3.162.114 6.031-5.549 4.975-9.817 6.416-18.408 6.415-38.243l-.002-18.09 12.252.337c6.738.186 12.364.449 12.501.584.138.136-.422 4.709-1.244 10.163C231.763 47.153 231.37 87 233 87c.631 0 1.007-7.095 1.018-19.25.011-11.817.583-22.918 1.482-28.75.805-5.225 1.472-11.075 1.481-13l.016-3.5-14.547-.035c-8.001-.019-14.75.169-14.999.417M112 24.182c-3.575.511-12.463.682-19.75.381-7.287-.301-13.25-.16-13.25.314 0 1.184 6.169 2.099 14.25 2.112L100 27v4.116c0 2.263-1.999 13.176-4.442 24.25-2.443 11.073-4.58 21.8-4.75 23.836-.331 3.972 1.481 5.405 2.009 1.588.174-1.26 2.278-11.29 4.677-22.29 2.398-11 4.662-22.526 5.031-25.614l.672-5.615 8.151-.679c9.501-.792 12.652-1.465 12.652-2.7 0-1.053-3.127-.977-12 .29m373 0c-3.575.511-12.462.682-19.75.381-7.288-.301-13.25-.16-13.25.314 0 1.184 6.169 2.099 14.25 2.112L473 27v4.116c0 2.263-1.999 13.176-4.442 24.25-2.443 11.073-4.58 21.8-4.75 23.836-.331 3.972 1.481 5.405 2.009 1.588.174-1.26 2.278-11.29 4.677-22.29 2.398-11 4.662-22.526 5.031-25.614l.672-5.615 8.151-.679c9.501-.792 12.652-1.465 12.652-2.7 0-1.053-3.127-.977-12 .29m40.136 24.131-4.363 1.187.162 14.965c.088 8.23.329 15.132.534 15.337.205.206 3.106.621 6.446.924 17.73 1.608 29.166-13.889 21.567-29.226l-1.982-4-9-.187c-4.95-.103-10.964.347-13.364 1" fill-rule="evenodd"/>

<path fill="#766d7b" stroke="#766d7b" d="M20.717 13.619c-8.056 1.729-12.688 3.444-10.999 4.073.67.249 4.945-.476 9.5-1.611 19.532-4.87 27.516-1.62 39.485 16.073 7.76 11.471 8.348 14.36 5.874 28.846-2.413 14.133-6.433 17.536-22.077 18.688-17.872 1.316-26.745-9.621-26.924-33.188-.09-11.798 2.311-18.613 8.294-23.544 3.714-3.062 2.375-4.217-1.632-1.41-11.172 7.825-11.892 39.002-1.212 52.487 6.128 7.737 18.589 9.751 33.502 5.416 6.97-2.027 9.116-4.595 10.842-12.979 3.818-18.546 3.397-22.481-3.558-33.229C49.193 13.739 40.189 9.44 20.717 13.619m239 0c-8.056 1.729-12.688 3.444-10.999 4.073.67.249 4.945-.476 9.5-1.611 19.532-4.87 27.516-1.62 39.485 16.073 7.76 11.471 8.348 14.36 5.874 28.846-2.413 14.133-6.433 17.536-22.077 18.688-17.872 1.316-26.745-9.621-26.924-33.188-.09-11.798 2.311-18.613 8.294-23.544 3.714-3.062 2.375-4.217-1.632-1.41-11.172 7.825-11.892 39.002-1.212 52.487 6.128 7.737 18.589 9.751 33.502 5.416 6.97-2.027 9.116-4.595 10.842-12.979 3.818-18.546 3.397-22.481-3.558-33.229-12.619-19.502-21.623-23.801-41.095-19.622m113.276 3.131c-.003 2.063-.951 8.925-2.105 15.25-2.367 12.97-4 56-2.125 56 .624 0 1.203-8.582 1.536-22.75.396-16.822 1.07-25.616 2.587-33.75C375.147 19.377 375.531 13 374 13c-.55 0-1.003 1.688-1.007 3.75m-48.189 8c.335 8.699-2.091 50.845-3.482 60.5-.307 2.128-.121 3.75.429 3.75 1.218 0 2.198-7.043 3.165-22.752.415-6.739.984-12.481 1.263-12.76 1.712-1.712 20.534-4.703 30.019-4.77 5.884-.042 10.47-.446 10.191-.897-.991-1.604-20.721-.825-30.291 1.195-5.171 1.091-9.545 1.984-9.72 1.984-.176 0-.041-6.438.299-14.308.595-13.784.046-21.692-1.508-21.692-.407 0-.571 4.387-.365 9.75m-183.596 3.5c.43 4.538.716 20.07.636 34.516-.08 14.446.147 26.559.505 26.917.358.357.651-5.074.651-12.07C143 61.367 144.851 58 153.782 58c10.347 0 15.81 4.499 22.161 18.25 2.222 4.813 4.494 8.75 5.049 8.75 1.435 0 1.471.103-3.585-10.427-6.003-12.504-10.964-17.165-19.226-18.065-3.124-.34-6.446-.706-7.381-.813-3.735-.428 7.57-14.964 17.7-22.758 8.732-6.719 12.084-9.882 10.5-9.909-.825-.014-2.85 1.153-4.5 2.592-1.65 1.44-5.25 4.316-8 6.391-8.648 6.526-18.819 19.14-21.157 26.239-1.638 4.973-2.343-.045-2.343-16.668 0-10.13-.273-19.13-.607-20-1.43-3.726-1.912-1.011-1.185 6.668m247.715-7.75c-.342 3.165.421 11.504 2.06 22.5 1.024 6.875 2.173 18.912 2.552 26.75.379 7.838 1.043 14.25 1.475 14.25.941 0 11.799-16.652 14.996-23 1.246-2.475 6.358-11.7 11.358-20.5l9.093-16 .714 4c.392 2.2.74 14.886.771 28.191.036 14.985.439 24.426 1.058 24.809 1.266.782 1.307-43.108.05-52.868-1.277-9.905-2.266-10.14-6.586-1.56-2.028 4.027-4.832 9.135-6.232 11.352-1.399 2.217-5.462 9.439-9.027 16.049-14.893 27.606-16 28.396-16.148 11.527-.045-5.225-.971-15.125-2.057-22-1.086-6.875-1.987-14.525-2.002-17-.025-3.869-1.769-9.334-2.075-6.5m126.019-.108c-.284.284.305 5.824 1.31 12.312 1.07 6.905 2.025 19.853 2.304 31.229.433 17.621.977 22.623 2.119 19.453.265-.737 2.708-.948 7.229-.625 16.165 1.157 25.43-6.763 25.46-21.761.031-15.619-3.81-18.373-22.067-15.821-5.939.829-10.976 1.362-11.195 1.184-.219-.179-1.015-5.171-1.771-11.094-1.412-11.075-2.485-15.782-3.389-14.877m117.398 4.522c-6.542 5.289-20.331 18.706-24.047 23.397l-3.019 3.812-9.641-12.312c-13.533-17.281-14.259-18.102-15.59-17.659-1.023.341 5.204 8.686 20.574 27.571l3.437 4.223-5.384 7.277c-2.961 4.002-8.173 10.127-11.582 13.61-3.41 3.482-6.027 6.851-5.816 7.484.582 1.745 11.515-9.175 17.728-17.708 3.025-4.154 5.95-7.549 6.5-7.544.55.004 3.25 2.925 6 6.49 6.201 8.039 21.201 23.077 22.111 22.167.37-.37-3.329-4.877-8.219-10.015-4.891-5.138-11.018-12.072-13.617-15.409l-4.726-6.066 2.813-3.866c3.867-5.316 24.925-25.335 27.8-26.427 1.286-.489 2.338-1.351 2.338-1.914 0-2.045-2.922-.943-7.66 2.889M207.983 40.431c-.02 20.201-1.231 28.145-5.669 37.185-3.042 6.198-4.196 6.87-5.938 3.459-.618-1.211-1.518-2.143-2-2.072-1.253.184-.469 3.192 1.369 5.247 2.925 3.271 4.798 2.104 8.028-5 5.079-11.17 5.493-13.604 5.814-34.25.167-10.725.328-19.75.358-20.055.056-.568 24.268.026 24.912.611.196.178-.366 5.271-1.25 11.316C231.768 49.45 231.314 87 233 87c.633 0 1-7.249.999-19.75-.001-13.037.564-23.746 1.661-31.506.914-6.465 1.477-11.924 1.251-12.131-.226-.207-6.823-.573-14.661-.813L208 22.363l-.017 18.068M114.5 24.184c-3.3.517-12.638.757-20.75.532-8.112-.224-14.75-.089-14.75.299 0 .9 8.777 1.965 16.284 1.976l5.785.009-.644 5.25c-.353 2.888-2.424 13.315-4.601 23.172-3.912 17.709-5.812 30.177-3.974 26.078.942-2.101 8.67-37.299 9.606-43.75 1.681-11.588.795-10.399 8.314-11.155 10.444-1.05 14.23-1.775 14.23-2.723 0-1.013-1.323-.969-9.5.312m373 0c-3.3.517-12.637.757-20.75.532-8.113-.224-14.75-.089-14.75.299 0 .9 8.777 1.965 16.284 1.976l5.785.009-.644 5.25c-.353 2.888-2.424 13.315-4.601 23.172-3.912 17.709-5.812 30.177-3.974 26.078.942-2.101 8.67-37.299 9.606-43.75 1.681-11.588.795-10.399 8.314-11.155 10.444-1.05 14.23-1.775 14.23-2.723 0-1.013-1.323-.969-9.5.312m42.756 22.831c-10.105 1.474-10.56 1.713-9.871 5.158.338 1.692.615 8.608.615 15.369v12.292l4.782 1.026c17.199 3.688 29.778-10.102 24.808-27.199-2.284-7.856-5.297-8.841-20.334-6.646" fill-rule="evenodd"/>

<path fill="#962828" stroke="#962828" d="M633.726 23.913c-5.218 3.951-18.283 16.512-23.843 22.924l-4.617 5.324-3.446-4.33A4098.076 4098.076 0 0 1 591.296 34.5C583.702 24.845 580 21.014 580 22.81c0 .616 1.283 2.599 2.851 4.405 1.568 1.807 6.997 8.594 12.064 15.084l9.214 11.798-6.56 8.811c-3.608 4.845-8.812 10.917-11.565 13.491-5.364 5.018-5.745 5.601-3.656 5.601 1.797 0 10.914-9.759 17.517-18.75 2.928-3.987 5.44-7.25 5.582-7.25.142 0 2.438 2.813 5.103 6.25 6.662 8.594 21.55 23.806 22.64 23.132.491-.303-3.288-4.921-8.399-10.262-5.11-5.34-11.258-12.276-13.661-15.413l-4.37-5.703 2.846-3.752C615.227 42.843 636.711 23 639.111 23c.554 0 .729-.45.389-1-.909-1.471-1.611-1.239-5.774 1.913" fill-rule="evenodd"/>

</svg>